SplineFontDB: 3.0
FontName: GermaniaOne-Regular
FullName: Germania One
FamilyName: Germania One
Weight: Book
Copyright: Copyright (c) 2011 by John Vargas Beltran (john.vargasbeltran@gmail.com), with Reserved Font Name "Germania One"
Version: 1.001
ItalicAngle: 0
UnderlinePosition: -50
UnderlineWidth: 50
Ascent: 800
Descent: 200
sfntRevision: 0x00010042
LayerCount: 2
Layer: 0 1 "Back"  1
Layer: 1 1 "Fore"  0
XUID: [1021 881 1760668477 861117]
FSType: 0
OS2Version: 2
OS2_WeightWidthSlopeOnly: 0
OS2_UseTypoMetrics: 1
CreationTime: 1326325459
ModificationTime: 1326322697
PfmFamily: 17
TTFWeight: 400
TTFWidth: 5
LineGap: 0
VLineGap: 0
Panose: 2 11 7 0 2 2 0 0 0 0
OS2TypoAscent: 111
OS2TypoAOffset: 1
OS2TypoDescent: -50
OS2TypoDOffset: 1
OS2TypoLinegap: 0
OS2WinAscent: 0
OS2WinAOffset: 1
OS2WinDescent: 0
OS2WinDOffset: 1
HheadAscent: 0
HheadAOffset: 1
HheadDescent: 0
HheadDOffset: 1
OS2SubXSize: 700
OS2SubYSize: 650
OS2SubXOff: 0
OS2SubYOff: 140
OS2SupXSize: 700
OS2SupYSize: 650
OS2SupXOff: 0
OS2SupYOff: 477
OS2StrikeYSize: 50
OS2StrikeYPos: 250
OS2Vendor: 'pyrs'
OS2CodePages: 00000003.00000000
OS2UnicodeRanges: 800000ef.50000002.00000000.00000000
Lookup: 258 0 0 "'kern' Horizontal Kerning in Latin lookup 0"  {"'kern' Horizontal Kerning in Latin lookup 0 subtable"  } ['kern' ('latn' <'dflt' > ) ]
DEI: 91125
TtTable: prep
PUSHW_1
 511
SCANCTRL
PUSHB_1
 4
SCANTYPE
EndTTInstrs
ShortTable: maxp 16
  1
  0
  282
  72
  5
  0
  0
  2
  0
  1
  1
  0
  64
  0
  0
  0
EndShort
LangName: 1033 "" "" "" "JohnVargasBeltran: Germania One: 2011" "" "Version 1.001" "" "Germania One is a trademark of John Vargas Beltran." "John Vargas Beltran" "John Vargas Beltran" "" "" "www.johnvargasbeltran.com" "This Font Software is licensed under the SIL Open Font License, Version 1.1. This license is available with a FAQ at: http://scripts.sil.org/OFL" "http://scripts.sil.org/OFL" 
GaspTable: 1 65535 15 1
Encoding: UnicodeBmp
UnicodeInterp: none
NameList: Adobe Glyph List
DisplaySize: -24

StartChar: exclam
Encoding: 33 33 4
Width: 297
GlyphClass: 2
Flags: W
LayerCount: 2
Fore
SplineSet
201 118.5 m 128,-1,1
 242 84 242 84 242 71.5 c 128,-1,2
 242 59 242 59 201 23.5 c 128,-1,3
 160 -12 160 -12 148.5 -12 c 128,-1,4
 137 -12 137 -12 96 23.5 c 128,-1,5
 55 59 55 59 55 71.5 c 128,-1,6
 55 84 55 84 96.5 118.5 c 128,-1,7
 138 153 138 153 149 153 c 128,-1,0
 160 153 160 153 201 118.5 c 128,-1,1
215 712 m 1,8,9
 207 411 207 411 207 352.5 c 128,-1,10
 207 294 207 294 222 256 c 1,11,-1
 127 189 l 1,12,13
 96 227 96 227 90 352 c 1,14,-1
 77 712 l 1,15,-1
 215 712 l 1,8,9
EndSplineSet
EndChar

StartChar: quotedbl
Encoding: 34 34 5
Width: 468
GlyphClass: 2
Flags: W
LayerCount: 2
Fore
SplineSet
119 485 m 0,0,1
 109 485 109 485 82 495 c 128,-1,2
 55 505 55 505 55 510 c 0,3,4
 55 531 55 531 77 621.5 c 128,-1,5
 99 712 99 712 105 712 c 0,6,7
 122 712 122 712 177.5 690.5 c 128,-1,8
 233 669 233 669 233 661 c 1,9,10
 201 596 201 596 161.5 540.5 c 128,-1,11
 122 485 122 485 119 485 c 0,0,1
299 485 m 0,12,13
 289 485 289 485 262 495 c 128,-1,14
 235 505 235 505 235 510 c 0,15,16
 235 531 235 531 257 621.5 c 128,-1,17
 279 712 279 712 285 712 c 0,18,19
 302 712 302 712 357.5 690.5 c 128,-1,20
 413 669 413 669 413 661 c 1,21,22
 381 596 381 596 341.5 540.5 c 128,-1,23
 302 485 302 485 299 485 c 0,12,13
EndSplineSet
EndChar

StartChar: numbersign
Encoding: 35 35 6
Width: 616
GlyphClass: 2
Flags: W
LayerCount: 2
Fore
SplineSet
55 370 m 1,0,-1
 55 488 l 1,1,-1
 183 488 l 1,2,-1
 218 676 l 1,3,4
 228 676 228 676 265.5 661.5 c 128,-1,5
 303 647 303 647 318 636 c 1,6,-1
 290 488 l 1,7,-1
 384 488 l 1,8,-1
 419 676 l 1,9,10
 429 676 429 676 466.5 661.5 c 128,-1,11
 504 647 504 647 519 636 c 1,12,-1
 491 488 l 1,13,-1
 561 488 l 1,14,-1
 561 370 l 1,15,-1
 470 370 l 1,16,-1
 455 290 l 1,17,-1
 561 290 l 1,18,-1
 561 172 l 1,19,-1
 433 172 l 1,20,-1
 399 -12 l 1,21,22
 386 -12 386 -12 350 2 c 128,-1,23
 314 16 314 16 299 28 c 1,24,-1
 325 172 l 1,25,-1
 232 172 l 1,26,-1
 198 -12 l 1,27,28
 185 -12 185 -12 149 2 c 128,-1,29
 113 16 113 16 98 28 c 1,30,-1
 124 172 l 1,31,-1
 55 172 l 1,32,-1
 55 290 l 1,33,-1
 146 290 l 1,34,-1
 161 370 l 1,35,-1
 55 370 l 1,0,-1
269 370 m 1,36,-1
 254 290 l 1,37,-1
 347 290 l 1,38,-1
 362 370 l 1,39,-1
 269 370 l 1,36,-1
EndSplineSet
EndChar

StartChar: dollar
Encoding: 36 36 7
Width: 464
GlyphClass: 2
Flags: W
LayerCount: 2
Fore
SplineSet
239.5 203 m 128,-1,1
 248 203 248 203 266 216.5 c 128,-1,2
 284 230 284 230 284 237.5 c 128,-1,3
 284 245 284 245 271 256 c 128,-1,4
 258 267 258 267 207.5 290.5 c 128,-1,5
 157 314 157 314 114 341 c 128,-1,6
 71 368 71 368 58 394 c 128,-1,7
 45 420 45 420 45 449 c 128,-1,8
 45 478 45 478 55 499 c 128,-1,9
 65 520 65 520 110.5 561 c 128,-1,10
 156 602 156 602 193 621 c 1,11,-1
 193 700 l 1,12,-1
 283 700 l 1,13,-1
 283 618 l 1,14,15
 372 578 372 578 413 508 c 1,16,-1
 300 430 l 1,17,-1
 292 441 l 1,18,19
 248 497 248 497 227 497 c 0,20,21
 216 497 216 497 198 483.5 c 128,-1,22
 180 470 180 470 180 461.5 c 128,-1,23
 180 453 180 453 192.5 443 c 128,-1,24
 205 433 205 433 254.5 408 c 128,-1,25
 304 383 304 383 348.5 355.5 c 128,-1,26
 393 328 393 328 406 305.5 c 128,-1,27
 419 283 419 283 419 238.5 c 128,-1,28
 419 194 419 194 404.5 175 c 128,-1,29
 390 156 390 156 353.5 128 c 128,-1,30
 317 100 317 100 283 82 c 1,31,-1
 283 0 l 1,32,-1
 193 0 l 1,33,-1
 193 83 l 1,34,35
 154 96 154 96 112.5 126.5 c 128,-1,36
 71 157 71 157 51 192 c 1,37,-1
 164 270 l 1,38,-1
 172 259 l 1,39,40
 202 221 202 221 216.5 212 c 128,-1,0
 231 203 231 203 239.5 203 c 128,-1,1
EndSplineSet
EndChar

StartChar: percent
Encoding: 37 37 8
Width: 744
GlyphClass: 2
Flags: W
LayerCount: 2
Fore
SplineSet
236.5 361 m 128,-1,1
 195 332 195 332 173.5 332 c 128,-1,2
 152 332 152 332 112 361 c 128,-1,3
 72 390 72 390 63.5 404 c 128,-1,4
 55 418 55 418 55 473 c 2,5,-1
 55 534 l 2,6,7
 55 587 55 587 62.5 602.5 c 128,-1,8
 70 618 70 618 111 647 c 128,-1,9
 152 676 152 676 173 676 c 128,-1,10
 194 676 194 676 235 647 c 128,-1,11
 276 618 276 618 283 603.5 c 128,-1,12
 290 589 290 589 290 534 c 2,13,-1
 290 473 l 2,14,15
 290 420 290 420 285 408 c 0,16,0
 278 390 278 390 236.5 361 c 128,-1,1
173 414 m 128,-1,18
 180 414 180 414 186.5 427.5 c 128,-1,19
 193 441 193 441 193 473 c 2,20,-1
 193 534 l 2,21,22
 193 563 193 563 190 571.5 c 128,-1,23
 187 580 187 580 182 586.5 c 128,-1,24
 177 593 177 593 173 593 c 128,-1,25
 169 593 169 593 163.5 586.5 c 128,-1,26
 158 580 158 580 155 571.5 c 128,-1,27
 152 563 152 563 152 534 c 2,28,-1
 152 473 l 2,29,30
 152 441 152 441 159 427.5 c 128,-1,17
 166 414 166 414 173 414 c 128,-1,18
635.5 17 m 128,-1,32
 594 -12 594 -12 572.5 -12 c 128,-1,33
 551 -12 551 -12 511 17 c 128,-1,34
 471 46 471 46 462.5 60 c 128,-1,35
 454 74 454 74 454 129 c 2,36,-1
 454 190 l 2,37,38
 454 243 454 243 461.5 258.5 c 128,-1,39
 469 274 469 274 510 303 c 128,-1,40
 551 332 551 332 572 332 c 128,-1,41
 593 332 593 332 634 303 c 128,-1,42
 675 274 675 274 682 259.5 c 128,-1,43
 689 245 689 245 689 190 c 2,44,-1
 689 129 l 2,45,46
 689 76 689 76 684 64 c 0,47,31
 677 46 677 46 635.5 17 c 128,-1,32
585 83.5 m 128,-1,49
 592 97 592 97 592 129 c 2,50,-1
 592 190 l 2,51,52
 592 219 592 219 589 227.5 c 128,-1,53
 586 236 586 236 581 242.5 c 128,-1,54
 576 249 576 249 572 249 c 128,-1,55
 568 249 568 249 562.5 242.5 c 128,-1,56
 557 236 557 236 554 227.5 c 128,-1,57
 551 219 551 219 551 190 c 2,58,-1
 551 129 l 2,59,60
 551 97 551 97 557.5 83.5 c 128,-1,61
 564 70 564 70 571 70 c 128,-1,48
 578 70 578 70 585 83.5 c 128,-1,49
608 616 m 1,62,-1
 228 -12 l 1,63,64
 216 -12 216 -12 184 9 c 128,-1,65
 152 30 152 30 138 48 c 1,66,-1
 518 676 l 1,67,68
 530 676 530 676 562 655 c 128,-1,69
 594 634 594 634 608 616 c 1,62,-1
EndSplineSet
EndChar

StartChar: ampersand
Encoding: 38 38 9
Width: 745
GlyphClass: 2
Flags: W
LayerCount: 2
Fore
SplineSet
304 415 m 1,0,-1
 304 304 l 1,1,-1
 255 304 l 1,2,3
 242 300 242 300 224 286 c 128,-1,4
 206 272 206 272 199.5 261 c 128,-1,5
 193 250 193 250 193 219.5 c 128,-1,6
 193 189 193 189 202.5 177 c 128,-1,7
 212 165 212 165 238 148 c 128,-1,8
 264 131 264 131 282.5 131 c 128,-1,9
 301 131 301 131 328.5 148 c 128,-1,10
 356 165 356 165 363 180 c 0,11,12
 373 204 373 204 373 272.5 c 128,-1,13
 373 341 373 341 367 366.5 c 128,-1,14
 361 392 361 392 343 428 c 1,15,-1
 455 506 l 1,16,17
 485 478 485 478 500 415 c 1,18,-1
 639 415 l 1,19,-1
 639 304 l 1,20,-1
 511 304 l 1,21,-1
 511 209 l 2,22,23
 511 186 511 186 519 168 c 0,24,25
 534 131 534 131 548 131 c 128,-1,26
 562 131 562 131 591 162 c 1,27,-1
 690 93 l 1,28,29
 653 52 653 52 612 20 c 128,-1,30
 571 -12 571 -12 548 -12 c 0,31,32
 511 -12 511 -12 430 75 c 1,33,34
 331 -12 331 -12 282 -12 c 0,35,36
 243 -12 243 -12 166.5 49.5 c 128,-1,37
 90 111 90 111 66 150 c 0,38,39
 55 167 55 167 55 221.5 c 128,-1,40
 55 276 55 276 66 292 c 0,41,42
 88 325 88 325 154 379 c 1,43,44
 110 423 110 423 97.5 444.5 c 128,-1,45
 85 466 85 466 85 520.5 c 128,-1,46
 85 575 85 575 99 594.5 c 128,-1,47
 113 614 113 614 183 663 c 128,-1,48
 253 712 253 712 279.5 712 c 128,-1,49
 306 712 306 712 356.5 674.5 c 128,-1,50
 407 637 407 637 436 606 c 1,51,-1
 340 537 l 1,52,53
 332 549 332 549 312.5 564 c 128,-1,54
 293 579 293 579 281.5 579 c 128,-1,55
 270 579 270 579 253 565.5 c 128,-1,56
 236 552 236 552 230 540 c 128,-1,57
 224 528 224 528 224 506 c 128,-1,58
 224 484 224 484 230.5 469 c 128,-1,59
 237 454 237 454 257.5 434.5 c 128,-1,60
 278 415 278 415 292 415 c 2,61,-1
 304 415 l 1,0,-1
EndSplineSet
EndChar

StartChar: quotesingle
Encoding: 39 39 10
Width: 288
GlyphClass: 2
Flags: W
LayerCount: 2
Fore
SplineSet
119 485 m 0,0,1
 109 485 109 485 82 495 c 128,-1,2
 55 505 55 505 55 510 c 0,3,4
 55 531 55 531 77 621.5 c 128,-1,5
 99 712 99 712 105 712 c 0,6,7
 122 712 122 712 177.5 690.5 c 128,-1,8
 233 669 233 669 233 661 c 1,9,10
 201 596 201 596 161.5 540.5 c 128,-1,11
 122 485 122 485 119 485 c 0,0,1
EndSplineSet
EndChar

StartChar: parenleft
Encoding: 40 40 11
Width: 370
GlyphClass: 2
Flags: W
LayerCount: 2
Fore
SplineSet
51 42.5 m 128,-1,1
 45 120 45 120 45 272.5 c 128,-1,2
 45 425 45 425 58.5 515.5 c 128,-1,3
 72 606 72 606 105.5 657 c 128,-1,4
 139 708 139 708 211 750 c 1,5,-1
 315 677 l 1,6,7
 236 617 236 617 215.5 538.5 c 128,-1,8
 195 460 195 460 195 249.5 c 128,-1,9
 195 39 195 39 215.5 -39 c 128,-1,10
 236 -117 236 -117 315 -177 c 1,11,-1
 211 -250 l 1,12,13
 157 -219 157 -219 126.5 -185.5 c 128,-1,14
 96 -152 96 -152 76.5 -93.5 c 128,-1,0
 57 -35 57 -35 51 42.5 c 128,-1,1
EndSplineSet
EndChar

StartChar: parenright
Encoding: 41 41 12
Width: 370
GlyphClass: 2
Flags: W
LayerCount: 2
Fore
SplineSet
319 457.5 m 128,-1,1
 325 380 325 380 325 227.5 c 128,-1,2
 325 75 325 75 311.5 -15.5 c 128,-1,3
 298 -106 298 -106 264.5 -157 c 128,-1,4
 231 -208 231 -208 159 -250 c 1,5,-1
 55 -177 l 1,6,7
 134 -117 134 -117 154.5 -38.5 c 128,-1,8
 175 40 175 40 175 250.5 c 128,-1,9
 175 461 175 461 154.5 539 c 128,-1,10
 134 617 134 617 55 677 c 1,11,-1
 159 750 l 1,12,13
 213 719 213 719 243.5 685.5 c 128,-1,14
 274 652 274 652 293.5 593.5 c 128,-1,0
 313 535 313 535 319 457.5 c 128,-1,1
EndSplineSet
EndChar

StartChar: asterisk
Encoding: 42 42 13
Width: 486
GlyphClass: 2
Flags: W
LayerCount: 2
Fore
SplineSet
189 541 m 1,0,-1
 150 536 l 1,1,2
 95 536 95 536 50 550 c 1,3,4
 50 580 50 580 61.5 616.5 c 128,-1,5
 73 653 73 653 92 680 c 1,6,7
 144 662 144 662 209 605 c 1,8,9
 175 693 175 693 175 740 c 1,10,11
 205 750 205 750 243 750 c 128,-1,12
 281 750 281 750 311 740 c 1,13,14
 311 690 311 690 277 605 c 1,15,16
 343 663 343 663 395 679 c 1,17,18
 407 662 407 662 421 624.5 c 128,-1,19
 435 587 435 587 438 549 c 1,20,21
 392 536 392 536 340 536 c 0,22,23
 335 536 335 536 318 538.5 c 128,-1,24
 301 541 301 541 297 541 c 1,25,26
 373 495 373 495 404 453 c 1,27,28
 389 430 389 430 358.5 406.5 c 128,-1,29
 328 383 328 383 294 372 c 1,30,31
 266 412 266 412 243 502 c 1,32,33
 220 412 220 412 192 373 c 1,34,35
 167 380 167 380 133.5 403 c 128,-1,36
 100 426 100 426 81 453 c 1,37,38
 115 499 115 499 189 541 c 1,0,-1
EndSplineSet
EndChar

StartChar: plus
Encoding: 43 43 14
Width: 494
GlyphClass: 2
Flags: W
LayerCount: 2
Fore
SplineSet
55 241 m 1,0,-1
 55 359 l 1,1,-1
 182 359 l 1,2,-1
 182 482 l 1,3,-1
 312 482 l 1,4,-1
 312 359 l 1,5,-1
 439 359 l 1,6,-1
 439 241 l 1,7,-1
 312 241 l 1,8,-1
 312 118 l 1,9,-1
 182 118 l 1,10,-1
 182 241 l 1,11,-1
 55 241 l 1,0,-1
EndSplineSet
EndChar

StartChar: comma
Encoding: 44 44 15
Width: 288
GlyphClass: 2
Flags: W
LayerCount: 2
Fore
SplineSet
234 66 m 0,0,1
 234 41 234 41 155.5 -38.5 c 128,-1,2
 77 -118 77 -118 69 -118 c 0,3,4
 66 -118 66 -118 55.5 -108 c 128,-1,5
 45 -98 45 -98 45 -93 c 0,6,7
 45 -77 45 -77 101 15 c 1,8,9
 56 52 56 52 56 65 c 128,-1,10
 56 78 56 78 95.5 111.5 c 128,-1,11
 135 145 135 145 145.5 145 c 128,-1,12
 156 145 156 145 195 111.5 c 128,-1,13
 234 78 234 78 234 66 c 0,0,1
EndSplineSet
EndChar

StartChar: hyphen
Encoding: 45 45 16
Width: 383
GlyphClass: 2
Flags: W
LayerCount: 2
Fore
SplineSet
55 260 m 1,0,-1
 55 340 l 1,1,-1
 328 340 l 1,2,-1
 328 260 l 1,3,-1
 55 260 l 1,0,-1
EndSplineSet
EndChar

StartChar: period
Encoding: 46 46 17
Width: 288
GlyphClass: 2
Flags: W
LayerCount: 2
Fore
SplineSet
194 112 m 128,-1,1
 233 79 233 79 233 67.5 c 128,-1,2
 233 56 233 56 194 22 c 128,-1,3
 155 -12 155 -12 144 -12 c 128,-1,4
 133 -12 133 -12 94 22 c 128,-1,5
 55 56 55 56 55 67.5 c 128,-1,6
 55 79 55 79 94.5 112 c 128,-1,7
 134 145 134 145 144.5 145 c 128,-1,0
 155 145 155 145 194 112 c 128,-1,1
EndSplineSet
EndChar

StartChar: slash
Encoding: 47 47 18
Width: 620
GlyphClass: 2
Flags: W
LayerCount: 2
Fore
SplineSet
565 690 m 1,0,-1
 165 -250 l 1,1,2
 152 -250 152 -250 110 -228.5 c 128,-1,3
 68 -207 68 -207 55 -190 c 1,4,-1
 455 750 l 1,5,6
 468 750 468 750 510 728.5 c 128,-1,7
 552 707 552 707 565 690 c 1,0,-1
EndSplineSet
EndChar

StartChar: zero
Encoding: 48 48 19
Width: 464
GlyphClass: 2
Flags: W
LayerCount: 2
Fore
SplineSet
232 -12 m 128,-1,1
 198 -12 198 -12 131 46 c 128,-1,2
 64 104 64 104 48 140 c 1,3,4
 37 161 37 161 37 271 c 2,5,-1
 37 393 l 2,6,7
 37 498 37 498 50.5 529 c 128,-1,8
 64 560 64 560 131 618 c 128,-1,9
 198 676 198 676 232 676 c 128,-1,10
 266 676 266 676 332 618 c 128,-1,11
 398 560 398 560 416 524 c 0,12,13
 427 501 427 501 427 393 c 2,14,-1
 427 271 l 2,15,16
 427 166 427 166 413.5 135 c 128,-1,17
 400 104 400 104 333 46 c 128,-1,0
 266 -12 266 -12 232 -12 c 128,-1,1
232 118 m 128,-1,19
 244 118 244 118 261.5 133 c 128,-1,20
 279 148 279 148 286 160.5 c 128,-1,21
 293 173 293 173 293 271 c 2,22,-1
 293 393 l 2,23,24
 293 476 293 476 287.5 496 c 128,-1,25
 282 516 282 516 263.5 531 c 128,-1,26
 245 546 245 546 232.5 546 c 128,-1,27
 220 546 220 546 201.5 531 c 128,-1,28
 183 516 183 516 177 500.5 c 128,-1,29
 171 485 171 485 171 393 c 2,30,-1
 171 271 l 2,31,32
 171 174 171 174 178 161 c 128,-1,33
 185 148 185 148 202.5 133 c 128,-1,18
 220 118 220 118 232 118 c 128,-1,19
EndSplineSet
EndChar

StartChar: one
Encoding: 49 49 20
Width: 481
GlyphClass: 2
Flags: W
LayerCount: 2
Fore
SplineSet
88 110 m 1,0,-1
 223 110 l 1,1,-1
 223 541 l 1,2,3
 168 489 168 489 141 437 c 1,4,-1
 37 497 l 1,5,6
 67 548 67 548 134 612 c 128,-1,7
 201 676 201 676 215.5 676 c 128,-1,8
 230 676 230 676 288 641.5 c 128,-1,9
 346 607 346 607 351 596 c 1,10,-1
 351 110 l 1,11,-1
 444 110 l 1,12,-1
 444 0 l 1,13,-1
 88 0 l 1,14,-1
 88 110 l 1,0,-1
EndSplineSet
EndChar

StartChar: two
Encoding: 50 50 21
Width: 464
GlyphClass: 2
Flags: W
LayerCount: 2
Fore
SplineSet
232 676 m 0,0,1
 265 676 265 676 328.5 619.5 c 128,-1,2
 392 563 392 563 416 525 c 0,3,4
 427 507 427 507 427 443.5 c 128,-1,5
 427 380 427 380 414 359.5 c 128,-1,6
 401 339 401 339 304 278.5 c 128,-1,7
 207 218 207 218 183 187 c 0,8,9
 175 176 175 176 175 146 c 2,10,-1
 175 110 l 1,11,-1
 423 110 l 1,12,-1
 423 0 l 1,13,-1
 37 0 l 1,14,-1
 37 136 l 2,15,16
 37 195 37 195 51 223 c 128,-1,17
 65 251 65 251 112 289.5 c 128,-1,18
 159 328 159 328 215 364.5 c 128,-1,19
 271 401 271 401 282 410 c 128,-1,20
 293 419 293 419 293 443 c 128,-1,21
 293 467 293 467 286.5 487.5 c 128,-1,22
 280 508 280 508 262 527.5 c 128,-1,23
 244 547 244 547 229.5 547 c 128,-1,24
 215 547 215 547 183 509.5 c 128,-1,25
 151 472 151 472 141 426 c 1,26,-1
 33 490 l 1,27,28
 47 554 47 554 112.5 615 c 128,-1,29
 178 676 178 676 232 676 c 0,0,1
EndSplineSet
EndChar

StartChar: three
Encoding: 51 51 22
Width: 464
GlyphClass: 2
Flags: W
LayerCount: 2
Fore
SplineSet
188.5 150 m 128,-1,1
 224 108 224 108 243.5 108 c 128,-1,2
 263 108 263 108 285 149 c 0,3,4
 293 165 293 165 293 205 c 128,-1,5
 293 245 293 245 280 262 c 1,6,7
 233 315 233 315 178 324 c 1,8,-1
 178 391 l 1,9,10
 233 411 233 411 268 438 c 0,11,12
 283 449 283 449 283 492 c 0,13,14
 283 511 283 511 263 528.5 c 128,-1,15
 243 546 243 546 230 546 c 128,-1,16
 217 546 217 546 188.5 509 c 128,-1,17
 160 472 160 472 151 427 c 1,18,-1
 43 489 l 1,19,20
 57 553 57 553 119 614.5 c 128,-1,21
 181 676 181 676 232 676 c 0,22,23
 265 676 265 676 333 623.5 c 128,-1,24
 401 571 401 571 410 544 c 0,25,26
 417 525 417 525 417 468.5 c 128,-1,27
 417 412 417 412 406 398 c 0,28,29
 387 375 387 375 357 359 c 1,30,31
 404 322 404 322 415.5 303.5 c 128,-1,32
 427 285 427 285 427 213.5 c 128,-1,33
 427 142 427 142 414 116.5 c 128,-1,34
 401 91 401 91 332.5 39.5 c 128,-1,35
 264 -12 264 -12 232 -12 c 0,36,37
 178 -12 178 -12 112.5 47 c 128,-1,38
 47 106 47 106 33 169 c 1,39,-1
 143 244 l 1,40,0
 153 192 153 192 188.5 150 c 128,-1,1
EndSplineSet
EndChar

StartChar: four
Encoding: 52 52 23
Width: 483
GlyphClass: 2
Flags: W
LayerCount: 2
Fore
SplineSet
406 0 m 1,0,-1
 278 0 l 1,1,-1
 278 142 l 1,2,-1
 151 142 l 1,3,-1
 37 208 l 1,4,5
 58 297 58 297 100.5 410.5 c 128,-1,6
 143 524 143 524 180 600 c 128,-1,7
 217 676 217 676 228 676 c 0,8,9
 244 676 244 676 321 630.5 c 128,-1,10
 398 585 398 585 406 570 c 1,11,-1
 406 252 l 1,12,-1
 446 252 l 1,13,-1
 446 142 l 1,14,-1
 406 142 l 1,15,-1
 406 0 l 1,0,-1
278 252 m 1,16,-1
 278 536 l 1,17,18
 231 427 231 427 179 252 c 1,19,-1
 278 252 l 1,16,-1
EndSplineSet
EndChar

StartChar: five
Encoding: 53 53 24
Width: 464
GlyphClass: 2
Flags: W
LayerCount: 2
Fore
SplineSet
413 664 m 1,0,-1
 413 554 l 1,1,-1
 196 554 l 1,2,-1
 191 456 l 1,3,4
 317 411 317 411 411 322 c 0,5,6
 427 307 427 307 427 226.5 c 128,-1,7
 427 146 427 146 409.5 118 c 128,-1,8
 392 90 392 90 327.5 39 c 128,-1,9
 263 -12 263 -12 232 -12 c 0,10,11
 178 -12 178 -12 112.5 46.5 c 128,-1,12
 47 105 47 105 33 168 c 1,13,-1
 148 248 l 1,14,15
 158 196 158 196 191.5 152 c 128,-1,16
 225 108 225 108 242 108 c 0,17,18
 263 108 263 108 285 149 c 0,19,20
 293 165 293 165 293 207.5 c 128,-1,21
 293 250 293 250 281 262 c 0,22,23
 249 294 249 294 185.5 326.5 c 128,-1,24
 122 359 122 359 54 375 c 1,25,-1
 72 664 l 1,26,-1
 413 664 l 1,0,-1
EndSplineSet
EndChar

StartChar: six
Encoding: 54 54 25
Width: 464
GlyphClass: 2
Flags: W
LayerCount: 2
Fore
SplineSet
348 444.5 m 128,-1,1
 402 399 402 399 414.5 375.5 c 128,-1,2
 427 352 427 352 427 258 c 128,-1,3
 427 164 427 164 413.5 134 c 128,-1,4
 400 104 400 104 333 46 c 128,-1,5
 266 -12 266 -12 232 -12 c 128,-1,6
 198 -12 198 -12 131 46 c 128,-1,7
 64 104 64 104 48 140 c 1,8,9
 37 162 37 162 37 256 c 128,-1,10
 37 350 37 350 49 406.5 c 128,-1,11
 61 463 61 463 95 510 c 128,-1,12
 129 557 129 557 173 591.5 c 128,-1,13
 217 626 217 626 298 676 c 1,14,-1
 403 602 l 1,15,16
 310 568 310 568 248 512 c 1,17,0
 294 490 294 490 348 444.5 c 128,-1,1
261.5 135 m 128,-1,19
 279 152 279 152 286 167.5 c 128,-1,20
 293 183 293 183 293 252 c 128,-1,21
 293 321 293 321 270.5 350.5 c 128,-1,22
 248 380 248 380 182 403 c 1,23,-1
 177 383 l 1,24,25
 171 345 171 345 171 262 c 128,-1,26
 171 179 171 179 179 164.5 c 128,-1,27
 187 150 187 150 203.5 134 c 128,-1,28
 220 118 220 118 232 118 c 128,-1,18
 244 118 244 118 261.5 135 c 128,-1,19
EndSplineSet
EndChar

StartChar: seven
Encoding: 55 55 26
Width: 464
GlyphClass: 2
Flags: W
LayerCount: 2
Fore
SplineSet
37 559 m 1,0,-1
 37 664 l 1,1,-1
 408 664 l 1,2,3
 427 597 427 597 427 559 c 1,4,-1
 177 -12 l 1,5,6
 164 -12 164 -12 124.5 6 c 128,-1,7
 85 24 85 24 69 38 c 1,8,-1
 296 559 l 1,9,-1
 37 559 l 1,0,-1
EndSplineSet
EndChar

StartChar: eight
Encoding: 56 56 27
Width: 464
GlyphClass: 2
Flags: W
LayerCount: 2
Fore
SplineSet
232 -12 m 128,-1,1
 200 -12 200 -12 136 37.5 c 128,-1,2
 72 87 72 87 48 120 c 1,3,4
 37 140 37 140 37 211.5 c 128,-1,5
 37 283 37 283 48 302 c 1,6,7
 65 326 65 326 107 349 c 1,8,9
 75 367 75 367 58 388 c 1,10,11
 47 405 47 405 47 466.5 c 128,-1,12
 47 528 47 528 53 544 c 0,13,14
 66 575 66 575 131.5 625.5 c 128,-1,15
 197 676 197 676 230.5 676 c 128,-1,16
 264 676 264 676 331.5 623.5 c 128,-1,17
 399 571 399 571 411 544 c 0,18,19
 417 529 417 529 417 467 c 128,-1,20
 417 405 417 405 406 388 c 1,21,22
 389 367 389 367 357 349 c 1,23,24
 399 326 399 326 416 302 c 1,25,26
 427 283 427 283 427 211.5 c 128,-1,27
 427 140 427 140 416 120 c 1,28,29
 392 87 392 87 328 37.5 c 128,-1,0
 264 -12 264 -12 232 -12 c 128,-1,1
232 98 m 128,-1,31
 246 98 246 98 266.5 118 c 128,-1,32
 287 138 287 138 289 150 c 0,33,34
 293 182 293 182 293 210.5 c 128,-1,35
 293 239 293 239 289 262 c 0,36,37
 287 273 287 273 266.5 291 c 128,-1,38
 246 309 246 309 232 309 c 128,-1,39
 218 309 218 309 197.5 291 c 128,-1,40
 177 273 177 273 175 262 c 0,41,42
 171 239 171 239 171 210.5 c 128,-1,43
 171 182 171 182 175 150 c 0,44,45
 177 138 177 138 197.5 118 c 128,-1,30
 218 98 218 98 232 98 c 128,-1,31
232 391 m 128,-1,47
 244 391 244 391 261 408.5 c 128,-1,48
 278 426 278 426 280 442 c 0,49,50
 283 481 283 481 283 485.5 c 128,-1,51
 283 490 283 490 280 520 c 0,52,53
 278 535 278 535 261 550.5 c 128,-1,54
 244 566 244 566 232 566 c 128,-1,55
 220 566 220 566 203 550.5 c 128,-1,56
 186 535 186 535 184 520 c 0,57,58
 181 490 181 490 181 485.5 c 128,-1,59
 181 481 181 481 184 442 c 0,60,61
 186 426 186 426 203 408.5 c 128,-1,46
 220 391 220 391 232 391 c 128,-1,47
EndSplineSet
EndChar

StartChar: nine
Encoding: 57 57 28
Width: 464
GlyphClass: 2
Flags: W
LayerCount: 2
Fore
SplineSet
132.5 237.5 m 128,-1,1
 74 288 74 288 55.5 319.5 c 128,-1,2
 37 351 37 351 37 420 c 128,-1,3
 37 489 37 489 53 525 c 0,4,5
 68 561 68 561 133.5 618.5 c 128,-1,6
 199 676 199 676 232.5 676 c 128,-1,7
 266 676 266 676 333 618.5 c 128,-1,8
 400 561 400 561 416 525 c 1,9,10
 427 503 427 503 427 416.5 c 128,-1,11
 427 330 427 330 417 278.5 c 128,-1,12
 407 227 407 227 390 189.5 c 128,-1,13
 373 152 373 152 337.5 116.5 c 128,-1,14
 302 81 302 81 266 54.5 c 128,-1,15
 230 28 230 28 167 -12 c 1,16,-1
 61 61 l 1,17,18
 171 103 171 103 234 182 c 1,19,0
 191 187 191 187 132.5 237.5 c 128,-1,1
203.5 528.5 m 128,-1,21
 187 511 187 511 179 496 c 128,-1,22
 171 481 171 481 171 422 c 128,-1,23
 171 363 171 363 195 332 c 128,-1,24
 219 301 219 301 285 288 c 1,25,26
 293 304 293 304 293 394.5 c 128,-1,27
 293 485 293 485 285 495 c 1,28,29
 275 512 275 512 259 529 c 128,-1,30
 243 546 243 546 231.5 546 c 128,-1,20
 220 546 220 546 203.5 528.5 c 128,-1,21
EndSplineSet
EndChar

StartChar: colon
Encoding: 58 58 29
Width: 283
GlyphClass: 2
Flags: W
LayerCount: 2
Fore
SplineSet
205 423 m 128,-1,1
 244 390 244 390 244 378.5 c 128,-1,2
 244 367 244 367 205 333 c 128,-1,3
 166 299 166 299 155 299 c 128,-1,4
 144 299 144 299 105 333 c 128,-1,5
 66 367 66 367 66 378.5 c 128,-1,6
 66 390 66 390 105.5 423 c 128,-1,7
 145 456 145 456 155.5 456 c 128,-1,0
 166 456 166 456 205 423 c 128,-1,1
194 112 m 128,-1,9
 233 79 233 79 233 67.5 c 128,-1,10
 233 56 233 56 194 22 c 128,-1,11
 155 -12 155 -12 144 -12 c 128,-1,12
 133 -12 133 -12 94 22 c 128,-1,13
 55 56 55 56 55 67.5 c 128,-1,14
 55 79 55 79 94.5 112 c 128,-1,15
 134 145 134 145 144.5 145 c 128,-1,8
 155 145 155 145 194 112 c 128,-1,9
EndSplineSet
EndChar

StartChar: semicolon
Encoding: 59 59 30
Width: 283
GlyphClass: 2
Flags: W
LayerCount: 2
Fore
SplineSet
245 66 m 0,0,1
 245 41 245 41 166.5 -38.5 c 128,-1,2
 88 -118 88 -118 80 -118 c 0,3,4
 77 -118 77 -118 66.5 -108 c 128,-1,5
 56 -98 56 -98 56 -93 c 0,6,7
 56 -77 56 -77 112 15 c 1,8,9
 67 52 67 52 67 65 c 128,-1,10
 67 78 67 78 106.5 111.5 c 128,-1,11
 146 145 146 145 156.5 145 c 128,-1,12
 167 145 167 145 206 111.5 c 128,-1,13
 245 78 245 78 245 66 c 0,0,1
205 423 m 128,-1,15
 244 390 244 390 244 378.5 c 128,-1,16
 244 367 244 367 205 333 c 128,-1,17
 166 299 166 299 155 299 c 128,-1,18
 144 299 144 299 105 333 c 128,-1,19
 66 367 66 367 66 378.5 c 128,-1,20
 66 390 66 390 105.5 423 c 128,-1,21
 145 456 145 456 155.5 456 c 128,-1,14
 166 456 166 456 205 423 c 128,-1,15
EndSplineSet
EndChar

StartChar: less
Encoding: 60 60 31
Width: 490
GlyphClass: 2
Flags: W
LayerCount: 2
Fore
SplineSet
435 130 m 0,0,1
 435 118 435 118 394.5 82 c 128,-1,2
 354 46 354 46 338 46 c 128,-1,3
 322 46 322 46 188.5 161.5 c 128,-1,4
 55 277 55 277 55 300 c 128,-1,5
 55 323 55 323 188.5 438.5 c 128,-1,6
 322 554 322 554 338.5 554 c 128,-1,7
 355 554 355 554 395 518.5 c 128,-1,8
 435 483 435 483 435 470 c 0,9,10
 435 466 435 466 398 437 c 0,11,12
 267 336 267 336 235 300 c 1,13,14
 267 264 267 264 351 199 c 128,-1,15
 435 134 435 134 435 130 c 0,0,1
EndSplineSet
EndChar

StartChar: equal
Encoding: 61 61 32
Width: 494
GlyphClass: 2
Flags: W
LayerCount: 2
Fore
SplineSet
55 340 m 1,0,-1
 55 458 l 1,1,-1
 439 458 l 1,2,-1
 439 340 l 1,3,-1
 55 340 l 1,0,-1
55 142 m 1,4,-1
 55 260 l 1,5,-1
 439 260 l 1,6,-1
 439 142 l 1,7,-1
 55 142 l 1,4,-1
EndSplineSet
EndChar

StartChar: greater
Encoding: 62 62 33
Width: 490
GlyphClass: 2
Flags: W
LayerCount: 2
Fore
SplineSet
55 470 m 0,0,1
 55 483 55 483 95 518.5 c 128,-1,2
 135 554 135 554 151.5 554 c 128,-1,3
 168 554 168 554 301.5 438.5 c 128,-1,4
 435 323 435 323 435 300 c 128,-1,5
 435 277 435 277 301.5 161.5 c 128,-1,6
 168 46 168 46 152 46 c 128,-1,7
 136 46 136 46 95.5 82 c 128,-1,8
 55 118 55 118 55 130 c 0,9,10
 55 134 55 134 92 163 c 0,11,12
 223 264 223 264 255 300 c 1,13,14
 223 336 223 336 139 401 c 128,-1,15
 55 466 55 466 55 470 c 0,0,1
EndSplineSet
EndChar

StartChar: question
Encoding: 63 63 34
Width: 515
GlyphClass: 2
Flags: W
LayerCount: 2
Fore
SplineSet
298 118.5 m 128,-1,1
 339 84 339 84 339 71.5 c 128,-1,2
 339 59 339 59 298 23.5 c 128,-1,3
 257 -12 257 -12 245.5 -12 c 128,-1,4
 234 -12 234 -12 193 23.5 c 128,-1,5
 152 59 152 59 152 71.5 c 128,-1,6
 152 84 152 84 193.5 118.5 c 128,-1,7
 235 153 235 153 246 153 c 128,-1,0
 257 153 257 153 298 118.5 c 128,-1,1
255 712 m 0,8,9
 290 712 290 712 358 656 c 128,-1,10
 426 600 426 600 449 563 c 0,11,12
 460 545 460 545 460 479 c 128,-1,13
 460 413 460 413 449 392 c 128,-1,14
 438 371 438 371 385 321.5 c 128,-1,15
 332 272 332 272 322 258.5 c 128,-1,16
 312 245 312 245 312 224 c 2,17,-1
 312 189 l 1,18,-1
 180 189 l 1,19,-1
 180 234 l 2,20,21
 180 278 180 278 192 296.5 c 128,-1,22
 204 315 204 315 229.5 341.5 c 128,-1,23
 255 368 255 368 282.5 395 c 128,-1,24
 310 422 310 422 318 431.5 c 128,-1,25
 326 441 326 441 326 487 c 0,26,27
 326 514 326 514 295.5 545.5 c 128,-1,28
 265 577 265 577 250 577 c 128,-1,29
 235 577 235 577 208 536 c 128,-1,30
 181 495 181 495 171 441 c 1,31,-1
 56 520 l 1,32,33
 70 584 70 584 135.5 648 c 128,-1,34
 201 712 201 712 255 712 c 0,8,9
EndSplineSet
EndChar

StartChar: at
Encoding: 64 64 35
Width: 644
GlyphClass: 2
Flags: W
LayerCount: 2
Fore
SplineSet
247 534.5 m 128,-1,1
 293 566 293 566 320 566 c 128,-1,2
 347 566 347 566 398.5 523.5 c 128,-1,3
 450 481 450 481 459 462 c 128,-1,4
 468 443 468 443 468 372.5 c 128,-1,5
 468 302 468 302 472 284 c 1,6,7
 476 249 476 249 505 222 c 1,8,9
 519 248 519 248 519 331 c 2,10,-1
 519 369 l 2,11,12
 519 476 519 476 501 510.5 c 128,-1,13
 483 545 483 545 423 591 c 128,-1,14
 363 637 363 637 323 637 c 128,-1,15
 283 637 283 637 219.5 590 c 128,-1,16
 156 543 156 543 143 510 c 1,17,18
 125 460 125 460 125 369 c 2,19,-1
 125 331 l 2,20,21
 125 244 125 244 143 190 c 0,22,23
 154 157 154 157 218 110 c 128,-1,24
 282 63 282 63 316 63 c 128,-1,25
 350 63 350 63 387 84 c 1,26,-1
 446 41 l 1,27,28
 365 -12 365 -12 319.5 -12 c 128,-1,29
 274 -12 274 -12 183 53.5 c 128,-1,30
 92 119 92 119 76 160 c 0,31,32
 55 215 55 215 55 331 c 2,33,-1
 55 369 l 2,34,35
 55 491 55 491 74 536 c 128,-1,36
 93 581 93 581 184 646.5 c 128,-1,37
 275 712 275 712 322.5 712 c 128,-1,38
 370 712 370 712 461 646.5 c 128,-1,39
 552 581 552 581 568 540 c 0,40,41
 589 485 589 485 589 369 c 2,42,-1
 589 331 l 2,43,44
 589 233 589 233 578 200 c 0,45,46
 573 186 573 186 544.5 157.5 c 128,-1,47
 516 129 516 129 504.5 129 c 128,-1,48
 493 129 493 129 453.5 155.5 c 128,-1,49
 414 182 414 182 403 196 c 1,50,51
 329 131 329 131 300 131 c 0,52,53
 286 131 286 131 234.5 184.5 c 128,-1,54
 183 238 183 238 176 258.5 c 128,-1,55
 169 279 169 279 169 361 c 128,-1,56
 169 443 169 443 182 466 c 1,57,0
 201 503 201 503 247 534.5 c 128,-1,1
365 278 m 1,58,-1
 364 404 l 2,59,60
 364 425 364 425 346.5 445.5 c 128,-1,61
 329 466 329 466 321 466 c 128,-1,62
 313 466 313 466 299.5 455 c 128,-1,63
 286 444 286 444 279.5 434 c 128,-1,64
 273 424 273 424 273 353 c 128,-1,65
 273 282 273 282 285 262 c 0,66,67
 290 254 290 254 301 244.5 c 128,-1,68
 312 235 312 235 318.5 235 c 128,-1,69
 325 235 325 235 340 244.5 c 128,-1,70
 355 254 355 254 359 261 c 1,71,-1
 365 278 l 1,58,-1
EndSplineSet
EndChar

StartChar: A
Encoding: 65 65 36
Width: 514
GlyphClass: 2
Flags: W
LayerCount: 2
Fore
SplineSet
257 712 m 128,-1,1
 294 712 294 712 365 647 c 128,-1,2
 436 582 436 582 453 540 c 0,3,4
 464 511 464 511 464 409 c 2,5,-1
 464 0 l 1,6,-1
 326 0 l 1,7,-1
 326 150 l 1,8,-1
 188 150 l 1,9,-1
 188 0 l 1,10,-1
 50 0 l 1,11,-1
 50 409 l 2,12,13
 50 511 50 511 61 540 c 0,14,15
 78 582 78 582 149 647 c 128,-1,0
 220 712 220 712 257 712 c 128,-1,1
188 409 m 2,16,-1
 188 270 l 1,17,-1
 326 270 l 1,18,-1
 326 409 l 2,19,20
 326 491 326 491 318 509.5 c 128,-1,21
 310 528 310 528 290.5 548.5 c 128,-1,22
 271 569 271 569 257 569 c 128,-1,23
 243 569 243 569 223.5 548.5 c 128,-1,24
 204 528 204 528 196 509.5 c 128,-1,25
 188 491 188 491 188 409 c 2,16,-1
EndSplineSet
EndChar

StartChar: B
Encoding: 66 66 37
Width: 534
GlyphClass: 2
Flags: W
LayerCount: 2
Fore
SplineSet
180 657 m 1,0,1
 248 712 248 712 275.5 712 c 128,-1,2
 303 712 303 712 363.5 659.5 c 128,-1,3
 424 607 424 607 439 585.5 c 128,-1,4
 454 564 454 564 454 515 c 128,-1,5
 454 466 454 466 439 441.5 c 128,-1,6
 424 417 424 417 384 379 c 1,7,8
 447 327 447 327 473 292 c 1,9,10
 484 274 484 274 484 224.5 c 128,-1,11
 484 175 484 175 473 160 c 1,12,13
 455 121 455 121 386 60.5 c 128,-1,14
 317 0 317 0 277 0 c 2,15,-1
 70 0 l 1,16,-1
 70 428 l 2,17,18
 70 509 70 509 58.5 542 c 128,-1,19
 47 575 47 575 10 620 c 1,20,-1
 142 712 l 1,21,22
 166 692 166 692 180 657 c 1,0,1
208 304 m 1,23,-1
 208 121 l 1,24,-1
 277 121 l 2,25,26
 290 121 290 121 309 141.5 c 128,-1,27
 328 162 328 162 336.5 177.5 c 128,-1,28
 345 193 345 193 345 241 c 0,29,30
 345 274 345 274 295 304 c 1,31,-1
 208 304 l 1,23,-1
208 486 m 2,32,-1
 208 415 l 1,33,-1
 259 415 l 2,34,35
 270 415 270 415 286.5 434.5 c 128,-1,36
 303 454 303 454 309 469 c 128,-1,37
 315 484 315 484 315 505 c 128,-1,38
 315 526 315 526 295 552.5 c 128,-1,39
 275 579 275 579 258 579 c 128,-1,40
 241 579 241 579 205 566 c 1,41,42
 208 527 208 527 208 486 c 2,32,-1
EndSplineSet
EndChar

StartChar: C
Encoding: 67 67 38
Width: 479
GlyphClass: 2
Flags: W
LayerCount: 2
Fore
SplineSet
25 303 m 2,0,-1
 25 397 l 2,1,2
 25 522 25 522 45 557 c 128,-1,3
 65 592 65 592 130.5 652 c 128,-1,4
 196 712 196 712 228 712 c 0,5,6
 283 712 283 712 354 648.5 c 128,-1,7
 425 585 425 585 444 509 c 1,8,-1
 333 432 l 1,9,10
 317 486 317 486 282 531.5 c 128,-1,11
 247 577 247 577 233 577 c 0,12,13
 208 577 208 577 176 528 c 0,14,15
 163 509 163 509 163 397 c 2,16,-1
 163 303 l 2,17,18
 163 188 163 188 176 172 c 1,19,20
 208 123 208 123 233 123 c 0,21,22
 247 123 247 123 282 162.5 c 128,-1,23
 317 202 317 202 333 250 c 1,24,-1
 444 172 l 1,25,26
 425 103 425 103 354 45.5 c 128,-1,27
 283 -12 283 -12 228 -12 c 0,28,29
 196 -12 196 -12 130.5 48 c 128,-1,30
 65 108 65 108 45 143 c 128,-1,31
 25 178 25 178 25 303 c 2,0,-1
EndSplineSet
EndChar

StartChar: D
Encoding: 68 68 39
Width: 534
GlyphClass: 2
Flags: W
LayerCount: 2
Fore
SplineSet
179 660 m 1,0,1
 245 712 245 712 279 712 c 128,-1,2
 313 712 313 712 384.5 646.5 c 128,-1,3
 456 581 456 581 473 540 c 0,4,5
 484 514 484 514 484 409 c 2,6,-1
 484 291 l 2,7,8
 484 186 484 186 473 160 c 0,9,10
 455 121 455 121 386 60.5 c 128,-1,11
 317 0 317 0 277 0 c 2,12,-1
 70 0 l 1,13,-1
 70 428 l 2,14,15
 70 509 70 509 58.5 542 c 128,-1,16
 47 575 47 575 10 620 c 1,17,-1
 142 712 l 1,18,19
 163 696 163 696 179 660 c 1,0,1
277 569 m 0,20,21
 248 569 248 569 205 550 c 1,22,23
 208 529 208 529 208 486 c 2,24,-1
 208 121 l 1,25,-1
 277 121 l 2,26,27
 291 121 291 121 310.5 141.5 c 128,-1,28
 330 162 330 162 338 180.5 c 128,-1,29
 346 199 346 199 346 281 c 2,30,-1
 346 409 l 2,31,32
 346 491 346 491 338 509.5 c 128,-1,33
 330 528 330 528 310.5 548.5 c 128,-1,34
 291 569 291 569 277 569 c 0,20,21
EndSplineSet
EndChar

StartChar: E
Encoding: 69 69 40
Width: 452
GlyphClass: 2
Flags: W
LayerCount: 2
Fore
SplineSet
188 426 m 1,0,-1
 367 426 l 1,1,-1
 367 305 l 1,2,-1
 188 305 l 1,3,-1
 188 121 l 1,4,-1
 427 121 l 1,5,-1
 427 0 l 1,6,-1
 50 0 l 1,7,-1
 50 616 l 1,8,-1
 188 712 l 1,9,-1
 411 712 l 1,10,-1
 411 590 l 1,11,-1
 225 590 l 1,12,-1
 188 564 l 1,13,-1
 188 426 l 1,0,-1
EndSplineSet
EndChar

StartChar: F
Encoding: 70 70 41
Width: 477
GlyphClass: 2
Flags: W
LayerCount: 2
Fore
SplineSet
70 0 m 1,0,-1
 70 399 l 2,1,2
 70 522 70 522 90 557 c 128,-1,3
 110 592 110 592 175.5 652 c 128,-1,4
 241 712 241 712 273 712 c 0,5,6
 317 712 317 712 382 677 c 128,-1,7
 447 642 447 642 479 598 c 1,8,-1
 368 521 l 1,9,10
 312 577 312 577 278 577 c 0,11,12
 265 577 265 577 248 560.5 c 128,-1,13
 231 544 231 544 219.5 525.5 c 128,-1,14
 208 507 208 507 208 432 c 2,15,-1
 208 409 l 1,16,-1
 387 409 l 1,17,-1
 387 288 l 1,18,-1
 208 288 l 1,19,-1
 208 0 l 1,20,-1
 70 0 l 1,0,-1
EndSplineSet
EndChar

StartChar: G
Encoding: 71 71 42
Width: 480
GlyphClass: 2
Flags: W
LayerCount: 2
Fore
SplineSet
163 397 m 2,0,-1
 163 291 l 2,1,2
 163 209 163 209 171 190.5 c 128,-1,3
 179 172 179 172 198.5 151.5 c 128,-1,4
 218 131 218 131 233 131 c 128,-1,5
 248 131 248 131 271 152 c 128,-1,6
 294 173 294 173 303 190 c 1,7,8
 309 207 309 207 310 240 c 1,9,-1
 241 240 l 1,10,-1
 241 351 l 1,11,-1
 440 351 l 1,12,-1
 440 0 l 1,13,-1
 343 0 l 1,14,-1
 331 68 l 1,15,16
 262 -12 262 -12 229 -12 c 128,-1,17
 196 -12 196 -12 124.5 53.5 c 128,-1,18
 53 119 53 119 36 160 c 0,19,20
 25 186 25 186 25 291 c 2,21,-1
 25 397 l 2,22,23
 25 522 25 522 45 557 c 128,-1,24
 65 592 65 592 130.5 652 c 128,-1,25
 196 712 196 712 228 712 c 0,26,27
 283 712 283 712 354 648 c 128,-1,28
 425 584 425 584 444 508 c 1,29,-1
 333 431 l 1,30,31
 317 485 317 485 282 531 c 128,-1,32
 247 577 247 577 233 577 c 0,33,34
 208 577 208 577 176 528 c 0,35,36
 163 509 163 509 163 397 c 2,0,-1
EndSplineSet
EndChar

StartChar: H
Encoding: 72 72 43
Width: 534
GlyphClass: 2
Flags: W
LayerCount: 2
Fore
SplineSet
346 0 m 1,0,-1
 346 320 l 1,1,-1
 208 320 l 1,2,-1
 208 0 l 1,3,-1
 70 0 l 1,4,-1
 70 428 l 2,5,6
 70 513 70 513 58.5 546.5 c 128,-1,7
 47 580 47 580 10 628 c 1,8,-1
 130 712 l 1,9,10
 162 691 162 691 185 634.5 c 128,-1,11
 208 578 208 578 208 498 c 2,12,-1
 208 440 l 1,13,-1
 346 440 l 1,14,-1
 346 700 l 1,15,-1
 484 700 l 1,16,-1
 484 0 l 1,17,-1
 346 0 l 1,0,-1
EndSplineSet
EndChar

StartChar: I
Encoding: 73 73 44
Width: 250
GlyphClass: 2
Flags: W
LayerCount: 2
Fore
SplineSet
56 0 m 1,0,-1
 56 700 l 1,1,-1
 194 700 l 1,2,-1
 194 0 l 1,3,-1
 56 0 l 1,0,-1
EndSplineSet
EndChar

StartChar: J
Encoding: 74 74 45
Width: 449
GlyphClass: 2
Flags: W
LayerCount: 2
Fore
SplineSet
261 700 m 1,0,-1
 399 700 l 1,1,-1
 399 303 l 2,2,3
 399 178 399 178 379 143 c 128,-1,4
 359 108 359 108 293.5 48 c 128,-1,5
 228 -12 228 -12 191.5 -12 c 128,-1,6
 155 -12 155 -12 97 31 c 128,-1,7
 39 74 39 74 10 132 c 1,8,-1
 121 210 l 1,9,10
 122 209 122 209 129.5 198.5 c 128,-1,11
 137 188 137 188 143 180.5 c 128,-1,12
 149 173 149 173 158 164 c 0,13,14
 177 143 177 143 190.5 143 c 128,-1,15
 204 143 204 143 221 159.5 c 128,-1,16
 238 176 238 176 249.5 194 c 128,-1,17
 261 212 261 212 261 303 c 2,18,-1
 261 700 l 1,0,-1
EndSplineSet
EndChar

StartChar: K
Encoding: 75 75 46
Width: 534
GlyphClass: 2
Flags: W
LayerCount: 2
Fore
SplineSet
208 498 m 2,0,-1
 208 440 l 1,1,-1
 238 440 l 2,2,3
 255 440 255 440 273.5 458.5 c 128,-1,4
 292 477 292 477 301.5 493.5 c 128,-1,5
 311 510 311 510 321 588.5 c 128,-1,6
 331 667 331 667 331 700 c 1,7,-1
 469 700 l 1,8,9
 469 661 469 661 458 578 c 128,-1,10
 447 495 447 495 438 476 c 0,11,12
 423 443 423 443 362 387 c 1,13,14
 433 326 433 326 454 284 c 0,15,16
 464 263 464 263 474.5 157.5 c 128,-1,17
 485 52 485 52 485 0 c 1,18,-1
 347 0 l 1,19,20
 347 47 347 47 337.5 147.5 c 128,-1,21
 328 248 328 248 319 264 c 0,22,23
 288 320 288 320 246 320 c 2,24,-1
 208 320 l 1,25,-1
 208 0 l 1,26,-1
 70 0 l 1,27,-1
 70 438 l 2,28,29
 70 519 70 519 58.5 550.5 c 128,-1,30
 47 582 47 582 10 628 c 1,31,-1
 130 712 l 1,32,33
 162 691 162 691 185 634.5 c 128,-1,34
 208 578 208 578 208 498 c 2,0,-1
EndSplineSet
EndChar

StartChar: L
Encoding: 76 76 47
Width: 390
GlyphClass: 2
Flags: W
LayerCount: 2
Fore
SplineSet
380 120 m 1,0,-1
 380 0 l 1,1,-1
 15 0 l 1,2,-1
 15 700 l 1,3,-1
 153 700 l 1,4,-1
 153 120 l 1,5,-1
 380 120 l 1,0,-1
EndSplineSet
EndChar

StartChar: M
Encoding: 77 77 48
Width: 734
GlyphClass: 2
Flags: W
LayerCount: 2
Fore
SplineSet
310 0 m 1,0,-1
 310 509 l 2,1,2
 310 526 310 526 303.5 537.5 c 128,-1,3
 297 549 297 549 282 564 c 128,-1,4
 267 579 267 579 258 579 c 0,5,6
 238 579 238 579 205 539 c 1,7,8
 208 514 208 514 208 486 c 2,9,-1
 208 0 l 1,10,-1
 70 0 l 1,11,-1
 70 428 l 2,12,13
 70 513 70 513 58.5 547 c 128,-1,14
 47 581 47 581 10 628 c 1,15,-1
 130 712 l 1,16,17
 162 689 162 689 176 657 c 1,18,19
 248 712 248 712 278 712 c 128,-1,20
 308 712 308 712 391 635 c 1,21,22
 474 712 474 712 508 712 c 0,23,24
 533 712 533 712 593.5 659.5 c 128,-1,25
 654 607 654 607 669 585.5 c 128,-1,26
 684 564 684 564 684 529 c 2,27,-1
 684 0 l 1,28,-1
 546 0 l 1,29,-1
 546 509 l 2,30,31
 546 528 546 528 539 538.5 c 128,-1,32
 532 549 532 549 515.5 564 c 128,-1,33
 499 579 499 579 486.5 579 c 128,-1,34
 474 579 474 579 447 546 c 1,35,36
 448 541 448 541 448 529 c 2,37,-1
 448 0 l 1,38,-1
 310 0 l 1,0,-1
EndSplineSet
EndChar

StartChar: N
Encoding: 78 78 49
Width: 520
GlyphClass: 2
Flags: W
LayerCount: 2
Fore
SplineSet
207 529 m 1,0,-1
 208 486 l 1,1,-1
 208 0 l 1,2,-1
 70 0 l 1,3,-1
 70 428 l 2,4,5
 70 512 70 512 58.5 546 c 128,-1,6
 47 580 47 580 10 628 c 1,7,-1
 130 712 l 1,8,9
 159 693 159 693 184 647 c 1,10,11
 263 712 263 712 291 712 c 128,-1,12
 319 712 319 712 379.5 659.5 c 128,-1,13
 440 607 440 607 455 585.5 c 128,-1,14
 470 564 470 564 470 529 c 2,15,-1
 470 0 l 1,16,-1
 331 0 l 1,17,-1
 331 509 l 2,18,19
 331 518 331 518 323.5 531.5 c 128,-1,20
 316 545 316 545 300.5 562 c 128,-1,21
 285 579 285 579 271.5 579 c 128,-1,22
 258 579 258 579 238 563.5 c 128,-1,23
 218 548 218 548 207 529 c 1,0,-1
EndSplineSet
EndChar

StartChar: O
Encoding: 79 79 50
Width: 464
GlyphClass: 2
Flags: W
LayerCount: 2
Fore
SplineSet
232 -12 m 128,-1,1
 196 -12 196 -12 124.5 53.5 c 128,-1,2
 53 119 53 119 36 160 c 0,3,4
 25 186 25 186 25 291 c 2,5,-1
 25 409 l 2,6,7
 25 514 25 514 36 540 c 0,8,9
 53 581 53 581 124.5 646.5 c 128,-1,10
 196 712 196 712 232 712 c 128,-1,11
 268 712 268 712 339.5 646.5 c 128,-1,12
 411 581 411 581 428 540 c 0,13,14
 439 514 439 514 439 409 c 2,15,-1
 439 291 l 2,16,17
 439 186 439 186 428 160 c 0,18,19
 411 119 411 119 339.5 53.5 c 128,-1,0
 268 -12 268 -12 232 -12 c 128,-1,1
232 131 m 128,-1,21
 246 131 246 131 265.5 151.5 c 128,-1,22
 285 172 285 172 293 190.5 c 128,-1,23
 301 209 301 209 301 291 c 2,24,-1
 301 409 l 2,25,26
 301 491 301 491 293 509.5 c 128,-1,27
 285 528 285 528 265.5 548.5 c 128,-1,28
 246 569 246 569 232 569 c 128,-1,29
 218 569 218 569 198.5 548.5 c 128,-1,30
 179 528 179 528 171 509.5 c 128,-1,31
 163 491 163 491 163 409 c 2,32,-1
 163 291 l 2,33,34
 163 209 163 209 171 190.5 c 128,-1,35
 179 172 179 172 198.5 151.5 c 128,-1,20
 218 131 218 131 232 131 c 128,-1,21
EndSplineSet
EndChar

StartChar: P
Encoding: 80 80 51
Width: 510
GlyphClass: 2
Flags: W
LayerCount: 2
Fore
SplineSet
253 339 m 1,0,-1
 273 339 l 2,1,2
 292 339 292 339 317.5 357.5 c 128,-1,3
 343 376 343 376 350 398 c 128,-1,4
 357 420 357 420 357 457 c 128,-1,5
 357 494 357 494 350 518.5 c 128,-1,6
 343 543 343 543 317.5 561 c 128,-1,7
 292 579 292 579 268.5 579 c 128,-1,8
 245 579 245 579 205 553 c 1,9,10
 208 520 208 520 208 486 c 2,11,-1
 208 0 l 1,12,-1
 70 0 l 1,13,-1
 70 428 l 2,14,15
 70 512 70 512 58.5 546.5 c 128,-1,16
 47 581 47 581 10 627 c 1,17,-1
 130 712 l 1,18,19
 156 694 156 694 176 653 c 1,20,21
 258 712 258 712 293 712 c 128,-1,22
 328 712 328 712 390 656 c 128,-1,23
 452 600 452 600 474 562 c 1,24,25
 485 548 485 548 485 465 c 128,-1,26
 485 382 485 382 474 360 c 1,27,28
 452 322 452 322 390 266 c 128,-1,29
 328 210 328 210 293 210 c 2,30,-1
 253 210 l 1,31,-1
 253 339 l 1,0,-1
EndSplineSet
EndChar

StartChar: Q
Encoding: 81 81 52
Width: 464
GlyphClass: 2
Flags: W
LayerCount: 2
Fore
SplineSet
25 261 m 2,0,-1
 25 409 l 2,1,2
 25 514 25 514 36 540 c 0,3,4
 53 581 53 581 124.5 646.5 c 128,-1,5
 196 712 196 712 232 712 c 128,-1,6
 268 712 268 712 339.5 646.5 c 128,-1,7
 411 581 411 581 428 540 c 0,8,9
 439 514 439 514 439 409 c 2,10,-1
 439 291 l 2,11,12
 439 186 439 186 429.5 163 c 128,-1,13
 420 140 420 140 381.5 100.5 c 128,-1,14
 343 61 343 61 301 41 c 1,15,16
 346 8 346 8 358 8 c 0,17,18
 382 8 382 8 407 36 c 1,19,-1
 500 -29 l 1,20,21
 462 -69 462 -69 421.5 -99 c 128,-1,22
 381 -129 381 -129 358 -129 c 0,23,24
 322 -129 322 -129 250 -81.5 c 128,-1,25
 178 -34 178 -34 108 37 c 1,26,27
 132 54 132 54 166 77.5 c 128,-1,28
 200 101 200 101 214.5 111.5 c 128,-1,29
 229 122 229 122 247 137 c 0,30,31
 277 162 277 162 293 190 c 0,32,33
 301 206 301 206 301 291 c 2,34,-1
 301 409 l 2,35,36
 301 491 301 491 293 509.5 c 128,-1,37
 285 528 285 528 265.5 548.5 c 128,-1,38
 246 569 246 569 232 569 c 128,-1,39
 218 569 218 569 198.5 548.5 c 128,-1,40
 179 528 179 528 171 509.5 c 128,-1,41
 163 491 163 491 163 409 c 2,42,-1
 163 261 l 2,43,44
 163 186 163 186 169 158 c 1,45,-1
 65 86 l 1,46,47
 45 112 45 112 35 134 c 128,-1,48
 25 156 25 156 25 261 c 2,0,-1
EndSplineSet
EndChar

StartChar: R
Encoding: 82 82 53
Width: 534
GlyphClass: 2
Flags: W
LayerCount: 2
Fore
SplineSet
180 657 m 1,0,1
 260 712 260 712 289 712 c 128,-1,2
 318 712 318 712 378.5 659.5 c 128,-1,3
 439 607 439 607 454 585.5 c 128,-1,4
 469 564 469 564 469 529 c 0,5,6
 469 461 469 461 458 448 c 1,7,8
 437 416 437 416 393 373 c 1,9,10
 454 315 454 315 469 284 c 1,11,12
 477 263 477 263 486 156.5 c 128,-1,13
 495 50 495 50 495 0 c 1,14,-1
 345 0 l 1,15,16
 345 45 345 45 337 141 c 128,-1,17
 329 237 329 237 319.5 257 c 128,-1,18
 310 277 310 277 297 292 c 1,19,-1
 208 292 l 1,20,-1
 208 0 l 1,21,-1
 70 0 l 1,22,-1
 70 438 l 2,23,24
 70 519 70 519 58.5 550.5 c 128,-1,25
 47 582 47 582 10 628 c 1,26,-1
 130 712 l 1,27,28
 162 691 162 691 180 657 c 1,0,1
208 486 m 2,29,-1
 208 409 l 1,30,-1
 247 409 l 2,31,32
 261 409 261 409 283 431 c 128,-1,33
 305 453 305 453 311.5 468.5 c 128,-1,34
 318 484 318 484 318 501 c 128,-1,35
 318 518 318 518 311.5 531.5 c 128,-1,36
 305 545 305 545 293 562 c 128,-1,37
 281 579 281 579 273 579 c 0,38,39
 246 579 246 579 205 566 c 1,40,41
 208 527 208 527 208 486 c 2,29,-1
EndSplineSet
EndChar

StartChar: S
Encoding: 83 83 54
Width: 464
GlyphClass: 2
Flags: W
LayerCount: 2
Fore
SplineSet
428 282 m 1,0,1
 439 264 439 264 439 210.5 c 128,-1,2
 439 157 439 157 417 120 c 1,3,4
 397 91 397 91 332 39.5 c 128,-1,5
 267 -12 267 -12 236 -12 c 0,6,7
 181 -12 181 -12 110 45.5 c 128,-1,8
 39 103 39 103 20 172 c 1,9,-1
 131 248 l 1,10,11
 147 201 147 201 182 162 c 128,-1,12
 217 123 217 123 231.5 123 c 128,-1,13
 246 123 246 123 262.5 132.5 c 128,-1,14
 279 142 279 142 288 152 c 0,15,16
 301 168 301 168 301 202 c 128,-1,17
 301 236 301 236 285 244 c 1,18,19
 265 261 265 261 207.5 289 c 128,-1,20
 150 317 150 317 101 349.5 c 128,-1,21
 52 382 52 382 38.5 413 c 128,-1,22
 25 444 25 444 25 493.5 c 128,-1,23
 25 543 25 543 47 580 c 1,24,25
 67 609 67 609 132 660.5 c 128,-1,26
 197 712 197 712 228 712 c 0,27,28
 283 712 283 712 354 654.5 c 128,-1,29
 425 597 425 597 444 528 c 1,30,-1
 333 451 l 1,31,32
 317 498 317 498 282 537.5 c 128,-1,33
 247 577 247 577 232.5 577 c 128,-1,34
 218 577 218 577 201 568 c 128,-1,35
 184 559 184 559 173.5 545.5 c 128,-1,36
 163 532 163 532 163 499.5 c 128,-1,37
 163 467 163 467 183 456 c 1,38,39
 199 442 199 442 256 412 c 1,40,41
 402 332 402 332 428 282 c 1,0,1
EndSplineSet
EndChar

StartChar: T
Encoding: 84 84 55
Width: 422
GlyphClass: 2
Flags: W
LayerCount: 2
Fore
SplineSet
410 700 m 1,0,-1
 410 580 l 1,1,-1
 280 580 l 1,2,-1
 280 0 l 1,3,-1
 142 0 l 1,4,-1
 142 580 l 1,5,-1
 12 580 l 1,6,-1
 12 700 l 1,7,-1
 410 700 l 1,0,-1
EndSplineSet
EndChar

StartChar: U
Encoding: 85 85 56
Width: 534
GlyphClass: 2
Flags: W
LayerCount: 2
Fore
SplineSet
484 700 m 1,0,-1
 484 291 l 2,1,2
 484 186 484 186 473 160 c 0,3,4
 456 119 456 119 384.5 53.5 c 128,-1,5
 313 -12 313 -12 277 -12 c 128,-1,6
 241 -12 241 -12 169.5 53.5 c 128,-1,7
 98 119 98 119 81 160 c 0,8,9
 70 186 70 186 70 291 c 2,10,-1
 70 436 l 2,11,12
 70 517 70 517 58.5 550 c 128,-1,13
 47 583 47 583 10 628 c 1,14,-1
 130 712 l 1,15,16
 162 691 162 691 185 630.5 c 128,-1,17
 208 570 208 570 208 486 c 2,18,-1
 208 291 l 2,19,20
 208 209 208 209 216 190.5 c 128,-1,21
 224 172 224 172 243.5 151.5 c 128,-1,22
 263 131 263 131 277 131 c 128,-1,23
 291 131 291 131 310.5 151.5 c 128,-1,24
 330 172 330 172 338 190.5 c 128,-1,25
 346 209 346 209 346 291 c 2,26,-1
 346 700 l 1,27,-1
 484 700 l 1,0,-1
EndSplineSet
EndChar

StartChar: V
Encoding: 86 86 57
Width: 494
GlyphClass: 2
Flags: W
LayerCount: 2
Fore
SplineSet
45 700 m 1,0,-1
 183 700 l 1,1,-1
 183 311 l 2,2,3
 183 255 183 255 189.5 226.5 c 128,-1,4
 196 198 196 198 219 164.5 c 128,-1,5
 242 131 242 131 252 131 c 128,-1,6
 262 131 262 131 285 164.5 c 128,-1,7
 308 198 308 198 314.5 226.5 c 128,-1,8
 321 255 321 255 321 311 c 2,9,-1
 321 428 l 2,10,11
 321 512 321 512 309.5 545 c 128,-1,12
 298 578 298 578 261 626 c 1,13,-1
 381 712 l 1,14,15
 413 691 413 691 436 630.5 c 128,-1,16
 459 570 459 570 459 486 c 2,17,-1
 459 321 l 2,18,19
 459 243 459 243 444 193 c 128,-1,20
 429 143 429 143 358.5 65.5 c 128,-1,21
 288 -12 288 -12 252 -12 c 128,-1,22
 216 -12 216 -12 145.5 65.5 c 128,-1,23
 75 143 75 143 60 193 c 128,-1,24
 45 243 45 243 45 321 c 2,25,-1
 45 700 l 1,0,-1
EndSplineSet
EndChar

StartChar: W
Encoding: 87 87 58
Width: 738
GlyphClass: 2
Flags: W
LayerCount: 2
Fore
SplineSet
443 700 m 1,0,-1
 443 321 l 2,1,2
 443 265 443 265 449.5 235.5 c 128,-1,3
 456 206 456 206 476 168.5 c 128,-1,4
 496 131 496 131 503.5 131 c 128,-1,5
 511 131 511 131 531 168.5 c 128,-1,6
 551 206 551 206 558 235.5 c 128,-1,7
 565 265 565 265 565 321 c 2,8,-1
 565 428 l 2,9,10
 565 512 565 512 553.5 545.5 c 128,-1,11
 542 579 542 579 505 628 c 1,12,-1
 625 712 l 1,13,14
 657 690 657 690 680 630 c 128,-1,15
 703 570 703 570 703 486 c 2,16,-1
 703 321 l 2,17,18
 703 243 703 243 688 192.5 c 128,-1,19
 673 142 673 142 605.5 65 c 128,-1,20
 538 -12 538 -12 504 -12 c 0,21,22
 483 -12 483 -12 445.5 26 c 128,-1,23
 408 64 408 64 374 115 c 1,24,25
 338 63 338 63 301.5 25.5 c 128,-1,26
 265 -12 265 -12 244 -12 c 0,27,28
 210 -12 210 -12 142.5 65 c 128,-1,29
 75 142 75 142 60 192.5 c 128,-1,30
 45 243 45 243 45 321 c 2,31,-1
 45 700 l 1,32,-1
 183 700 l 1,33,-1
 183 321 l 2,34,35
 183 256 183 256 190 231 c 128,-1,36
 197 206 197 206 217 168.5 c 128,-1,37
 237 131 237 131 244.5 131 c 128,-1,38
 252 131 252 131 272 168.5 c 128,-1,39
 292 206 292 206 298.5 235.5 c 128,-1,40
 305 265 305 265 305 321 c 2,41,-1
 305 700 l 1,42,-1
 443 700 l 1,0,-1
EndSplineSet
EndChar

StartChar: X
Encoding: 88 88 59
Width: 508
GlyphClass: 2
Flags: W
LayerCount: 2
Fore
SplineSet
334 700 m 1,0,-1
 472 700 l 1,1,2
 472 665 472 665 464.5 589 c 128,-1,3
 457 513 457 513 451 496 c 0,4,5
 440 462 440 462 365 387 c 1,6,7
 402 352 402 352 431 314 c 128,-1,8
 460 276 460 276 466.5 255.5 c 128,-1,9
 473 235 473 235 480.5 139.5 c 128,-1,10
 488 44 488 44 488 0 c 1,11,-1
 350 0 l 1,12,13
 350 36 350 36 343 127.5 c 128,-1,14
 336 219 336 219 332 234 c 1,15,16
 323 258 323 258 295 289 c 128,-1,17
 267 320 267 320 254 320 c 128,-1,18
 241 320 241 320 213 289 c 128,-1,19
 185 258 185 258 178 238.5 c 128,-1,20
 171 219 171 219 164.5 128.5 c 128,-1,21
 158 38 158 38 158 0 c 1,22,-1
 20 0 l 1,23,24
 20 44 20 44 27.5 139.5 c 128,-1,25
 35 235 35 235 41.5 255.5 c 128,-1,26
 48 276 48 276 77 314 c 128,-1,27
 106 352 106 352 143 387 c 1,28,29
 106 407 106 407 84.5 443.5 c 128,-1,30
 63 480 63 480 58 513 c 0,31,32
 43 602 43 602 3 628 c 1,33,-1
 123 712 l 1,34,35
 153 695 153 695 170 656.5 c 128,-1,36
 187 618 187 618 191.5 579.5 c 128,-1,37
 196 541 196 541 211.5 500.5 c 128,-1,38
 227 460 227 460 254 440 c 1,39,40
 271 443 271 443 289.5 468.5 c 128,-1,41
 308 494 308 494 314 512 c 128,-1,42
 320 530 320 530 327 601.5 c 128,-1,43
 334 673 334 673 334 700 c 1,0,-1
EndSplineSet
EndChar

StartChar: Y
Encoding: 89 89 60
Width: 484
GlyphClass: 2
Flags: W
LayerCount: 2
Fore
SplineSet
173 0 m 1,0,-1
 173 280 l 1,1,2
 134 312 134 312 97.5 356.5 c 128,-1,3
 61 401 61 401 48 426.5 c 128,-1,4
 35 452 35 452 35 531 c 2,5,-1
 35 700 l 1,6,-1
 173 700 l 1,7,-1
 173 531 l 2,8,9
 173 480 173 480 181.5 459.5 c 128,-1,10
 190 439 190 439 211.5 410 c 128,-1,11
 233 381 233 381 242 381 c 128,-1,12
 251 381 251 381 273 410.5 c 128,-1,13
 295 440 295 440 303 459 c 128,-1,14
 311 478 311 478 311 531 c 2,15,-1
 311 700 l 1,16,-1
 449 700 l 1,17,-1
 449 531 l 2,18,19
 449 451 449 451 436 426 c 128,-1,20
 423 401 423 401 386 356.5 c 128,-1,21
 349 312 349 312 311 280 c 1,22,-1
 311 0 l 1,23,-1
 173 0 l 1,0,-1
EndSplineSet
EndChar

StartChar: Z
Encoding: 90 90 61
Width: 448
GlyphClass: 2
Flags: W
LayerCount: 2
Fore
SplineSet
423 0 m 1,0,-1
 25 0 l 1,1,-1
 25 100 l 1,2,-1
 271 580 l 1,3,-1
 37 580 l 1,4,-1
 37 700 l 1,5,-1
 423 700 l 1,6,-1
 423 600 l 1,7,-1
 176 120 l 1,8,-1
 423 120 l 1,9,-1
 423 0 l 1,0,-1
EndSplineSet
EndChar

StartChar: bracketleft
Encoding: 91 91 62
Width: 393
GlyphClass: 2
Flags: W
LayerCount: 2
Fore
SplineSet
171 750 m 0,0,1
 298 750 298 750 338 724 c 1,2,-1
 295 630 l 1,3,4
 265 640 265 640 195 640 c 1,5,-1
 195 -140 l 1,6,7
 265 -140 265 -140 295 -130 c 1,8,-1
 338 -224 l 1,9,10
 298 -250 298 -250 171 -250 c 0,11,12
 160 -250 160 -250 109.5 -221 c 128,-1,13
 59 -192 59 -192 55 -183 c 1,14,-1
 55 683 l 1,15,16
 59 692 59 692 109.5 721 c 128,-1,17
 160 750 160 750 171 750 c 0,0,1
EndSplineSet
EndChar

StartChar: backslash
Encoding: 92 92 63
Width: 620
GlyphClass: 2
Flags: W
LayerCount: 2
Fore
SplineSet
455 -250 m 1,0,-1
 55 690 l 1,1,2
 68 707 68 707 110 728.5 c 128,-1,3
 152 750 152 750 165 750 c 1,4,-1
 565 -190 l 1,5,6
 552 -207 552 -207 510 -228.5 c 128,-1,7
 468 -250 468 -250 455 -250 c 1,0,-1
EndSplineSet
EndChar

StartChar: bracketright
Encoding: 93 93 64
Width: 393
GlyphClass: 2
Flags: W
LayerCount: 2
Fore
SplineSet
222 -250 m 0,0,1
 95 -250 95 -250 55 -224 c 1,2,-1
 98 -130 l 1,3,4
 128 -140 128 -140 198 -140 c 1,5,-1
 198 640 l 1,6,7
 128 640 128 640 98 630 c 1,8,-1
 55 724 l 1,9,10
 95 750 95 750 222 750 c 0,11,12
 233 750 233 750 283.5 721 c 128,-1,13
 334 692 334 692 338 683 c 1,14,-1
 338 -183 l 1,15,16
 334 -192 334 -192 283.5 -221 c 128,-1,17
 233 -250 233 -250 222 -250 c 0,0,1
EndSplineSet
EndChar

StartChar: asciicircum
Encoding: 94 94 65
Width: 618
GlyphClass: 2
Flags: W
LayerCount: 2
Fore
SplineSet
139 165 m 0,0,1
 127 165 127 165 91 192.5 c 128,-1,2
 55 220 55 220 55 230 c 0,3,4
 55 246 55 246 170.5 370.5 c 128,-1,5
 286 495 286 495 309 495 c 128,-1,6
 332 495 332 495 447.5 370.5 c 128,-1,7
 563 246 563 246 563 230 c 0,8,9
 563 220 563 220 527.5 192.5 c 128,-1,10
 492 165 492 165 479 165 c 0,11,12
 474 165 474 165 444 194.5 c 128,-1,13
 414 224 414 224 372 265.5 c 128,-1,14
 330 307 330 307 309 325 c 1,15,16
 288 307 288 307 246 265.5 c 128,-1,17
 204 224 204 224 174 194.5 c 128,-1,18
 144 165 144 165 139 165 c 0,0,1
EndSplineSet
EndChar

StartChar: underscore
Encoding: 95 95 66
Width: 483
GlyphClass: 2
Flags: W
LayerCount: 2
Fore
SplineSet
55 -250 m 1,0,-1
 55 -170 l 1,1,-1
 428 -170 l 1,2,-1
 428 -250 l 1,3,-1
 55 -250 l 1,0,-1
EndSplineSet
EndChar

StartChar: grave
Encoding: 96 96 67
Width: 298
GlyphClass: 2
Flags: W
LayerCount: 2
Fore
SplineSet
55 685 m 0,0,1
 55 695 55 695 87.5 722.5 c 128,-1,2
 120 750 120 750 129.5 750 c 128,-1,3
 139 750 139 750 191 686 c 128,-1,4
 243 622 243 622 243 615.5 c 128,-1,5
 243 609 243 609 228 594.5 c 128,-1,6
 213 580 213 580 206 580 c 128,-1,7
 199 580 199 580 127 625.5 c 128,-1,8
 55 671 55 671 55 685 c 0,0,1
EndSplineSet
EndChar

StartChar: a
Encoding: 97 97 68
Width: 472
GlyphClass: 2
Flags: W
LayerCount: 2
Fore
SplineSet
410 539 m 1,0,-1
 410 129 l 1,1,2
 416 94 416 94 457 67 c 1,3,-1
 367 -10 l 1,4,5
 354 -1 354 -1 335 22 c 128,-1,6
 316 45 316 45 303 69 c 1,7,8
 220 -12 220 -12 187 -12 c 0,9,10
 163 -12 163 -12 109.5 41 c 128,-1,11
 56 94 56 94 43 127 c 128,-1,12
 30 160 30 160 30 269.5 c 128,-1,13
 30 379 30 379 43 412 c 128,-1,14
 56 445 56 445 109.5 498 c 128,-1,15
 163 551 163 551 187 551 c 0,16,17
 222 551 222 551 300 479 c 1,18,-1
 312 539 l 1,19,-1
 410 539 l 1,0,-1
242.5 412.5 m 128,-1,21
 221 426 221 426 210 426 c 128,-1,22
 199 426 199 426 186.5 413 c 128,-1,23
 174 400 174 400 170 389 c 1,24,25
 157 371 157 371 157 269.5 c 128,-1,26
 157 168 157 168 170 150 c 1,27,28
 174 140 174 140 186.5 126.5 c 128,-1,29
 199 113 199 113 210 113 c 128,-1,30
 221 113 221 113 242.5 126.5 c 128,-1,31
 264 140 264 140 270.5 151 c 128,-1,32
 277 162 277 162 278 268 c 0,33,34
 278 374 278 374 271 386.5 c 128,-1,20
 264 399 264 399 242.5 412.5 c 128,-1,21
EndSplineSet
EndChar

StartChar: b
Encoding: 98 98 69
Width: 468
GlyphClass: 2
Flags: W
LayerCount: 2
Fore
SplineSet
65 0 m 1,0,-1
 65 546 l 2,1,2
 65 597 65 597 53 624 c 128,-1,3
 41 651 41 651 15 673 c 1,4,-1
 125 750 l 1,5,6
 197 693 197 693 197 589 c 2,7,-1
 197 498 l 1,8,9
 257 551 257 551 283.5 551 c 128,-1,10
 310 551 310 551 364.5 497.5 c 128,-1,11
 419 444 419 444 427 419 c 1,12,13
 438 394 438 394 438 269.5 c 128,-1,14
 438 145 438 145 427 120 c 1,15,16
 419 95 419 95 364.5 41.5 c 128,-1,17
 310 -12 310 -12 286 -12 c 0,18,19
 251 -12 251 -12 174 61 c 1,20,-1
 163 0 l 1,21,-1
 65 0 l 1,0,-1
230.5 126.5 m 128,-1,23
 252 113 252 113 263 113 c 128,-1,24
 274 113 274 113 286.5 126 c 128,-1,25
 299 139 299 139 305 153 c 128,-1,26
 311 167 311 167 311 269.5 c 128,-1,27
 311 372 311 372 305 385.5 c 128,-1,28
 299 399 299 399 286.5 412.5 c 128,-1,29
 274 426 274 426 263.5 426 c 128,-1,30
 253 426 253 426 231.5 412.5 c 128,-1,31
 210 399 210 399 203 389 c 1,32,33
 195 372 195 372 195 268.5 c 128,-1,34
 195 165 195 165 202 152.5 c 128,-1,22
 209 140 209 140 230.5 126.5 c 128,-1,23
EndSplineSet
EndChar

StartChar: c
Encoding: 99 99 70
Width: 399
GlyphClass: 2
Flags: W
LayerCount: 2
Fore
SplineSet
51 110 m 0,0,1
 30 143 30 143 30 269 c 128,-1,2
 30 395 30 395 51 429 c 0,3,4
 66 454 66 454 125 502.5 c 128,-1,5
 184 551 184 551 216.5 551 c 128,-1,6
 249 551 249 551 304.5 512.5 c 128,-1,7
 360 474 360 474 388 425 c 1,8,-1
 285 354 l 1,9,10
 272 378 272 378 249.5 407 c 128,-1,11
 227 436 227 436 216 436 c 0,12,13
 196 436 196 436 170 394 c 1,14,15
 157 368 157 368 157 269.5 c 128,-1,16
 157 171 157 171 170 145 c 1,17,18
 178 132 178 132 191 117.5 c 128,-1,19
 204 103 204 103 217 103 c 128,-1,20
 230 103 230 103 251 126 c 128,-1,21
 272 149 272 149 285 185 c 1,22,-1
 388 113 l 1,23,24
 361 63 361 63 305.5 25.5 c 128,-1,25
 250 -12 250 -12 217 -12 c 128,-1,26
 184 -12 184 -12 125 36.5 c 128,-1,27
 66 85 66 85 51 110 c 0,0,1
EndSplineSet
EndChar

StartChar: d
Encoding: 100 100 71
Width: 435
GlyphClass: 2
Flags: W
LayerCount: 2
Fore
SplineSet
103.5 497.5 m 128,-1,1
 158 551 158 551 184 551 c 128,-1,2
 210 551 210 551 273 497 c 1,3,-1
 273 546 l 2,4,5
 273 597 273 597 261 624 c 128,-1,6
 249 651 249 651 223 673 c 1,7,-1
 333 750 l 1,8,9
 405 693 405 693 405 589 c 2,10,-1
 405 0 l 1,11,-1
 303 0 l 1,12,-1
 291 59 l 1,13,14
 218 -12 218 -12 182 -12 c 0,15,16
 158 -12 158 -12 103.5 41.5 c 128,-1,17
 49 95 49 95 41 120 c 1,18,19
 30 145 30 145 30 269.5 c 128,-1,20
 30 394 30 394 41 419 c 1,21,0
 49 444 49 444 103.5 497.5 c 128,-1,1
237.5 412.5 m 128,-1,23
 216 426 216 426 205 426 c 128,-1,24
 194 426 194 426 181.5 413 c 128,-1,25
 169 400 169 400 163 386 c 128,-1,26
 157 372 157 372 157 269.5 c 128,-1,27
 157 167 157 167 163 153.5 c 128,-1,28
 169 140 169 140 181.5 126.5 c 128,-1,29
 194 113 194 113 204.5 113 c 128,-1,30
 215 113 215 113 236.5 126.5 c 128,-1,31
 258 140 258 140 265 150 c 1,32,33
 271 164 271 164 273 231 c 1,34,-1
 273 268 l 2,35,36
 273 374 273 374 266 386.5 c 128,-1,22
 259 399 259 399 237.5 412.5 c 128,-1,23
EndSplineSet
EndChar

StartChar: e
Encoding: 101 101 72
Width: 444
GlyphClass: 2
Flags: W
LayerCount: 2
Fore
SplineSet
404 271 m 2,0,-1
 404 235 l 1,1,-1
 162 235 l 1,2,3
 162 175 162 175 177 140 c 0,4,5
 182 128 182 128 195 115.5 c 128,-1,6
 208 103 208 103 222 103 c 128,-1,7
 236 103 236 103 257 127 c 128,-1,8
 278 151 278 151 290 185 c 1,9,-1
 393 112 l 1,10,11
 366 62 366 62 310.5 25 c 128,-1,12
 255 -12 255 -12 221 -12 c 128,-1,13
 187 -12 187 -12 122.5 41 c 128,-1,14
 58 94 58 94 44 123.5 c 128,-1,15
 30 153 30 153 30 269.5 c 128,-1,16
 30 386 30 386 44 415.5 c 128,-1,17
 58 445 58 445 122.5 498 c 128,-1,18
 187 551 187 551 217 551 c 128,-1,19
 247 551 247 551 311.5 498 c 128,-1,20
 376 445 376 445 390 415.5 c 128,-1,21
 404 386 404 386 404 271 c 2,0,-1
242.5 423 m 128,-1,23
 227 436 227 436 213.5 436 c 128,-1,24
 200 436 200 436 183 409.5 c 128,-1,25
 166 383 166 383 162 330 c 1,26,-1
 276 330 l 1,27,28
 273 383 273 383 265.5 396.5 c 128,-1,22
 258 410 258 410 242.5 423 c 128,-1,23
EndSplineSet
EndChar

StartChar: f
Encoding: 102 102 73
Width: 348
GlyphClass: 2
Flags: W
LayerCount: 2
Fore
SplineSet
15 395 m 1,0,-1
 15 470 l 1,1,-1
 65 482 l 1,2,3
 65 594 65 594 76 619 c 128,-1,4
 87 644 87 644 152 697 c 128,-1,5
 217 750 217 750 247.5 750 c 128,-1,6
 278 750 278 750 324 721.5 c 128,-1,7
 370 693 370 693 393 656 c 1,8,-1
 295 590 l 1,9,10
 267 635 267 635 247 635 c 0,11,12
 237 635 237 635 224 622 c 128,-1,13
 211 609 211 609 204 595 c 128,-1,14
 197 581 197 581 197 500 c 1,15,-1
 339 500 l 1,16,-1
 339 395 l 1,17,-1
 197 395 l 1,18,-1
 197 0 l 1,19,-1
 65 0 l 1,20,-1
 65 395 l 1,21,-1
 15 395 l 1,0,-1
EndSplineSet
EndChar

StartChar: g
Encoding: 103 103 74
Width: 438
GlyphClass: 2
Flags: W
LayerCount: 2
Fore
SplineSet
237 413 m 128,-1,1
 216 426 216 426 205 426 c 128,-1,2
 194 426 194 426 181.5 413 c 128,-1,3
 169 400 169 400 165 389 c 1,4,5
 157 373 157 373 157 289 c 128,-1,6
 157 205 157 205 165 190 c 1,7,8
 169 180 169 180 181.5 166.5 c 128,-1,9
 194 153 194 153 205 153 c 128,-1,10
 216 153 216 153 237.5 166.5 c 128,-1,11
 259 180 259 180 266 191.5 c 128,-1,12
 273 203 273 203 273 289.5 c 128,-1,13
 273 376 273 376 265.5 388 c 128,-1,0
 258 400 258 400 237 413 c 128,-1,1
403 539 m 1,14,-1
 403 33 l 2,15,16
 403 -95 403 -95 391.5 -119.5 c 128,-1,17
 380 -144 380 -144 311 -197 c 128,-1,18
 242 -250 242 -250 207.5 -250 c 128,-1,19
 173 -250 173 -250 121 -215.5 c 128,-1,20
 69 -181 69 -181 43 -136 c 1,21,-1
 146 -65 l 1,22,-1
 156 -78 l 2,23,24
 193 -125 193 -125 207.5 -125 c 128,-1,25
 222 -125 222 -125 240.5 -112 c 128,-1,26
 259 -99 259 -99 265.5 -84.5 c 128,-1,27
 272 -70 272 -70 272 38 c 1,28,-1
 275 77 l 1,29,30
 207 28 207 28 182.5 28 c 128,-1,31
 158 28 158 28 105 81 c 128,-1,32
 52 134 52 134 41 160 c 128,-1,33
 30 186 30 186 30 289 c 128,-1,34
 30 392 30 392 41 418.5 c 128,-1,35
 52 445 52 445 105 498 c 128,-1,36
 158 551 158 551 186 551 c 128,-1,37
 214 551 214 551 293 487 c 1,38,-1
 305 539 l 1,39,-1
 403 539 l 1,14,-1
EndSplineSet
EndChar

StartChar: h
Encoding: 104 104 75
Width: 503
GlyphClass: 2
Flags: W
LayerCount: 2
Fore
SplineSet
197 0 m 1,0,-1
 65 0 l 1,1,-1
 65 546 l 2,2,3
 65 597 65 597 53 624 c 128,-1,4
 41 651 41 651 15 673 c 1,5,-1
 125 750 l 1,6,7
 197 693 197 693 197 589 c 2,8,-1
 197 496 l 1,9,10
 259 551 259 551 287 551 c 128,-1,11
 315 551 315 551 376.5 495.5 c 128,-1,12
 438 440 438 440 438 386 c 2,13,-1
 438 193 l 2,14,15
 438 142 438 142 450 114 c 128,-1,16
 462 86 462 86 488 65 c 1,17,-1
 378 -12 l 1,18,19
 306 45 306 45 306 150 c 2,20,-1
 306 372 l 2,21,22
 306 389 306 389 288 407.5 c 128,-1,23
 270 426 270 426 254.5 426 c 128,-1,24
 239 426 239 426 197 384 c 1,25,-1
 197 0 l 1,0,-1
EndSplineSet
EndChar

StartChar: i
Encoding: 105 105 76
Width: 222
GlyphClass: 2
Flags: W
LayerCount: 2
Fore
SplineSet
40 539 m 1,0,-1
 172 539 l 1,1,-1
 172 193 l 2,2,3
 172 142 172 142 184 114 c 128,-1,4
 196 86 196 86 222 65 c 1,5,-1
 112 -12 l 1,6,7
 40 45 40 45 40 150 c 2,8,-1
 40 539 l 1,0,-1
157 715.5 m 128,-1,10
 195 683 195 683 195 671.5 c 128,-1,11
 195 660 195 660 156.5 627 c 128,-1,12
 118 594 118 594 107.5 594 c 128,-1,13
 97 594 97 594 59 626.5 c 128,-1,14
 21 659 21 659 21 670.5 c 128,-1,15
 21 682 21 682 59.5 715 c 128,-1,16
 98 748 98 748 108.5 748 c 128,-1,9
 119 748 119 748 157 715.5 c 128,-1,10
EndSplineSet
EndChar

StartChar: j
Encoding: 106 106 77
Width: 268
GlyphClass: 2
Flags: W
LayerCount: 2
Fore
SplineSet
218 388 m 2,0,1
 218 388 218 388 217 33 c 0,2,3
 217 -93 217 -93 202 -118 c 1,4,5
 191 -144 191 -144 126 -197 c 128,-1,6
 61 -250 61 -250 28 -250 c 128,-1,7
 -5 -250 -5 -250 -57 -215.5 c 128,-1,8
 -109 -181 -109 -181 -135 -136 c 1,9,-1
 -32 -65 l 1,10,-1
 -22 -78 l 2,11,12
 15 -125 15 -125 28.5 -125 c 128,-1,13
 42 -125 42 -125 57.5 -112 c 128,-1,14
 73 -99 73 -99 79.5 -86 c 128,-1,15
 86 -73 86 -73 86 8 c 2,16,-1
 86 345 l 2,17,18
 86 396 86 396 74 424 c 128,-1,19
 62 452 62 452 36 473 c 1,20,-1
 146 550 l 1,21,22
 218 493 218 493 218 388 c 2,0,1
179 715.5 m 128,-1,24
 217 683 217 683 217 671.5 c 128,-1,25
 217 660 217 660 178.5 627 c 128,-1,26
 140 594 140 594 129.5 594 c 128,-1,27
 119 594 119 594 81 626.5 c 128,-1,28
 43 659 43 659 43 670.5 c 128,-1,29
 43 682 43 682 81.5 715 c 128,-1,30
 120 748 120 748 130.5 748 c 128,-1,23
 141 748 141 748 179 715.5 c 128,-1,24
EndSplineSet
EndChar

StartChar: k
Encoding: 107 107 78
Width: 503
GlyphClass: 2
Flags: W
LayerCount: 2
Fore
SplineSet
197 0 m 1,0,-1
 65 0 l 1,1,-1
 65 546 l 2,2,3
 65 597 65 597 53 624 c 128,-1,4
 41 651 41 651 15 673 c 1,5,-1
 125 750 l 1,6,7
 197 693 197 693 197 589 c 2,8,-1
 197 475 l 1,9,10
 275 551 275 551 301 551 c 128,-1,11
 327 551 327 551 393 494 c 128,-1,12
 459 437 459 437 461 405 c 1,13,14
 461 382 461 382 429.5 327 c 128,-1,15
 398 272 398 272 369 243 c 1,16,17
 442 153 442 153 462 76 c 1,18,-1
 336 -12 l 1,19,20
 313 69 313 69 288 122.5 c 128,-1,21
 263 176 263 176 218 223 c 1,22,-1
 218 258 l 1,23,24
 249 280 249 280 284 322.5 c 128,-1,25
 319 365 319 365 324 388 c 1,26,27
 296 426 296 426 276 426 c 0,28,29
 265 426 265 426 239.5 404.5 c 128,-1,30
 214 383 214 383 197 364 c 1,31,-1
 197 0 l 1,0,-1
EndSplineSet
EndChar

StartChar: l
Encoding: 108 108 79
Width: 232
GlyphClass: 2
Flags: W
LayerCount: 2
Fore
SplineSet
35 750 m 1,0,-1
 167 750 l 1,1,-1
 167 193 l 2,2,3
 167 142 167 142 179 114 c 128,-1,4
 191 86 191 86 217 65 c 1,5,-1
 107 -12 l 1,6,7
 35 45 35 45 35 150 c 2,8,-1
 35 750 l 1,0,-1
EndSplineSet
EndChar

StartChar: m
Encoding: 109 109 80
Width: 703
GlyphClass: 2
Flags: W
LayerCount: 2
Fore
SplineSet
418 0 m 1,0,-1
 286 0 l 1,1,-1
 286 372 l 2,2,3
 286 389 286 389 268 407.5 c 128,-1,4
 250 426 250 426 237.5 426 c 128,-1,5
 225 426 225 426 197 402 c 1,6,-1
 197 0 l 1,7,-1
 65 0 l 1,8,-1
 65 345 l 2,9,10
 65 396 65 396 53 424 c 128,-1,11
 41 452 41 452 15 473 c 1,12,-1
 125 550 l 1,13,14
 158 522 158 522 174 493 c 1,15,16
 239 551 239 551 264 551 c 0,17,18
 279 551 279 551 313 529 c 128,-1,19
 347 507 347 507 375 476 c 1,20,21
 454 551 454 551 484.5 551 c 128,-1,22
 515 551 515 551 576.5 495.5 c 128,-1,23
 638 440 638 440 638 386 c 2,24,-1
 638 193 l 2,25,26
 638 142 638 142 650 114 c 128,-1,27
 662 86 662 86 688 65 c 1,28,-1
 578 -12 l 1,29,30
 506 45 506 45 506 150 c 2,31,-1
 506 372 l 2,32,33
 506 389 506 389 488 407.5 c 128,-1,34
 470 426 470 426 458.5 426 c 128,-1,35
 447 426 447 426 416 401 c 1,36,37
 418 391 418 391 418 386 c 2,38,-1
 418 0 l 1,0,-1
EndSplineSet
EndChar

StartChar: n
Encoding: 110 110 81
Width: 503
GlyphClass: 2
Flags: W
LayerCount: 2
Fore
SplineSet
197 0 m 1,0,-1
 65 0 l 1,1,-1
 65 345 l 2,2,3
 65 396 65 396 53 424 c 128,-1,4
 41 452 41 452 15 473 c 1,5,-1
 125 550 l 1,6,7
 162 520 162 520 180 481 c 1,8,9
 254 551 254 551 284.5 551 c 128,-1,10
 315 551 315 551 376.5 495.5 c 128,-1,11
 438 440 438 440 438 386 c 2,12,-1
 438 193 l 2,13,14
 438 142 438 142 450 114 c 128,-1,15
 462 86 462 86 488 65 c 1,16,-1
 378 -12 l 1,17,18
 306 45 306 45 306 150 c 2,19,-1
 306 372 l 2,20,21
 306 389 306 389 288 407.5 c 128,-1,22
 270 426 270 426 254.5 426 c 128,-1,23
 239 426 239 426 197 384 c 1,24,-1
 197 0 l 1,0,-1
EndSplineSet
EndChar

StartChar: o
Encoding: 111 111 82
Width: 434
GlyphClass: 2
Flags: W
LayerCount: 2
Fore
SplineSet
217 103 m 128,-1,1
 226 103 226 103 241.5 118 c 128,-1,2
 257 133 257 133 264 145 c 0,3,4
 277 167 277 167 277 269 c 128,-1,5
 277 371 277 371 264 394 c 0,6,7
 257 406 257 406 241.5 421 c 128,-1,8
 226 436 226 436 217 436 c 128,-1,9
 208 436 208 436 192.5 421 c 128,-1,10
 177 406 177 406 170 394 c 0,11,12
 157 372 157 372 157 270 c 128,-1,13
 157 168 157 168 170 145 c 0,14,15
 177 133 177 133 192.5 118 c 128,-1,0
 208 103 208 103 217 103 c 128,-1,1
217 -12 m 128,-1,17
 188 -12 188 -12 126.5 37 c 128,-1,18
 65 86 65 86 51 110 c 0,19,20
 30 147 30 147 30 270 c 128,-1,21
 30 393 30 393 51 429 c 0,22,23
 65 453 65 453 126.5 502 c 128,-1,24
 188 551 188 551 217 551 c 128,-1,25
 246 551 246 551 307.5 502 c 128,-1,26
 369 453 369 453 383 429 c 0,27,28
 404 393 404 393 404 270 c 128,-1,29
 404 147 404 147 383 110 c 0,30,31
 369 86 369 86 307.5 37 c 128,-1,16
 246 -12 246 -12 217 -12 c 128,-1,17
EndSplineSet
EndChar

StartChar: p
Encoding: 112 112 83
Width: 475
GlyphClass: 2
Flags: W
LayerCount: 2
Fore
SplineSet
232.5 126.5 m 128,-1,1
 254 113 254 113 268.5 113 c 128,-1,2
 283 113 283 113 305 150 c 0,3,4
 318 173 318 173 318 269.5 c 128,-1,5
 318 366 318 366 305 389 c 0,6,7
 299 400 299 400 287.5 413 c 128,-1,8
 276 426 276 426 265.5 426 c 128,-1,9
 255 426 255 426 233 412.5 c 128,-1,10
 211 399 211 399 204 387 c 128,-1,11
 197 375 197 375 197 270 c 128,-1,12
 197 165 197 165 204 152.5 c 128,-1,0
 211 140 211 140 232.5 126.5 c 128,-1,1
365.5 41 m 128,-1,14
 312 -12 312 -12 285 -12 c 128,-1,15
 258 -12 258 -12 197 42 c 1,16,-1
 197 -45 l 2,17,18
 197 -96 197 -96 209 -124 c 128,-1,19
 221 -152 221 -152 247 -173 c 1,20,-1
 137 -250 l 1,21,22
 65 -193 65 -193 65 -88 c 2,23,-1
 65 337 l 2,24,25
 65 432 65 432 15 474 c 1,26,-1
 125 551 l 1,27,28
 153 528 153 528 177 479 c 1,29,30
 255 551 255 551 288 551 c 0,31,32
 312 551 312 551 365.5 498 c 128,-1,33
 419 445 419 445 432 412 c 128,-1,34
 445 379 445 379 445 269.5 c 128,-1,35
 445 160 445 160 432 127 c 128,-1,13
 419 94 419 94 365.5 41 c 128,-1,14
EndSplineSet
EndChar

StartChar: q
Encoding: 113 113 84
Width: 438
GlyphClass: 2
Flags: W
LayerCount: 2
Fore
SplineSet
182 551 m 0,0,1
 218 551 218 551 293 478 c 1,2,-1
 305 539 l 1,3,-1
 403 539 l 1,4,-1
 403 -250 l 1,5,-1
 271 -250 l 1,6,-1
 271 40 l 1,7,8
 210 -12 210 -12 184 -12 c 128,-1,9
 158 -12 158 -12 103.5 41.5 c 128,-1,10
 49 95 49 95 41 120 c 1,11,12
 30 145 30 145 30 269.5 c 128,-1,13
 30 394 30 394 41 419 c 1,14,15
 49 444 49 444 103.5 497.5 c 128,-1,16
 158 551 158 551 182 551 c 0,0,1
237.5 412.5 m 128,-1,18
 216 426 216 426 205 426 c 128,-1,19
 194 426 194 426 181.5 413 c 128,-1,20
 169 400 169 400 163 386 c 128,-1,21
 157 372 157 372 157 269.5 c 128,-1,22
 157 167 157 167 163 153.5 c 128,-1,23
 169 140 169 140 181.5 126.5 c 128,-1,24
 194 113 194 113 204.5 113 c 128,-1,25
 215 113 215 113 236.5 126.5 c 128,-1,26
 258 140 258 140 265 150 c 1,27,28
 273 167 273 167 273 270.5 c 128,-1,29
 273 374 273 374 266 386.5 c 128,-1,17
 259 399 259 399 237.5 412.5 c 128,-1,18
EndSplineSet
EndChar

StartChar: r
Encoding: 114 114 85
Width: 383
GlyphClass: 2
Flags: W
LayerCount: 2
Fore
SplineSet
197 0 m 1,0,-1
 65 0 l 1,1,-1
 65 345 l 2,2,3
 65 396 65 396 52.5 424.5 c 128,-1,4
 40 453 40 453 15 474 c 1,5,-1
 125 551 l 1,6,7
 161 521 161 521 180 481 c 1,8,9
 254 551 254 551 284 551 c 0,10,11
 304 551 304 551 345 514 c 128,-1,12
 386 477 386 477 393 433 c 1,13,-1
 286 356 l 1,14,15
 285 380 285 380 274.5 403 c 128,-1,16
 264 426 264 426 256 426 c 0,17,18
 239 426 239 426 197 384 c 1,19,-1
 197 0 l 1,0,-1
EndSplineSet
EndChar

StartChar: s
Encoding: 115 115 86
Width: 407
GlyphClass: 2
Flags: W
LayerCount: 2
Fore
SplineSet
387 162 m 0,0,1
 387 131 387 131 310 59.5 c 128,-1,2
 233 -12 233 -12 195.5 -12 c 128,-1,3
 158 -12 158 -12 102.5 25 c 128,-1,4
 47 62 47 62 20 112 c 1,5,-1
 123 183 l 1,6,7
 173 113 173 113 196 113 c 0,8,9
 213 113 213 113 238 130 c 128,-1,10
 263 147 263 147 263 162 c 0,11,12
 263 166 263 166 239 179.5 c 128,-1,13
 215 193 215 193 180.5 213.5 c 128,-1,14
 146 234 146 234 112 259.5 c 128,-1,15
 78 285 78 285 54 322 c 128,-1,16
 30 359 30 359 30 397 c 128,-1,17
 30 435 30 435 98 493 c 128,-1,18
 166 551 166 551 202.5 551 c 128,-1,19
 239 551 239 551 294.5 514 c 128,-1,20
 350 477 350 477 377 427 c 1,21,-1
 274 356 l 1,22,23
 224 426 224 426 201 426 c 0,24,25
 189 426 189 426 171.5 412.5 c 128,-1,26
 154 399 154 399 154 388 c 128,-1,27
 154 377 154 377 190.5 354 c 128,-1,28
 227 331 227 331 270.5 306.5 c 128,-1,29
 314 282 314 282 350.5 242.5 c 128,-1,30
 387 203 387 203 387 162 c 0,0,1
EndSplineSet
EndChar

StartChar: t
Encoding: 116 116 87
Width: 342
GlyphClass: 2
Flags: W
LayerCount: 2
Fore
SplineSet
197 434 m 1,0,-1
 197 213 l 2,1,2
 197 166 197 166 229 127 c 128,-1,3
 261 88 261 88 317 65 c 1,4,-1
 207 -12 l 1,5,6
 147 16 147 16 106 65.5 c 128,-1,7
 65 115 65 115 65 170 c 2,8,-1
 65 434 l 1,9,-1
 15 434 l 1,10,-1
 15 509 l 1,11,-1
 65 521 l 1,12,13
 63 570 63 570 53 598.5 c 128,-1,14
 43 627 43 627 15 654 c 1,15,-1
 125 731 l 1,16,17
 197 674 197 674 197 569 c 2,18,-1
 197 539 l 1,19,-1
 309 539 l 1,20,-1
 309 434 l 1,21,-1
 197 434 l 1,0,-1
EndSplineSet
EndChar

StartChar: u
Encoding: 117 117 88
Width: 463
GlyphClass: 2
Flags: W
LayerCount: 2
Fore
SplineSet
40 539 m 1,0,-1
 172 539 l 1,1,-1
 172 167 l 2,2,3
 172 150 172 150 188 131.5 c 128,-1,4
 204 113 204 113 218 113 c 128,-1,5
 232 113 232 113 276 154 c 1,6,-1
 276 539 l 1,7,-1
 408 539 l 1,8,-1
 408 0 l 1,9,-1
 306 0 l 1,10,-1
 294 59 l 1,11,12
 219 -12 219 -12 189 -12 c 128,-1,13
 159 -12 159 -12 99.5 43.5 c 128,-1,14
 40 99 40 99 40 153 c 2,15,-1
 40 539 l 1,0,-1
EndSplineSet
EndChar

StartChar: v
Encoding: 118 118 89
Width: 454
GlyphClass: 2
Flags: W
LayerCount: 2
Fore
SplineSet
420 389 m 2,0,-1
 420 303 l 2,1,2
 420 183 420 183 407 154 c 128,-1,3
 394 125 394 125 326.5 56.5 c 128,-1,4
 259 -12 259 -12 227 -12 c 128,-1,5
 195 -12 195 -12 127 56.5 c 128,-1,6
 59 125 59 125 46.5 155 c 128,-1,7
 34 185 34 185 34 303 c 2,8,-1
 34 539 l 1,9,-1
 166 539 l 1,10,-1
 166 303 l 2,11,12
 166 198 166 198 173.5 179.5 c 128,-1,13
 181 161 181 161 198.5 142 c 128,-1,14
 216 123 216 123 227 123 c 128,-1,15
 238 123 238 123 255.5 142 c 128,-1,16
 273 161 273 161 280.5 179.5 c 128,-1,17
 288 198 288 198 288 303 c 2,18,-1
 288 346 l 2,19,20
 288 397 288 397 276 425 c 128,-1,21
 264 453 264 453 238 474 c 1,22,-1
 348 551 l 1,23,24
 420 494 420 494 420 389 c 2,0,-1
EndSplineSet
EndChar

StartChar: w
Encoding: 119 119 90
Width: 668
GlyphClass: 2
Flags: W
LayerCount: 2
Fore
SplineSet
634 389 m 2,0,-1
 634 303 l 2,1,2
 634 183 634 183 621.5 154 c 128,-1,3
 609 125 609 125 545 56.5 c 128,-1,4
 481 -12 481 -12 451 -12 c 0,5,6
 415 -12 415 -12 334 101 c 1,7,8
 253 -12 253 -12 217 -12 c 0,9,10
 187 -12 187 -12 122.5 57 c 128,-1,11
 58 126 58 126 46 157 c 128,-1,12
 34 188 34 188 34 303 c 2,13,-1
 34 539 l 1,14,-1
 166 539 l 1,15,-1
 166 303 l 2,16,17
 166 198 166 198 173 179 c 128,-1,18
 180 160 180 160 194 141.5 c 128,-1,19
 208 123 208 123 217 123 c 128,-1,20
 226 123 226 123 239.5 141.5 c 128,-1,21
 253 160 253 160 260.5 178 c 128,-1,22
 268 196 268 196 268 267 c 2,23,-1
 268 539 l 1,24,-1
 400 539 l 1,25,-1
 400 303 l 2,26,27
 400 198 400 198 407 179 c 128,-1,28
 414 160 414 160 428 141.5 c 128,-1,29
 442 123 442 123 451 123 c 128,-1,30
 460 123 460 123 473.5 141.5 c 128,-1,31
 487 160 487 160 494.5 178 c 128,-1,32
 502 196 502 196 502 303 c 2,33,-1
 502 346 l 2,34,35
 502 432 502 432 462 474 c 1,36,-1
 562 551 l 1,37,38
 634 494 634 494 634 389 c 2,0,-1
EndSplineSet
EndChar

StartChar: x
Encoding: 120 120 91
Width: 456
GlyphClass: 2
Flags: W
LayerCount: 2
Fore
SplineSet
167 0 m 1,0,-1
 35 0 l 1,1,-1
 35 51 l 2,2,3
 35 147 35 147 48.5 182 c 128,-1,4
 62 217 62 217 136 293 c 1,5,6
 68 371 68 371 54 405 c 128,-1,7
 40 439 40 439 40 518 c 2,8,-1
 40 539 l 1,9,-1
 172 539 l 1,10,-1
 172 518 l 2,11,12
 172 463 172 463 180 440.5 c 128,-1,13
 188 418 188 418 205 388 c 128,-1,14
 222 358 222 358 228 358 c 128,-1,15
 234 358 234 358 251 388 c 128,-1,16
 268 418 268 418 276 440.5 c 128,-1,17
 284 463 284 463 284 518 c 2,18,-1
 284 539 l 1,19,-1
 416 539 l 1,20,-1
 416 518 l 2,21,22
 416 439 416 439 405 413 c 0,23,24
 383 365 383 365 319 293 c 1,25,26
 350 262 350 262 376.5 227.5 c 128,-1,27
 403 193 403 193 412 170 c 128,-1,28
 421 147 421 147 421 51 c 2,29,-1
 421 0 l 1,30,-1
 289 0 l 1,31,-1
 289 51 l 2,32,33
 289 126 289 126 281 147 c 0,34,35
 274 168 274 168 254.5 195.5 c 128,-1,36
 235 223 235 223 227.5 223 c 128,-1,37
 220 223 220 223 201 195 c 128,-1,38
 182 167 182 167 174.5 146.5 c 128,-1,39
 167 126 167 126 167 51 c 2,40,-1
 167 0 l 1,0,-1
EndSplineSet
EndChar

StartChar: y
Encoding: 121 121 92
Width: 488
GlyphClass: 2
Flags: W
LayerCount: 2
Fore
SplineSet
301 539 m 1,0,-1
 433 539 l 1,1,-1
 433 33 l 2,2,3
 433 -86 433 -86 418 -115 c 128,-1,4
 403 -144 403 -144 339.5 -197 c 128,-1,5
 276 -250 276 -250 243 -250 c 128,-1,6
 210 -250 210 -250 158 -215.5 c 128,-1,7
 106 -181 106 -181 80 -136 c 1,8,-1
 183 -65 l 1,9,-1
 194 -78 l 1,10,11
 230 -125 230 -125 243.5 -125 c 128,-1,12
 257 -125 257 -125 272.5 -112 c 128,-1,13
 288 -99 288 -99 294.5 -86 c 128,-1,14
 301 -73 301 -73 301 8 c 2,15,-1
 301 62 l 1,16,17
 245 8 245 8 217.5 8 c 128,-1,18
 190 8 190 8 127.5 63.5 c 128,-1,19
 65 119 65 119 65 173 c 2,20,-1
 65 346 l 2,21,22
 65 397 65 397 53 425 c 128,-1,23
 41 453 41 453 15 474 c 1,24,-1
 125 551 l 1,25,26
 197 494 197 494 197 389 c 2,27,-1
 197 187 l 2,28,29
 197 170 197 170 216 151.5 c 128,-1,30
 235 133 235 133 249 133 c 128,-1,31
 263 133 263 133 301 174 c 1,32,-1
 301 539 l 1,0,-1
EndSplineSet
EndChar

StartChar: z
Encoding: 122 122 93
Width: 416
GlyphClass: 2
Flags: W
LayerCount: 2
Fore
SplineSet
30 434 m 1,0,-1
 30 539 l 1,1,-1
 382 539 l 1,2,-1
 382 468 l 1,3,-1
 168 113 l 1,4,-1
 240 113 l 2,5,6
 293 113 293 113 338 153 c 1,7,-1
 406 72 l 1,8,9
 380 37 380 37 336 18.5 c 128,-1,10
 292 0 292 0 247 0 c 2,11,-1
 20 0 l 1,12,-1
 20 85 l 1,13,-1
 223 434 l 1,14,-1
 30 434 l 1,0,-1
EndSplineSet
EndChar

StartChar: braceleft
Encoding: 123 123 94
Width: 412
GlyphClass: 2
Flags: W
LayerCount: 2
Fore
SplineSet
255 88 m 2,0,-1
 255 -25 l 2,1,2
 255 -82 255 -82 271.5 -105.5 c 128,-1,3
 288 -129 288 -129 357 -171 c 1,4,-1
 246 -250 l 1,5,6
 165 -186 165 -186 135 -139.5 c 128,-1,7
 105 -93 105 -93 105 -15 c 2,8,-1
 105 100 l 2,9,10
 105 151 105 151 91 172 c 128,-1,11
 77 193 77 193 35 222 c 1,12,-1
 35 278 l 1,13,14
 77 307 77 307 91 328 c 128,-1,15
 105 349 105 349 105 400 c 2,16,-1
 105 515 l 2,17,18
 105 593 105 593 135 639.5 c 128,-1,19
 165 686 165 686 246 750 c 1,20,-1
 357 671 l 1,21,22
 288 629 288 629 271.5 605.5 c 128,-1,23
 255 582 255 582 255 525 c 2,24,-1
 255 412 l 2,25,26
 255 312 255 312 157 250 c 1,27,28
 255 188 255 188 255 88 c 2,0,-1
EndSplineSet
EndChar

StartChar: bar
Encoding: 124 124 95
Width: 200
GlyphClass: 2
Flags: W
LayerCount: 2
Fore
SplineSet
55 -250 m 1,0,-1
 55 750 l 1,1,-1
 145 750 l 1,2,-1
 145 -250 l 1,3,-1
 55 -250 l 1,0,-1
EndSplineSet
EndChar

StartChar: braceright
Encoding: 125 125 96
Width: 412
GlyphClass: 2
Flags: W
LayerCount: 2
Fore
SplineSet
157 412 m 2,0,-1
 157 525 l 2,1,2
 157 582 157 582 140.5 605.5 c 128,-1,3
 124 629 124 629 55 671 c 1,4,-1
 166 750 l 1,5,6
 247 686 247 686 277 639.5 c 128,-1,7
 307 593 307 593 307 515 c 2,8,-1
 307 400 l 2,9,10
 307 349 307 349 321 328 c 128,-1,11
 335 307 335 307 377 278 c 1,12,-1
 377 222 l 1,13,14
 335 193 335 193 321 172 c 128,-1,15
 307 151 307 151 307 100 c 2,16,-1
 307 -15 l 2,17,18
 307 -93 307 -93 277 -139.5 c 128,-1,19
 247 -186 247 -186 166 -250 c 1,20,-1
 55 -171 l 1,21,22
 124 -129 124 -129 140.5 -105.5 c 128,-1,23
 157 -82 157 -82 157 -25 c 2,24,-1
 157 88 l 2,25,26
 157 188 157 188 255 250 c 1,27,28
 157 312 157 312 157 412 c 2,0,-1
EndSplineSet
EndChar

StartChar: asciitilde
Encoding: 126 126 97
Width: 544
GlyphClass: 2
Flags: W
LayerCount: 2
Fore
SplineSet
420 263 m 128,-1,1
 351 214 351 214 338.5 214 c 128,-1,2
 326 214 326 214 275 242 c 128,-1,3
 224 270 224 270 209 274 c 1,4,5
 193 270 193 270 164 247 c 128,-1,6
 135 224 135 224 127 224 c 128,-1,7
 119 224 119 224 87 247.5 c 128,-1,8
 55 271 55 271 55 279 c 0,9,10
 55 296 55 296 124 345 c 128,-1,11
 193 394 193 394 209 394 c 0,12,13
 217 394 217 394 268.5 366 c 128,-1,14
 320 338 320 338 335 334 c 1,15,16
 351 338 351 338 380 361 c 128,-1,17
 409 384 409 384 417 384 c 128,-1,18
 425 384 425 384 457 360.5 c 128,-1,19
 489 337 489 337 489 329 c 0,20,0
 489 312 489 312 420 263 c 128,-1,1
EndSplineSet
EndChar

StartChar: exclamdown
Encoding: 161 161 99
Width: 297
GlyphClass: 2
Flags: W
LayerCount: 2
Fore
SplineSet
96 420.5 m 128,-1,1
 55 455 55 455 55 467.5 c 128,-1,2
 55 480 55 480 96 515.5 c 128,-1,3
 137 551 137 551 148.5 551 c 128,-1,4
 160 551 160 551 201 515.5 c 128,-1,5
 242 480 242 480 242 467.5 c 128,-1,6
 242 455 242 455 200.5 420.5 c 128,-1,7
 159 386 159 386 148 386 c 128,-1,0
 137 386 137 386 96 420.5 c 128,-1,1
82 -174 m 1,8,9
 90 127 90 127 90 186 c 128,-1,10
 90 245 90 245 75 283 c 1,11,-1
 170 350 l 1,12,13
 201 312 201 312 207 187 c 1,14,-1
 220 -174 l 1,15,-1
 82 -174 l 1,8,9
EndSplineSet
EndChar

StartChar: cent
Encoding: 162 162 100
Width: 423
GlyphClass: 2
Flags: W
LayerCount: 2
Fore
SplineSet
271 0 m 1,0,-1
 181 0 l 1,1,-1
 181 114 l 1,2,3
 141 136 141 136 97.5 174 c 128,-1,4
 54 212 54 212 44.5 231 c 128,-1,5
 35 250 35 250 35 351 c 128,-1,6
 35 452 35 452 46 470 c 1,7,8
 54 487 54 487 97.5 525 c 128,-1,9
 141 563 141 563 181 585 c 1,10,-1
 181 700 l 1,11,-1
 271 700 l 1,12,-1
 271 593 l 1,13,14
 311 578 311 578 351.5 546.5 c 128,-1,15
 392 515 392 515 413 478 c 1,16,-1
 300 400 l 1,17,-1
 292 411 l 1,18,19
 248 467 248 467 227 467 c 0,20,21
 217 467 217 467 201.5 454 c 128,-1,22
 186 441 186 441 179 428 c 128,-1,23
 172 415 172 415 172 350 c 128,-1,24
 172 285 172 285 179 272 c 128,-1,25
 186 259 186 259 201.5 246 c 128,-1,26
 217 233 217 233 225 233 c 128,-1,27
 233 233 233 233 242 238.5 c 128,-1,28
 251 244 251 244 260 254 c 1,29,30
 276 269 276 269 292 289 c 1,31,-1
 300 300 l 1,32,-1
 413 222 l 1,33,34
 392 185 392 185 351.5 153.5 c 128,-1,35
 311 122 311 122 271 107 c 1,36,-1
 271 0 l 1,0,-1
EndSplineSet
EndChar

StartChar: sterling
Encoding: 163 163 101
Width: 536
GlyphClass: 2
Flags: W
LayerCount: 2
Fore
SplineSet
55 220 m 1,0,-1
 55 330 l 1,1,-1
 141 330 l 1,2,3
 139 346 139 346 116 415 c 128,-1,4
 93 484 93 484 93 556 c 1,5,6
 97 573 97 573 166.5 624.5 c 128,-1,7
 236 676 236 676 252.5 676 c 128,-1,8
 269 676 269 676 339.5 626.5 c 128,-1,9
 410 577 410 577 442 537 c 1,10,-1
 328 471 l 1,11,12
 304 501 304 501 251 531 c 1,13,14
 251 476 251 476 266 431.5 c 128,-1,15
 281 387 281 387 281 341 c 2,16,-1
 281 330 l 1,17,-1
 392 330 l 1,18,-1
 392 220 l 1,19,-1
 281 220 l 1,20,-1
 281 120 l 1,21,-1
 481 120 l 1,22,-1
 481 0 l 1,23,-1
 55 0 l 1,24,-1
 55 120 l 1,25,-1
 143 120 l 1,26,-1
 143 220 l 1,27,-1
 55 220 l 1,0,-1
EndSplineSet
EndChar

StartChar: currency
Encoding: 164 164 102
Width: 630
GlyphClass: 2
Flags: W
LayerCount: 2
Fore
SplineSet
513 418 m 1,0,1
 570 348 570 348 570 299.5 c 128,-1,2
 570 251 570 251 513 181 c 1,3,4
 520 176 520 176 527.5 170 c 128,-1,5
 535 164 535 164 540.5 160 c 128,-1,6
 546 156 546 156 551.5 151.5 c 128,-1,7
 557 147 557 147 561 143.5 c 128,-1,8
 565 140 565 140 568 138 c 0,9,10
 575 133 575 133 575 130 c 0,11,12
 575 118 575 118 534.5 82 c 128,-1,13
 494 46 494 46 482.5 46 c 128,-1,14
 471 46 471 46 416 88 c 1,15,16
 356 45 356 45 314.5 45 c 128,-1,17
 273 45 273 45 213 88 c 1,18,19
 161 46 161 46 148.5 46 c 128,-1,20
 136 46 136 46 95.5 82 c 128,-1,21
 55 118 55 118 55 130 c 0,22,23
 55 136 55 136 116 181 c 1,24,25
 60 252 60 252 60 299 c 128,-1,26
 60 346 60 346 118 418 c 1,27,28
 55 467 55 467 55 470 c 0,29,30
 55 483 55 483 95 518.5 c 128,-1,31
 135 554 135 554 147 554 c 128,-1,32
 159 554 159 554 216 509 c 1,33,34
 276 552 276 552 316.5 552 c 128,-1,35
 357 552 357 552 415 510 c 1,36,37
 471 554 471 554 483 554 c 128,-1,38
 495 554 495 554 535 518.5 c 128,-1,39
 575 483 575 483 575 470 c 0,40,41
 575 466 575 466 513 418 c 1,0,1
391.5 212.5 m 128,-1,43
 438 263 438 263 438 299 c 128,-1,44
 438 335 438 335 391 386 c 128,-1,45
 344 437 344 437 316 437 c 128,-1,46
 288 437 288 437 240 385.5 c 128,-1,47
 192 334 192 334 192 298.5 c 128,-1,48
 192 263 192 263 238.5 212.5 c 128,-1,49
 285 162 285 162 315 162 c 128,-1,42
 345 162 345 162 391.5 212.5 c 128,-1,43
EndSplineSet
EndChar

StartChar: yen
Encoding: 165 165 103
Width: 509
GlyphClass: 2
Flags: W
LayerCount: 2
Fore
SplineSet
75 222 m 1,0,-1
 75 300 l 1,1,-1
 177 300 l 1,2,3
 140 332 140 332 105 376.5 c 128,-1,4
 70 421 70 421 57.5 446.5 c 128,-1,5
 45 472 45 472 45 551 c 2,6,-1
 45 664 l 1,7,-1
 195 664 l 1,8,-1
 195 551 l 2,9,10
 195 500 195 500 203.5 479 c 128,-1,11
 212 458 212 458 226.5 435.5 c 128,-1,12
 241 413 241 413 252 413 c 128,-1,13
 263 413 263 413 278.5 436.5 c 128,-1,14
 294 460 294 460 301.5 479 c 128,-1,15
 309 498 309 498 309 551 c 2,16,-1
 309 664 l 1,17,-1
 459 664 l 1,18,-1
 459 551 l 2,19,20
 459 473 459 473 446.5 447.5 c 128,-1,21
 434 422 434 422 398.5 377 c 128,-1,22
 363 332 363 332 327 300 c 1,23,-1
 429 300 l 1,24,-1
 429 222 l 1,25,-1
 327 222 l 1,26,-1
 327 182 l 1,27,-1
 429 182 l 1,28,-1
 429 104 l 1,29,-1
 327 104 l 1,30,-1
 327 0 l 1,31,-1
 177 0 l 1,32,-1
 177 104 l 1,33,-1
 75 104 l 1,34,-1
 75 182 l 1,35,-1
 177 182 l 1,36,-1
 177 222 l 1,37,-1
 75 222 l 1,0,-1
EndSplineSet
EndChar

StartChar: brokenbar
Encoding: 166 166 104
Width: 200
GlyphClass: 2
Flags: W
LayerCount: 2
Fore
SplineSet
55 750 m 1,0,-1
 145 750 l 1,1,-1
 145 396 l 1,2,-1
 55 333 l 1,3,-1
 55 750 l 1,0,-1
145 -250 m 1,4,-1
 55 -250 l 1,5,-1
 55 123 l 1,6,-1
 145 186 l 1,7,-1
 145 -250 l 1,4,-1
EndSplineSet
EndChar

StartChar: section
Encoding: 167 167 105
Width: 524
GlyphClass: 2
Flags: W
LayerCount: 2
Fore
SplineSet
353 26.5 m 128,-1,1
 295 -12 295 -12 261 -12 c 128,-1,2
 227 -12 227 -12 168.5 25 c 128,-1,3
 110 62 110 62 81 112 c 1,4,-1
 194 190 l 1,5,-1
 202 179 l 1,6,7
 246 123 246 123 267 123 c 0,8,9
 278 123 278 123 296 136.5 c 128,-1,10
 314 150 314 150 314 158 c 128,-1,11
 314 166 314 166 300 177 c 128,-1,12
 286 188 286 188 229 217.5 c 128,-1,13
 172 247 172 247 125.5 277.5 c 128,-1,14
 79 308 79 308 67 336 c 128,-1,15
 55 364 55 364 55 392.5 c 128,-1,16
 55 421 55 421 69 443 c 128,-1,17
 83 465 83 465 115 497 c 1,18,19
 75 537 75 537 75 571.5 c 128,-1,20
 75 606 75 606 86.5 629.5 c 128,-1,21
 98 653 98 653 161.5 701.5 c 128,-1,22
 225 750 225 750 261 750 c 128,-1,23
 297 750 297 750 355.5 713 c 128,-1,24
 414 676 414 676 443 626 c 1,25,-1
 330 548 l 1,26,-1
 322 559 l 1,27,28
 278 615 278 615 257 615 c 0,29,30
 246 615 246 615 228 605 c 128,-1,31
 210 595 210 595 210 589 c 128,-1,32
 210 583 210 583 223 571 c 128,-1,33
 236 559 236 559 290 530 c 0,34,35
 430 457 430 457 458 410 c 0,36,37
 469 391 469 391 469 347 c 128,-1,38
 469 303 469 303 457 286.5 c 128,-1,39
 445 270 445 270 414 241 c 1,40,41
 428 228 428 228 438.5 210 c 128,-1,42
 449 192 449 192 449 154 c 128,-1,43
 449 116 449 116 438 100 c 1,44,0
 411 65 411 65 353 26.5 c 128,-1,1
203 443 m 1,45,46
 180 411 180 411 180 398 c 128,-1,47
 180 385 180 385 190 375 c 1,48,49
 200 367 200 367 309 301 c 1,50,51
 344 334 344 334 344 358 c 0,52,53
 344 364 344 364 336 370 c 0,54,55
 305 394 305 394 203 443 c 1,45,46
EndSplineSet
EndChar

StartChar: dieresis
Encoding: 168 168 106
Width: 456
GlyphClass: 2
Flags: W
LayerCount: 2
Fore
SplineSet
203 685 m 128,-1,1
 203 675 203 675 170.5 647.5 c 128,-1,2
 138 620 138 620 129 620 c 128,-1,3
 120 620 120 620 87.5 647.5 c 128,-1,4
 55 675 55 675 55 685 c 128,-1,5
 55 695 55 695 88 722.5 c 128,-1,6
 121 750 121 750 129.5 750 c 128,-1,7
 138 750 138 750 170.5 722.5 c 128,-1,0
 203 695 203 695 203 685 c 128,-1,1
401 685 m 128,-1,9
 401 675 401 675 368.5 647.5 c 128,-1,10
 336 620 336 620 327 620 c 128,-1,11
 318 620 318 620 285.5 647.5 c 128,-1,12
 253 675 253 675 253 685 c 128,-1,13
 253 695 253 695 286 722.5 c 128,-1,14
 319 750 319 750 327.5 750 c 128,-1,15
 336 750 336 750 368.5 722.5 c 128,-1,8
 401 695 401 695 401 685 c 128,-1,9
EndSplineSet
EndChar

StartChar: copyright
Encoding: 169 169 107
Width: 664
GlyphClass: 2
Flags: W
LayerCount: 2
Fore
SplineSet
332 60 m 128,-1,1
 369 60 369 60 441.5 110.5 c 128,-1,2
 514 161 514 161 526.5 197.5 c 128,-1,3
 539 234 539 234 539 353.5 c 128,-1,4
 539 473 539 473 526 506.5 c 128,-1,5
 513 540 513 540 441 591 c 128,-1,6
 369 642 369 642 332 642 c 128,-1,7
 295 642 295 642 223 591 c 128,-1,8
 151 540 151 540 138 506.5 c 128,-1,9
 125 473 125 473 125 353.5 c 128,-1,10
 125 234 125 234 137.5 197.5 c 128,-1,11
 150 161 150 161 222.5 110.5 c 128,-1,0
 295 60 295 60 332 60 c 128,-1,1
332 -12 m 128,-1,13
 299 -12 299 -12 241 20 c 128,-1,14
 183 52 183 52 134.5 93 c 128,-1,15
 86 134 86 134 76 160 c 0,16,17
 55 216 55 216 55 353.5 c 128,-1,18
 55 491 55 491 76 541 c 0,19,20
 94 583 94 583 188 647.5 c 128,-1,21
 282 712 282 712 332 712 c 128,-1,22
 382 712 382 712 476 647.5 c 128,-1,23
 570 583 570 583 588 541 c 0,24,25
 609 491 609 491 609 353.5 c 128,-1,26
 609 216 609 216 588 160 c 0,27,28
 578 134 578 134 529.5 93 c 128,-1,29
 481 52 481 52 423 20 c 128,-1,12
 365 -12 365 -12 332 -12 c 128,-1,13
361 304 m 1,30,-1
 466 304 l 1,31,32
 466 249 466 249 460 237 c 0,33,34
 448 212 448 212 402 173 c 128,-1,35
 356 134 356 134 332 134 c 128,-1,36
 308 134 308 134 262 173 c 128,-1,37
 216 212 216 212 204 237 c 0,38,39
 198 250 198 250 198 316 c 2,40,-1
 198 386 l 2,41,42
 198 452 198 452 204 465 c 0,43,44
 216 490 216 490 262 529 c 128,-1,45
 308 568 308 568 332 568 c 128,-1,46
 356 568 356 568 401.5 529 c 128,-1,47
 447 490 447 490 460 465 c 0,48,49
 466 454 466 454 466 398 c 1,50,-1
 361 398 l 1,51,52
 361 434 361 434 349.5 449.5 c 128,-1,53
 338 465 338 465 332 465 c 0,54,55
 319 465 319 465 308 437 c 0,56,57
 303 424 303 424 303 386 c 2,58,-1
 303 316 l 2,59,60
 303 278 303 278 308 265 c 0,61,62
 320 237 320 237 332 237 c 0,63,64
 338 237 338 237 346 247 c 0,65,66
 361 266 361 266 361 304 c 1,30,-1
EndSplineSet
EndChar

StartChar: ordfeminine
Encoding: 170 170 108
Width: 396
GlyphClass: 2
Flags: W
LayerCount: 2
Fore
SplineSet
184 677 m 128,-1,1
 206 677 206 677 255 644.5 c 128,-1,2
 304 612 304 612 313 597 c 1,3,4
 320 579 320 579 320 513.5 c 128,-1,5
 320 448 320 448 323 430.5 c 128,-1,6
 326 413 326 413 351 396 c 1,7,-1
 277 340 l 1,8,9
 248 350 248 350 224 372 c 1,10,11
 190 340 190 340 172 340 c 128,-1,12
 154 340 154 340 110.5 372 c 128,-1,13
 67 404 67 404 61 418.5 c 128,-1,14
 55 433 55 433 55 508.5 c 128,-1,15
 55 584 55 584 61.5 598.5 c 128,-1,16
 68 613 68 613 115 645 c 128,-1,0
 162 677 162 677 184 677 c 128,-1,1
187 424 m 128,-1,18
 192 424 192 424 201.5 428.5 c 128,-1,19
 211 433 211 433 213 436 c 1,20,21
 218 453 218 453 218 502 c 128,-1,22
 218 551 218 551 215 564 c 128,-1,23
 212 577 212 577 202 585 c 128,-1,24
 192 593 192 593 187 593 c 128,-1,25
 182 593 182 593 172 585 c 128,-1,26
 162 577 162 577 159 564 c 128,-1,27
 156 551 156 551 156 506 c 128,-1,28
 156 461 156 461 159.5 451 c 128,-1,29
 163 441 163 441 172.5 432.5 c 128,-1,17
 182 424 182 424 187 424 c 128,-1,18
EndSplineSet
EndChar

StartChar: guillemotleft
Encoding: 171 171 109
Width: 560
GlyphClass: 2
Flags: W
LayerCount: 2
Fore
SplineSet
305 110 m 0,0,1
 305 105 305 105 286 90.5 c 128,-1,2
 267 76 267 76 260 76 c 128,-1,3
 253 76 253 76 202.5 124 c 128,-1,4
 152 172 152 172 103.5 227.5 c 128,-1,5
 55 283 55 283 55 300 c 128,-1,6
 55 317 55 317 103.5 372.5 c 128,-1,7
 152 428 152 428 202.5 476 c 128,-1,8
 253 524 253 524 260 524 c 128,-1,9
 267 524 267 524 286 509.5 c 128,-1,10
 305 495 305 495 305 490 c 0,11,12
 305 474 305 474 195 300 c 1,13,14
 305 126 305 126 305 110 c 0,0,1
505 110 m 0,15,16
 505 105 505 105 486 90.5 c 128,-1,17
 467 76 467 76 460 76 c 128,-1,18
 453 76 453 76 402.5 124 c 128,-1,19
 352 172 352 172 303.5 227.5 c 128,-1,20
 255 283 255 283 255 300 c 128,-1,21
 255 317 255 317 303.5 372.5 c 128,-1,22
 352 428 352 428 402.5 476 c 128,-1,23
 453 524 453 524 460 524 c 128,-1,24
 467 524 467 524 486 509.5 c 128,-1,25
 505 495 505 495 505 490 c 0,26,27
 505 474 505 474 395 300 c 1,28,29
 505 126 505 126 505 110 c 0,15,16
EndSplineSet
EndChar

StartChar: logicalnot
Encoding: 172 172 110
Width: 583
GlyphClass: 2
Flags: W
LayerCount: 2
Fore
SplineSet
55 241 m 1,0,-1
 55 359 l 1,1,-1
 528 359 l 1,2,-1
 528 169 l 1,3,-1
 386 130 l 1,4,-1
 386 241 l 1,5,-1
 55 241 l 1,0,-1
EndSplineSet
EndChar

StartChar: uni00AD
Encoding: 173 173 111
Width: 363
GlyphClass: 2
Flags: W
LayerCount: 2
Fore
SplineSet
55 260 m 1,0,-1
 55 340 l 1,1,-1
 308 340 l 1,2,-1
 308 260 l 1,3,-1
 55 260 l 1,0,-1
EndSplineSet
EndChar

StartChar: registered
Encoding: 174 174 112
Width: 833
GlyphClass: 2
Flags: W
LayerCount: 2
Fore
SplineSet
332 -12 m 128,-1,1
 299 -12 299 -12 241 20 c 128,-1,2
 183 52 183 52 134.5 93 c 128,-1,3
 86 134 86 134 76 160 c 0,4,5
 55 216 55 216 55 353.5 c 128,-1,6
 55 491 55 491 76 541 c 0,7,8
 94 583 94 583 188 647.5 c 128,-1,9
 282 712 282 712 332 712 c 128,-1,10
 382 712 382 712 476 647.5 c 128,-1,11
 570 583 570 583 588 541 c 0,12,13
 609 491 609 491 609 353.5 c 128,-1,14
 609 216 609 216 588 160 c 0,15,16
 578 134 578 134 529.5 93 c 128,-1,17
 481 52 481 52 423 20 c 128,-1,0
 365 -12 365 -12 332 -12 c 128,-1,1
332 60 m 128,-1,19
 369 60 369 60 441.5 110.5 c 128,-1,20
 514 161 514 161 526.5 197.5 c 128,-1,21
 539 234 539 234 539 353.5 c 128,-1,22
 539 473 539 473 526 506.5 c 128,-1,23
 513 540 513 540 441 591 c 128,-1,24
 369 642 369 642 332 642 c 128,-1,25
 295 642 295 642 223 591 c 128,-1,26
 151 540 151 540 138 506.5 c 128,-1,27
 125 473 125 473 125 353.5 c 128,-1,28
 125 234 125 234 137.5 197.5 c 128,-1,29
 150 161 150 161 222.5 110.5 c 128,-1,18
 295 60 295 60 332 60 c 128,-1,19
284 537 m 1,30,31
 323 570 323 570 339.5 570 c 128,-1,32
 356 570 356 570 395.5 539 c 128,-1,33
 435 508 435 508 448 491 c 1,34,35
 454 481 454 481 454 451.5 c 128,-1,36
 454 422 454 422 448 412 c 1,37,38
 430 390 430 390 399 367 c 1,39,40
 443 333 443 333 451.5 317 c 128,-1,41
 460 301 460 301 466.5 237.5 c 128,-1,42
 473 174 473 174 473 143 c 1,43,-1
 368 143 l 1,44,45
 368 170 368 170 362 227.5 c 128,-1,46
 356 285 356 285 351 294 c 256,47,48
 346 303 346 303 336 315 c 1,49,-1
 309 315 l 1,50,-1
 309 143 l 1,51,-1
 204 143 l 1,52,-1
 204 400 l 2,53,54
 204 448 204 448 199 467.5 c 128,-1,55
 194 487 194 487 178 515 c 1,56,-1
 257 571 l 1,57,58
 272 561 272 561 284 537 c 1,30,31
345 424 m 1,59,-1
 349 447 l 1,60,61
 346 447 346 447 345 446 c 1,62,63
 334 468 334 468 326.5 468 c 128,-1,64
 319 468 319 468 307 451 c 1,65,66
 309 441 309 441 309 434 c 2,67,-1
 309 402 l 1,68,-1
 325 402 l 2,69,70
 336 402 336 402 345 424 c 1,59,-1
EndSplineSet
EndChar

StartChar: macron
Encoding: 175 175 113
Width: 455
GlyphClass: 2
Flags: W
LayerCount: 2
Fore
SplineSet
65 608 m 1,0,-1
 65 701 l 1,1,-1
 390 701 l 1,2,-1
 390 608 l 1,3,-1
 65 608 l 1,0,-1
EndSplineSet
EndChar

StartChar: degree
Encoding: 176 176 114
Width: 387
GlyphClass: 2
Flags: W
LayerCount: 2
Fore
SplineSet
229.5 504 m 128,-1,1
 249 527 249 527 249 546.5 c 128,-1,2
 249 566 249 566 229 589 c 128,-1,3
 209 612 209 612 194 612 c 128,-1,4
 179 612 179 612 159 588.5 c 128,-1,5
 139 565 139 565 139 545.5 c 128,-1,6
 139 526 139 526 158.5 503.5 c 128,-1,7
 178 481 178 481 194 481 c 128,-1,0
 210 481 210 481 229.5 504 c 128,-1,1
352 547 m 128,-1,9
 352 503 352 503 294 441 c 128,-1,10
 236 379 236 379 193 379 c 128,-1,11
 150 379 150 379 92.5 440.5 c 128,-1,12
 35 502 35 502 35 546.5 c 128,-1,13
 35 591 35 591 93.5 651.5 c 128,-1,14
 152 712 152 712 194 712 c 128,-1,15
 236 712 236 712 294 651.5 c 128,-1,8
 352 591 352 591 352 547 c 128,-1,9
EndSplineSet
EndChar

StartChar: plusminus
Encoding: 177 177 115
Width: 494
GlyphClass: 2
Flags: W
LayerCount: 2
Fore
SplineSet
55 314 m 1,0,-1
 55 432 l 1,1,-1
 182 432 l 1,2,-1
 182 525 l 1,3,-1
 312 525 l 1,4,-1
 312 432 l 1,5,-1
 439 432 l 1,6,-1
 439 314 l 1,7,-1
 312 314 l 1,8,-1
 312 221 l 1,9,-1
 182 221 l 1,10,-1
 182 314 l 1,11,-1
 55 314 l 1,0,-1
55 76 m 1,12,-1
 55 194 l 1,13,-1
 439 194 l 1,14,-1
 439 76 l 1,15,-1
 55 76 l 1,12,-1
EndSplineSet
EndChar

StartChar: twosuperior
Encoding: 178 178 116
Width: 265
GlyphClass: 2
Flags: W
LayerCount: 2
Fore
SplineSet
139 527 m 1,0,1
 144 532 144 532 144 562.5 c 128,-1,2
 144 593 144 593 133 593 c 0,3,4
 131 593 131 593 128 589 c 0,5,6
 122 581 122 581 122 542 c 1,7,-1
 18 542 l 1,8,9
 18 595 18 595 24 612 c 0,10,11
 30 626 30 626 72 651 c 128,-1,12
 114 676 114 676 134 676 c 128,-1,13
 154 676 154 676 196 650 c 128,-1,14
 238 624 238 624 244.5 610 c 128,-1,15
 251 596 251 596 251 547 c 128,-1,16
 251 498 251 498 234 483.5 c 128,-1,17
 217 469 217 469 128 430 c 1,18,19
 114 422 114 422 114 412 c 1,20,-1
 248 412 l 1,21,-1
 248 337 l 1,22,-1
 15 337 l 1,23,-1
 15 410 l 2,24,25
 15 450 15 450 23.5 462.5 c 128,-1,26
 32 475 32 475 81.5 498 c 128,-1,27
 131 521 131 521 139 527 c 1,0,1
EndSplineSet
EndChar

StartChar: threesuperior
Encoding: 179 179 117
Width: 263
GlyphClass: 2
Flags: W
LayerCount: 2
Fore
SplineSet
103 538 m 1,0,1
 146 541 146 541 146 566 c 0,2,3
 146 575 146 575 142 584 c 128,-1,4
 138 593 138 593 130.5 593 c 128,-1,5
 123 593 123 593 117 581 c 1,6,7
 114 572 114 572 114 562 c 1,8,-1
 15 562 l 1,9,10
 15 603 15 603 23 615 c 128,-1,11
 31 627 31 627 71.5 651.5 c 128,-1,12
 112 676 112 676 132 676 c 128,-1,13
 152 676 152 676 196 650 c 128,-1,14
 240 624 240 624 245 610 c 0,15,16
 248 602 248 602 248 569 c 128,-1,17
 248 536 248 536 242 532 c 1,18,19
 235 522 235 522 218 512 c 1,20,21
 240 498 240 498 246.5 489 c 128,-1,22
 253 480 253 480 253 446.5 c 128,-1,23
 253 413 253 413 247 398 c 128,-1,24
 241 383 241 383 196 357.5 c 128,-1,25
 151 332 151 332 130 332 c 128,-1,26
 109 332 109 332 67.5 356 c 128,-1,27
 26 380 26 380 18 392 c 128,-1,28
 10 404 10 404 10 446 c 1,29,-1
 109 446 l 1,30,31
 109 429 109 429 117.5 421.5 c 128,-1,32
 126 414 126 414 130 414 c 128,-1,33
 134 414 134 414 141 420 c 0,34,35
 151 429 151 429 151 446 c 128,-1,36
 151 463 151 463 144 470.5 c 128,-1,37
 137 478 137 478 103 485 c 1,38,-1
 103 538 l 1,0,1
EndSplineSet
EndChar

StartChar: acute
Encoding: 180 180 118
Width: 298
GlyphClass: 2
Flags: W
LayerCount: 2
Fore
SplineSet
243 685 m 0,0,1
 243 671 243 671 171 625.5 c 128,-1,2
 99 580 99 580 92 580 c 128,-1,3
 85 580 85 580 70 594.5 c 128,-1,4
 55 609 55 609 55 615.5 c 128,-1,5
 55 622 55 622 107 686 c 128,-1,6
 159 750 159 750 168.5 750 c 128,-1,7
 178 750 178 750 210.5 722.5 c 128,-1,8
 243 695 243 695 243 685 c 0,0,1
EndSplineSet
EndChar

StartChar: mu
Encoding: 181 181 119
AltUni2: 0003bc.ffffffff.0
Width: 513
GlyphClass: 2
Flags: W
LayerCount: 2
Fore
SplineSet
316 539 m 1,0,-1
 448 539 l 1,1,-1
 448 0 l 1,2,-1
 346 0 l 1,3,-1
 334 59 l 1,4,5
 259 -12 259 -12 232.5 -12 c 128,-1,6
 206 -12 206 -12 171 18 c 1,7,-1
 171 -82 l 2,8,9
 171 -130 171 -130 211 -172 c 1,10,-1
 101 -250 l 1,11,12
 65 -209 65 -209 65 -119 c 2,13,-1
 65 346 l 2,14,15
 65 397 65 397 53 425 c 128,-1,16
 41 453 41 453 15 474 c 1,17,-1
 125 551 l 1,18,19
 197 494 197 494 197 389 c 2,20,-1
 197 167 l 2,21,22
 197 150 197 150 218.5 131.5 c 128,-1,23
 240 113 240 113 256 113 c 128,-1,24
 272 113 272 113 316 154 c 1,25,-1
 316 539 l 1,0,-1
EndSplineSet
EndChar

StartChar: paragraph
Encoding: 182 182 120
Width: 634
GlyphClass: 2
Flags: W
LayerCount: 2
Fore
SplineSet
267 159 m 2,0,-1
 267 359 l 1,1,-1
 241 359 l 2,2,3
 194 359 194 359 124.5 419.5 c 128,-1,4
 55 480 55 480 55 530 c 128,-1,5
 55 580 55 580 124 640 c 128,-1,6
 193 700 193 700 241 700 c 2,7,-1
 579 700 l 1,8,-1
 579 568 l 1,9,-1
 514 568 l 1,10,11
 517 547 517 547 517 525 c 2,12,-1
 517 0 l 1,13,-1
 427 0 l 1,14,-1
 427 491 l 2,15,16
 427 544 427 544 417 568 c 1,17,-1
 344 568 l 1,18,19
 357 511 357 511 357 452 c 2,20,-1
 357 125 l 2,21,22
 357 74 357 74 343 37 c 128,-1,23
 329 0 329 0 310 -12 c 1,24,-1
 231 44 l 1,25,26
 253 71 253 71 260 90.5 c 128,-1,27
 267 110 267 110 267 159 c 2,0,-1
EndSplineSet
EndChar

StartChar: periodcentered
Encoding: 183 183 121
Width: 272
GlyphClass: 2
Flags: W
LayerCount: 2
Fore
SplineSet
194 322 m 128,-1,1
 233 289 233 289 233 277.5 c 128,-1,2
 233 266 233 266 194 232 c 128,-1,3
 155 198 155 198 144 198 c 128,-1,4
 133 198 133 198 94 232 c 128,-1,5
 55 266 55 266 55 277.5 c 128,-1,6
 55 289 55 289 94.5 322 c 128,-1,7
 134 355 134 355 144.5 355 c 128,-1,0
 155 355 155 355 194 322 c 128,-1,1
EndSplineSet
EndChar

StartChar: cedilla
Encoding: 184 184 122
Width: 280
GlyphClass: 2
Flags: W
LayerCount: 2
Fore
SplineSet
55 -86 m 0,0,1
 55 -75 55 -75 100 -13.5 c 128,-1,2
 145 48 145 48 150 48 c 0,3,4
 157 48 157 48 176 37.5 c 128,-1,5
 195 27 195 27 195 24 c 0,6,7
 195 14 195 14 135 -56 c 1,8,9
 164 -83 164 -83 180 -97 c 128,-1,10
 196 -111 196 -111 206 -120 c 0,11,12
 225 -139 225 -139 225 -147 c 128,-1,13
 225 -155 225 -155 165.5 -202.5 c 128,-1,14
 106 -250 106 -250 99.5 -250 c 128,-1,15
 93 -250 93 -250 74 -231 c 128,-1,16
 55 -212 55 -212 55 -206 c 128,-1,17
 55 -200 55 -200 115 -146 c 1,18,19
 55 -92 55 -92 55 -86 c 0,0,1
EndSplineSet
EndChar

StartChar: onesuperior
Encoding: 185 185 123
Width: 308
GlyphClass: 2
Flags: W
LayerCount: 2
Fore
SplineSet
45 412 m 1,0,-1
 130 412 l 1,1,-1
 130 568 l 1,2,3
 108 541 108 541 97 515 c 1,4,-1
 20 569 l 1,5,6
 39 599 39 599 84 637.5 c 128,-1,7
 129 676 129 676 139 676 c 128,-1,8
 149 676 149 676 190.5 648 c 128,-1,9
 232 620 232 620 234 611 c 1,10,-1
 234 412 l 1,11,-1
 263 412 l 1,12,-1
 263 337 l 1,13,-1
 45 337 l 1,14,-1
 45 412 l 1,0,-1
EndSplineSet
EndChar

StartChar: ordmasculine
Encoding: 186 186 124
Width: 368
GlyphClass: 2
Flags: W
LayerCount: 2
Fore
SplineSet
253.5 371.5 m 128,-1,1
 207 340 207 340 184.5 340 c 128,-1,2
 162 340 162 340 115 372 c 128,-1,3
 68 404 68 404 61.5 418.5 c 128,-1,4
 55 433 55 433 55 508.5 c 128,-1,5
 55 584 55 584 61.5 598.5 c 128,-1,6
 68 613 68 613 115 645 c 128,-1,7
 162 677 162 677 184.5 677 c 128,-1,8
 207 677 207 677 253.5 645.5 c 128,-1,9
 300 614 300 614 306.5 599 c 128,-1,10
 313 584 313 584 313 508.5 c 128,-1,11
 313 433 313 433 306.5 418 c 128,-1,0
 300 403 300 403 253.5 371.5 c 128,-1,1
184 424 m 128,-1,13
 189 424 189 424 197 432 c 128,-1,14
 205 440 205 440 207 446 c 0,15,16
 212 468 212 468 212 511 c 128,-1,17
 212 554 212 554 208.5 565.5 c 128,-1,18
 205 577 205 577 197 585 c 128,-1,19
 189 593 189 593 184 593 c 128,-1,20
 179 593 179 593 171 585 c 128,-1,21
 163 577 163 577 159.5 564 c 128,-1,22
 156 551 156 551 156 506 c 128,-1,23
 156 461 156 461 159.5 450.5 c 128,-1,24
 163 440 163 440 171 432 c 128,-1,12
 179 424 179 424 184 424 c 128,-1,13
EndSplineSet
EndChar

StartChar: guillemotright
Encoding: 187 187 125
Width: 560
GlyphClass: 2
Flags: W
LayerCount: 2
Fore
SplineSet
255 490 m 0,0,1
 255 495 255 495 274 509.5 c 128,-1,2
 293 524 293 524 300 524 c 128,-1,3
 307 524 307 524 357.5 476 c 128,-1,4
 408 428 408 428 456.5 372.5 c 128,-1,5
 505 317 505 317 505 300 c 128,-1,6
 505 283 505 283 456.5 227.5 c 128,-1,7
 408 172 408 172 357.5 124 c 128,-1,8
 307 76 307 76 300 76 c 128,-1,9
 293 76 293 76 274 90.5 c 128,-1,10
 255 105 255 105 255 110 c 0,11,12
 255 126 255 126 365 300 c 1,13,14
 255 474 255 474 255 490 c 0,0,1
55 490 m 0,15,16
 55 495 55 495 74 509.5 c 128,-1,17
 93 524 93 524 100 524 c 128,-1,18
 107 524 107 524 157.5 476 c 128,-1,19
 208 428 208 428 256.5 372.5 c 128,-1,20
 305 317 305 317 305 300 c 128,-1,21
 305 283 305 283 256.5 227.5 c 128,-1,22
 208 172 208 172 157.5 124 c 128,-1,23
 107 76 107 76 100 76 c 128,-1,24
 93 76 93 76 74 90.5 c 128,-1,25
 55 105 55 105 55 110 c 0,26,27
 55 126 55 126 165 300 c 1,28,29
 55 474 55 474 55 490 c 0,15,16
EndSplineSet
EndChar

StartChar: onequarter
Encoding: 188 188 126
Width: 730
GlyphClass: 2
Flags: W
LayerCount: 2
Fore
SplineSet
665 0 m 1,0,-1
 561 0 l 1,1,-1
 561 61 l 1,2,-1
 497 61 l 1,3,-1
 420 115 l 1,4,5
 433 159 433 159 461.5 213.5 c 128,-1,6
 490 268 490 268 514.5 303 c 128,-1,7
 539 338 539 338 546 338 c 0,8,9
 556 338 556 338 607 304.5 c 128,-1,10
 658 271 658 271 665 260 c 1,11,-1
 665 141 l 1,12,-1
 685 141 l 1,13,-1
 685 61 l 1,14,-1
 665 61 l 1,15,-1
 665 0 l 1,0,-1
561 141 m 1,16,-1
 561 225 l 1,17,18
 534 175 534 175 521 141 c 1,19,-1
 561 141 l 1,16,-1
634 616 m 1,20,-1
 254 -12 l 1,21,22
 242 -12 242 -12 210 9 c 128,-1,23
 178 30 178 30 164 48 c 1,24,-1
 544 676 l 1,25,26
 556 676 556 676 588 655 c 128,-1,27
 620 634 620 634 634 616 c 1,20,-1
70 412 m 1,28,-1
 155 412 l 1,29,-1
 155 568 l 1,30,31
 133 541 133 541 122 515 c 1,32,-1
 45 569 l 1,33,34
 64 599 64 599 109 637.5 c 128,-1,35
 154 676 154 676 164 676 c 128,-1,36
 174 676 174 676 215.5 648 c 128,-1,37
 257 620 257 620 259 611 c 1,38,-1
 259 412 l 1,39,-1
 288 412 l 1,40,-1
 288 337 l 1,41,-1
 70 337 l 1,42,-1
 70 412 l 1,28,-1
EndSplineSet
EndChar

StartChar: onehalf
Encoding: 189 189 127
Width: 750
GlyphClass: 2
Flags: W
LayerCount: 2
Fore
SplineSet
70 412 m 1,0,-1
 155 412 l 1,1,-1
 155 568 l 1,2,3
 133 541 133 541 122 515 c 1,4,-1
 45 569 l 1,5,6
 64 599 64 599 109 637.5 c 128,-1,7
 154 676 154 676 164 676 c 128,-1,8
 174 676 174 676 215.5 648 c 128,-1,9
 257 620 257 620 259 611 c 1,10,-1
 259 412 l 1,11,-1
 288 412 l 1,12,-1
 288 337 l 1,13,-1
 70 337 l 1,14,-1
 70 412 l 1,0,-1
634 616 m 1,15,-1
 254 -12 l 1,16,17
 242 -12 242 -12 210 9 c 128,-1,18
 178 30 178 30 164 48 c 1,19,-1
 544 676 l 1,20,21
 556 676 556 676 588 655 c 128,-1,22
 620 634 620 634 634 616 c 1,15,-1
593 190 m 1,23,24
 598 195 598 195 598 225.5 c 128,-1,25
 598 256 598 256 587 256 c 0,26,27
 585 256 585 256 582 252 c 0,28,29
 576 244 576 244 576 205 c 1,30,-1
 472 205 l 1,31,32
 472 258 472 258 478 275 c 0,33,34
 484 289 484 289 526 314 c 128,-1,35
 568 339 568 339 588 339 c 128,-1,36
 608 339 608 339 650 313 c 128,-1,37
 692 287 692 287 698.5 273 c 128,-1,38
 705 259 705 259 705 210 c 128,-1,39
 705 161 705 161 688 146.5 c 128,-1,40
 671 132 671 132 582 93 c 1,41,42
 568 85 568 85 568 75 c 1,43,-1
 702 75 l 1,44,-1
 702 0 l 1,45,-1
 469 0 l 1,46,-1
 469 73 l 2,47,48
 469 113 469 113 477.5 125.5 c 128,-1,49
 486 138 486 138 535.5 161 c 128,-1,50
 585 184 585 184 593 190 c 1,23,24
EndSplineSet
EndChar

StartChar: threequarters
Encoding: 190 190 128
Width: 695
GlyphClass: 2
Flags: W
LayerCount: 2
Fore
SplineSet
630 0 m 1,0,-1
 526 0 l 1,1,-1
 526 61 l 1,2,-1
 462 61 l 1,3,-1
 385 115 l 1,4,5
 398 159 398 159 426.5 213.5 c 128,-1,6
 455 268 455 268 479.5 303 c 128,-1,7
 504 338 504 338 511 338 c 0,8,9
 521 338 521 338 572 304.5 c 128,-1,10
 623 271 623 271 630 260 c 1,11,-1
 630 141 l 1,12,-1
 650 141 l 1,13,-1
 650 61 l 1,14,-1
 630 61 l 1,15,-1
 630 0 l 1,0,-1
526 141 m 1,16,-1
 526 225 l 1,17,18
 499 175 499 175 486 141 c 1,19,-1
 526 141 l 1,16,-1
138 538 m 1,20,21
 181 541 181 541 181 566 c 0,22,23
 181 575 181 575 177 584 c 128,-1,24
 173 593 173 593 165.5 593 c 128,-1,25
 158 593 158 593 152 581 c 1,26,27
 149 572 149 572 149 562 c 1,28,-1
 50 562 l 1,29,30
 50 603 50 603 58 615 c 128,-1,31
 66 627 66 627 106.5 651.5 c 128,-1,32
 147 676 147 676 167 676 c 128,-1,33
 187 676 187 676 231 650 c 128,-1,34
 275 624 275 624 280 610 c 0,35,36
 283 602 283 602 283 569 c 128,-1,37
 283 536 283 536 277 532 c 1,38,39
 270 522 270 522 253 512 c 1,40,41
 275 498 275 498 281.5 489 c 128,-1,42
 288 480 288 480 288 446.5 c 128,-1,43
 288 413 288 413 282 398 c 128,-1,44
 276 383 276 383 231 357.5 c 128,-1,45
 186 332 186 332 165 332 c 128,-1,46
 144 332 144 332 102.5 356 c 128,-1,47
 61 380 61 380 53 392 c 128,-1,48
 45 404 45 404 45 446 c 1,49,-1
 144 446 l 1,50,51
 144 429 144 429 152.5 421.5 c 128,-1,52
 161 414 161 414 165 414 c 128,-1,53
 169 414 169 414 176 420 c 0,54,55
 186 429 186 429 186 446 c 128,-1,56
 186 463 186 463 179 470.5 c 128,-1,57
 172 478 172 478 138 485 c 1,58,-1
 138 538 l 1,20,21
599 616 m 1,59,-1
 219 -12 l 1,60,61
 207 -12 207 -12 175 9 c 128,-1,62
 143 30 143 30 129 48 c 1,63,-1
 509 676 l 1,64,65
 521 676 521 676 553 655 c 128,-1,66
 585 634 585 634 599 616 c 1,59,-1
EndSplineSet
EndChar

StartChar: questiondown
Encoding: 191 191 129
Width: 515
GlyphClass: 2
Flags: W
LayerCount: 2
Fore
SplineSet
217 420.5 m 128,-1,1
 176 455 176 455 176 467.5 c 128,-1,2
 176 480 176 480 217 515.5 c 128,-1,3
 258 551 258 551 269.5 551 c 128,-1,4
 281 551 281 551 322 515.5 c 128,-1,5
 363 480 363 480 363 467.5 c 128,-1,6
 363 455 363 455 321.5 420.5 c 128,-1,7
 280 386 280 386 269 386 c 128,-1,0
 258 386 258 386 217 420.5 c 128,-1,1
260 -173 m 0,8,9
 225 -173 225 -173 157 -117 c 128,-1,10
 89 -61 89 -61 66 -24 c 0,11,12
 55 -6 55 -6 55 60 c 128,-1,13
 55 126 55 126 66 147 c 128,-1,14
 77 168 77 168 130 217.5 c 128,-1,15
 183 267 183 267 193 280.5 c 128,-1,16
 203 294 203 294 203 315 c 2,17,-1
 203 350 l 1,18,-1
 335 350 l 1,19,-1
 335 305 l 2,20,21
 335 260 335 260 323 242 c 128,-1,22
 311 224 311 224 285.5 197.5 c 128,-1,23
 260 171 260 171 232.5 144 c 128,-1,24
 205 117 205 117 197 107.5 c 128,-1,25
 189 98 189 98 189 52 c 0,26,27
 189 25 189 25 219.5 -6.5 c 128,-1,28
 250 -38 250 -38 265 -38 c 128,-1,29
 280 -38 280 -38 307 3 c 128,-1,30
 334 44 334 44 344 98 c 1,31,-1
 459 19 l 1,32,33
 445 -45 445 -45 379.5 -109 c 128,-1,34
 314 -173 314 -173 260 -173 c 0,8,9
EndSplineSet
EndChar

StartChar: Agrave
Encoding: 192 192 130
Width: 514
GlyphClass: 2
Flags: W
LayerCount: 2
Fore
SplineSet
257 712 m 128,-1,1
 294 712 294 712 365 647 c 128,-1,2
 436 582 436 582 453 540 c 0,3,4
 464 511 464 511 464 409 c 2,5,-1
 464 0 l 1,6,-1
 326 0 l 1,7,-1
 326 150 l 1,8,-1
 188 150 l 1,9,-1
 188 0 l 1,10,-1
 50 0 l 1,11,-1
 50 409 l 2,12,13
 50 511 50 511 61 540 c 0,14,15
 78 582 78 582 149 647 c 128,-1,0
 220 712 220 712 257 712 c 128,-1,1
188 409 m 2,16,-1
 188 270 l 1,17,-1
 326 270 l 1,18,-1
 326 409 l 2,19,20
 326 491 326 491 318 509.5 c 128,-1,21
 310 528 310 528 290.5 548.5 c 128,-1,22
 271 569 271 569 257 569 c 128,-1,23
 243 569 243 569 223.5 548.5 c 128,-1,24
 204 528 204 528 196 509.5 c 128,-1,25
 188 491 188 491 188 409 c 2,16,-1
214 766 m 128,-1,27
 133 782 133 782 133 794 c 128,-1,28
 133 806 133 806 153 844 c 128,-1,29
 173 882 173 882 180 882 c 0,30,31
 190 882 190 882 261.5 840.5 c 128,-1,32
 333 799 333 799 333 793.5 c 128,-1,33
 333 788 333 788 325 769 c 128,-1,34
 317 750 317 750 313 750 c 0,35,26
 295 750 295 750 214 766 c 128,-1,27
EndSplineSet
EndChar

StartChar: Aacute
Encoding: 193 193 131
Width: 514
GlyphClass: 2
Flags: W
LayerCount: 2
Fore
SplineSet
257 712 m 128,-1,1
 294 712 294 712 365 647 c 128,-1,2
 436 582 436 582 453 540 c 0,3,4
 464 511 464 511 464 409 c 2,5,-1
 464 0 l 1,6,-1
 326 0 l 1,7,-1
 326 150 l 1,8,-1
 188 150 l 1,9,-1
 188 0 l 1,10,-1
 50 0 l 1,11,-1
 50 409 l 2,12,13
 50 511 50 511 61 540 c 0,14,15
 78 582 78 582 149 647 c 128,-1,0
 220 712 220 712 257 712 c 128,-1,1
188 409 m 2,16,-1
 188 270 l 1,17,-1
 326 270 l 1,18,-1
 326 409 l 2,19,20
 326 491 326 491 318 509.5 c 128,-1,21
 310 528 310 528 290.5 548.5 c 128,-1,22
 271 569 271 569 257 569 c 128,-1,23
 243 569 243 569 223.5 548.5 c 128,-1,24
 204 528 204 528 196 509.5 c 128,-1,25
 188 491 188 491 188 409 c 2,16,-1
343 844 m 128,-1,27
 363 806 363 806 363 794 c 128,-1,28
 363 782 363 782 282 766 c 128,-1,29
 201 750 201 750 183 750 c 0,30,31
 179 750 179 750 171 769 c 128,-1,32
 163 788 163 788 163 793.5 c 128,-1,33
 163 799 163 799 234.5 840.5 c 128,-1,34
 306 882 306 882 316 882 c 0,35,26
 323 882 323 882 343 844 c 128,-1,27
EndSplineSet
EndChar

StartChar: Acircumflex
Encoding: 194 194 132
Width: 514
GlyphClass: 2
Flags: W
LayerCount: 2
Fore
SplineSet
257 712 m 128,-1,1
 294 712 294 712 365 647 c 128,-1,2
 436 582 436 582 453 540 c 0,3,4
 464 511 464 511 464 409 c 2,5,-1
 464 0 l 1,6,-1
 326 0 l 1,7,-1
 326 150 l 1,8,-1
 188 150 l 1,9,-1
 188 0 l 1,10,-1
 50 0 l 1,11,-1
 50 409 l 2,12,13
 50 511 50 511 61 540 c 0,14,15
 78 582 78 582 149 647 c 128,-1,0
 220 712 220 712 257 712 c 128,-1,1
188 409 m 2,16,-1
 188 270 l 1,17,-1
 326 270 l 1,18,-1
 326 409 l 2,19,20
 326 491 326 491 318 509.5 c 128,-1,21
 310 528 310 528 290.5 548.5 c 128,-1,22
 271 569 271 569 257 569 c 128,-1,23
 243 569 243 569 223.5 548.5 c 128,-1,24
 204 528 204 528 196 509.5 c 128,-1,25
 188 491 188 491 188 409 c 2,16,-1
397 773 m 128,-1,27
 385 750 385 750 378.5 750 c 128,-1,28
 372 750 372 750 266 794 c 1,29,30
 154 750 154 750 153 750 c 0,31,32
 148 750 148 750 135.5 773 c 128,-1,33
 123 796 123 796 123 804 c 0,34,35
 123 809 123 809 190 845.5 c 128,-1,36
 257 882 257 882 266 882 c 128,-1,37
 275 882 275 882 342 845.5 c 128,-1,38
 409 809 409 809 409 804 c 0,39,26
 409 796 409 796 397 773 c 128,-1,27
EndSplineSet
EndChar

StartChar: Atilde
Encoding: 195 195 133
Width: 514
GlyphClass: 2
Flags: W
LayerCount: 2
Fore
SplineSet
257 712 m 128,-1,1
 294 712 294 712 365 647 c 128,-1,2
 436 582 436 582 453 540 c 0,3,4
 464 511 464 511 464 409 c 2,5,-1
 464 0 l 1,6,-1
 326 0 l 1,7,-1
 326 150 l 1,8,-1
 188 150 l 1,9,-1
 188 0 l 1,10,-1
 50 0 l 1,11,-1
 50 409 l 2,12,13
 50 511 50 511 61 540 c 0,14,15
 78 582 78 582 149 647 c 128,-1,0
 220 712 220 712 257 712 c 128,-1,1
188 409 m 2,16,-1
 188 270 l 1,17,-1
 326 270 l 1,18,-1
 326 409 l 2,19,20
 326 491 326 491 318 509.5 c 128,-1,21
 310 528 310 528 290.5 548.5 c 128,-1,22
 271 569 271 569 257 569 c 128,-1,23
 243 569 243 569 223.5 548.5 c 128,-1,24
 204 528 204 528 196 509.5 c 128,-1,25
 188 491 188 491 188 409 c 2,16,-1
394.5 800.5 m 128,-1,27
 333 741 333 741 321.5 741 c 128,-1,28
 310 741 310 741 232 801 c 1,29,30
 154 741 154 741 145 741 c 128,-1,31
 136 741 136 741 117 760 c 128,-1,32
 98 779 98 779 98 785.5 c 128,-1,33
 98 792 98 792 159.5 851.5 c 128,-1,34
 221 911 221 911 232.5 911 c 128,-1,35
 244 911 244 911 322 851 c 1,36,37
 400 911 400 911 409 911 c 128,-1,38
 418 911 418 911 437 892 c 128,-1,39
 456 873 456 873 456 866.5 c 128,-1,26
 456 860 456 860 394.5 800.5 c 128,-1,27
EndSplineSet
EndChar

StartChar: Adieresis
Encoding: 196 196 134
Width: 514
GlyphClass: 2
Flags: W
LayerCount: 2
Fore
SplineSet
257 712 m 128,-1,1
 294 712 294 712 365 647 c 128,-1,2
 436 582 436 582 453 540 c 0,3,4
 464 511 464 511 464 409 c 2,5,-1
 464 0 l 1,6,-1
 326 0 l 1,7,-1
 326 150 l 1,8,-1
 188 150 l 1,9,-1
 188 0 l 1,10,-1
 50 0 l 1,11,-1
 50 409 l 2,12,13
 50 511 50 511 61 540 c 0,14,15
 78 582 78 582 149 647 c 128,-1,0
 220 712 220 712 257 712 c 128,-1,1
188 409 m 2,16,-1
 188 270 l 1,17,-1
 326 270 l 1,18,-1
 326 409 l 2,19,20
 326 491 326 491 318 509.5 c 128,-1,21
 310 528 310 528 290.5 548.5 c 128,-1,22
 271 569 271 569 257 569 c 128,-1,23
 243 569 243 569 223.5 548.5 c 128,-1,24
 204 528 204 528 196 509.5 c 128,-1,25
 188 491 188 491 188 409 c 2,16,-1
233 815 m 128,-1,27
 233 805 233 805 200.5 777.5 c 128,-1,28
 168 750 168 750 159 750 c 128,-1,29
 150 750 150 750 117.5 777.5 c 128,-1,30
 85 805 85 805 85 815 c 128,-1,31
 85 825 85 825 118 852.5 c 128,-1,32
 151 880 151 880 159.5 880 c 128,-1,33
 168 880 168 880 200.5 852.5 c 128,-1,26
 233 825 233 825 233 815 c 128,-1,27
431 815 m 128,-1,35
 431 805 431 805 398.5 777.5 c 128,-1,36
 366 750 366 750 357 750 c 128,-1,37
 348 750 348 750 315.5 777.5 c 128,-1,38
 283 805 283 805 283 815 c 128,-1,39
 283 825 283 825 316 852.5 c 128,-1,40
 349 880 349 880 357.5 880 c 128,-1,41
 366 880 366 880 398.5 852.5 c 128,-1,34
 431 825 431 825 431 815 c 128,-1,35
EndSplineSet
EndChar

StartChar: Aring
Encoding: 197 197 135
Width: 514
GlyphClass: 2
Flags: W
LayerCount: 2
Fore
SplineSet
257 712 m 128,-1,1
 294 712 294 712 365 647 c 128,-1,2
 436 582 436 582 453 540 c 0,3,4
 464 511 464 511 464 409 c 2,5,-1
 464 0 l 1,6,-1
 326 0 l 1,7,-1
 326 150 l 1,8,-1
 188 150 l 1,9,-1
 188 0 l 1,10,-1
 50 0 l 1,11,-1
 50 409 l 2,12,13
 50 511 50 511 61 540 c 0,14,15
 78 582 78 582 149 647 c 128,-1,0
 220 712 220 712 257 712 c 128,-1,1
188 409 m 2,16,-1
 188 270 l 1,17,-1
 326 270 l 1,18,-1
 326 409 l 2,19,20
 326 491 326 491 318 509.5 c 128,-1,21
 310 528 310 528 290.5 548.5 c 128,-1,22
 271 569 271 569 257 569 c 128,-1,23
 243 569 243 569 223.5 548.5 c 128,-1,24
 204 528 204 528 196 509.5 c 128,-1,25
 188 491 188 491 188 409 c 2,16,-1
299 827 m 128,-1,27
 299 837 299 837 283 851 c 128,-1,28
 267 865 267 865 257.5 865 c 128,-1,29
 248 865 248 865 231.5 850.5 c 128,-1,30
 215 836 215 836 215 826.5 c 128,-1,31
 215 817 215 817 231 803 c 128,-1,32
 247 789 247 789 257 789 c 128,-1,33
 267 789 267 789 283 803 c 128,-1,26
 299 817 299 817 299 827 c 128,-1,27
352 827 m 128,-1,35
 352 808 352 808 315.5 775 c 128,-1,36
 279 742 279 742 257 742 c 128,-1,37
 235 742 235 742 198.5 774.5 c 128,-1,38
 162 807 162 807 162 826.5 c 128,-1,39
 162 846 162 846 199 878.5 c 128,-1,40
 236 911 236 911 257.5 911 c 128,-1,41
 279 911 279 911 315.5 878.5 c 128,-1,34
 352 846 352 846 352 827 c 128,-1,35
EndSplineSet
EndChar

StartChar: AE
Encoding: 198 198 136
Width: 728
GlyphClass: 2
Flags: W
LayerCount: 2
Fore
SplineSet
464 426 m 1,0,-1
 643 426 l 1,1,-1
 643 305 l 1,2,-1
 464 305 l 1,3,-1
 464 121 l 1,4,-1
 703 121 l 1,5,-1
 703 0 l 1,6,-1
 326 0 l 1,7,-1
 326 150 l 1,8,-1
 188 150 l 1,9,-1
 188 0 l 1,10,-1
 50 0 l 1,11,-1
 50 409 l 2,12,13
 50 511 50 511 61 540 c 0,14,15
 78 582 78 582 149 647 c 128,-1,16
 220 712 220 712 258.5 712 c 128,-1,17
 297 712 297 712 379 634 c 1,18,-1
 489 712 l 1,19,-1
 687 712 l 1,20,-1
 687 590 l 1,21,-1
 526 590 l 1,22,-1
 464 544 l 1,23,-1
 464 426 l 1,0,-1
188 409 m 2,24,-1
 188 270 l 1,25,-1
 326 270 l 1,26,-1
 326 409 l 2,27,28
 326 491 326 491 318 509.5 c 128,-1,29
 310 528 310 528 290.5 548.5 c 128,-1,30
 271 569 271 569 257 569 c 128,-1,31
 243 569 243 569 223.5 548.5 c 128,-1,32
 204 528 204 528 196 509.5 c 128,-1,33
 188 491 188 491 188 409 c 2,24,-1
EndSplineSet
EndChar

StartChar: Ccedilla
Encoding: 199 199 137
Width: 489
GlyphClass: 2
Flags: W
LayerCount: 2
Fore
SplineSet
159 -86 m 0,0,1
 159 -74 159 -74 208 -7 c 1,2,3
 172 8 172 8 116.5 61 c 128,-1,4
 61 114 61 114 47 140 c 0,5,6
 25 178 25 178 25 303 c 2,7,-1
 25 397 l 2,8,9
 25 522 25 522 45 557 c 128,-1,10
 65 592 65 592 130.5 652 c 128,-1,11
 196 712 196 712 228 712 c 0,12,13
 283 712 283 712 354 648.5 c 128,-1,14
 425 585 425 585 444 509 c 1,15,-1
 333 432 l 1,16,17
 317 486 317 486 282 531.5 c 128,-1,18
 247 577 247 577 233 577 c 0,19,20
 208 577 208 577 176 528 c 0,21,22
 163 509 163 509 163 397 c 2,23,-1
 163 303 l 2,24,25
 163 188 163 188 176 172 c 1,26,27
 208 123 208 123 233 123 c 0,28,29
 247 123 247 123 282 162.5 c 128,-1,30
 317 202 317 202 333 250 c 1,31,-1
 444 172 l 1,32,33
 430 120 430 120 384 73 c 128,-1,34
 338 26 338 26 286 3 c 1,35,36
 261 -30 261 -30 239 -56 c 1,37,38
 268 -83 268 -83 284 -97 c 128,-1,39
 300 -111 300 -111 310 -120 c 0,40,41
 329 -139 329 -139 329 -147 c 128,-1,42
 329 -155 329 -155 269.5 -202.5 c 128,-1,43
 210 -250 210 -250 203.5 -250 c 128,-1,44
 197 -250 197 -250 178 -231 c 128,-1,45
 159 -212 159 -212 159 -206 c 128,-1,46
 159 -200 159 -200 219 -146 c 1,47,48
 159 -92 159 -92 159 -86 c 0,0,1
EndSplineSet
EndChar

StartChar: Egrave
Encoding: 200 200 138
Width: 487
GlyphClass: 2
Flags: W
LayerCount: 2
Fore
SplineSet
208 426 m 1,0,-1
 387 426 l 1,1,-1
 387 305 l 1,2,-1
 208 305 l 1,3,-1
 208 121 l 1,4,-1
 447 121 l 1,5,-1
 447 0 l 1,6,-1
 70 0 l 1,7,-1
 70 616 l 1,8,-1
 208 712 l 1,9,-1
 431 712 l 1,10,-1
 431 590 l 1,11,-1
 245 590 l 1,12,-1
 208 564 l 1,13,-1
 208 426 l 1,0,-1
214 766 m 128,-1,15
 133 782 133 782 133 794 c 128,-1,16
 133 806 133 806 153 844 c 128,-1,17
 173 882 173 882 180 882 c 0,18,19
 190 882 190 882 261.5 840.5 c 128,-1,20
 333 799 333 799 333 793.5 c 128,-1,21
 333 788 333 788 325 769 c 128,-1,22
 317 750 317 750 313 750 c 0,23,14
 295 750 295 750 214 766 c 128,-1,15
EndSplineSet
EndChar

StartChar: Eacute
Encoding: 201 201 139
Width: 487
GlyphClass: 2
Flags: W
LayerCount: 2
Fore
SplineSet
208 426 m 1,0,-1
 387 426 l 1,1,-1
 387 305 l 1,2,-1
 208 305 l 1,3,-1
 208 121 l 1,4,-1
 447 121 l 1,5,-1
 447 0 l 1,6,-1
 70 0 l 1,7,-1
 70 616 l 1,8,-1
 208 712 l 1,9,-1
 431 712 l 1,10,-1
 431 590 l 1,11,-1
 245 590 l 1,12,-1
 208 564 l 1,13,-1
 208 426 l 1,0,-1
403 844 m 128,-1,15
 423 806 423 806 423 794 c 128,-1,16
 423 782 423 782 342 766 c 128,-1,17
 261 750 261 750 243 750 c 0,18,19
 239 750 239 750 231 769 c 128,-1,20
 223 788 223 788 223 793.5 c 128,-1,21
 223 799 223 799 294.5 840.5 c 128,-1,22
 366 882 366 882 376 882 c 0,23,14
 383 882 383 882 403 844 c 128,-1,15
EndSplineSet
EndChar

StartChar: Ecircumflex
Encoding: 202 202 140
Width: 487
GlyphClass: 2
Flags: W
LayerCount: 2
Fore
SplineSet
208 426 m 1,0,-1
 387 426 l 1,1,-1
 387 305 l 1,2,-1
 208 305 l 1,3,-1
 208 121 l 1,4,-1
 447 121 l 1,5,-1
 447 0 l 1,6,-1
 70 0 l 1,7,-1
 70 616 l 1,8,-1
 208 712 l 1,9,-1
 431 712 l 1,10,-1
 431 590 l 1,11,-1
 245 590 l 1,12,-1
 208 564 l 1,13,-1
 208 426 l 1,0,-1
417 773 m 128,-1,15
 405 750 405 750 398.5 750 c 128,-1,16
 392 750 392 750 286 794 c 1,17,18
 174 750 174 750 173 750 c 0,19,20
 168 750 168 750 155.5 773 c 128,-1,21
 143 796 143 796 143 804 c 0,22,23
 143 809 143 809 210 845.5 c 128,-1,24
 277 882 277 882 286 882 c 128,-1,25
 295 882 295 882 362 845.5 c 128,-1,26
 429 809 429 809 429 804 c 0,27,14
 429 796 429 796 417 773 c 128,-1,15
EndSplineSet
EndChar

StartChar: Edieresis
Encoding: 203 203 141
Width: 487
GlyphClass: 2
Flags: W
LayerCount: 2
Fore
SplineSet
208 426 m 1,0,-1
 387 426 l 1,1,-1
 387 305 l 1,2,-1
 208 305 l 1,3,-1
 208 121 l 1,4,-1
 447 121 l 1,5,-1
 447 0 l 1,6,-1
 70 0 l 1,7,-1
 70 616 l 1,8,-1
 208 712 l 1,9,-1
 431 712 l 1,10,-1
 431 590 l 1,11,-1
 245 590 l 1,12,-1
 208 564 l 1,13,-1
 208 426 l 1,0,-1
247 815 m 128,-1,15
 247 805 247 805 214.5 777.5 c 128,-1,16
 182 750 182 750 173 750 c 128,-1,17
 164 750 164 750 131.5 777.5 c 128,-1,18
 99 805 99 805 99 815 c 128,-1,19
 99 825 99 825 132 852.5 c 128,-1,20
 165 880 165 880 173.5 880 c 128,-1,21
 182 880 182 880 214.5 852.5 c 128,-1,14
 247 825 247 825 247 815 c 128,-1,15
445 815 m 128,-1,23
 445 805 445 805 412.5 777.5 c 128,-1,24
 380 750 380 750 371 750 c 128,-1,25
 362 750 362 750 329.5 777.5 c 128,-1,26
 297 805 297 805 297 815 c 128,-1,27
 297 825 297 825 330 852.5 c 128,-1,28
 363 880 363 880 371.5 880 c 128,-1,29
 380 880 380 880 412.5 852.5 c 128,-1,22
 445 825 445 825 445 815 c 128,-1,23
EndSplineSet
EndChar

StartChar: Igrave
Encoding: 204 204 142
Width: 250
GlyphClass: 2
Flags: W
LayerCount: 2
Fore
SplineSet
56 0 m 1,0,-1
 56 700 l 1,1,-1
 194 700 l 1,2,-1
 194 0 l 1,3,-1
 56 0 l 1,0,-1
94 766 m 128,-1,5
 13 782 13 782 13 794 c 128,-1,6
 13 806 13 806 33 844 c 128,-1,7
 53 882 53 882 60 882 c 0,8,9
 70 882 70 882 141.5 840.5 c 128,-1,10
 213 799 213 799 213 793.5 c 128,-1,11
 213 788 213 788 205 769 c 128,-1,12
 197 750 197 750 193 750 c 0,13,4
 175 750 175 750 94 766 c 128,-1,5
EndSplineSet
EndChar

StartChar: Iacute
Encoding: 205 205 143
Width: 250
GlyphClass: 2
Flags: W
LayerCount: 2
Fore
SplineSet
56 0 m 1,0,-1
 56 700 l 1,1,-1
 194 700 l 1,2,-1
 194 0 l 1,3,-1
 56 0 l 1,0,-1
223 844 m 128,-1,5
 243 806 243 806 243 794 c 128,-1,6
 243 782 243 782 162 766 c 128,-1,7
 81 750 81 750 63 750 c 0,8,9
 59 750 59 750 51 769 c 128,-1,10
 43 788 43 788 43 793.5 c 128,-1,11
 43 799 43 799 114.5 840.5 c 128,-1,12
 186 882 186 882 196 882 c 0,13,4
 203 882 203 882 223 844 c 128,-1,5
EndSplineSet
EndChar

StartChar: Icircumflex
Encoding: 206 206 144
Width: 250
GlyphClass: 2
Flags: W
LayerCount: 2
Fore
SplineSet
56 0 m 1,0,-1
 56 700 l 1,1,-1
 194 700 l 1,2,-1
 194 0 l 1,3,-1
 56 0 l 1,0,-1
256 773 m 128,-1,5
 244 750 244 750 237.5 750 c 128,-1,6
 231 750 231 750 125 794 c 1,7,8
 13 750 13 750 12 750 c 0,9,10
 7 750 7 750 -5.5 773 c 128,-1,11
 -18 796 -18 796 -18 804 c 0,12,13
 -18 809 -18 809 49 845.5 c 128,-1,14
 116 882 116 882 125 882 c 128,-1,15
 134 882 134 882 201 845.5 c 128,-1,16
 268 809 268 809 268 804 c 0,17,4
 268 796 268 796 256 773 c 128,-1,5
EndSplineSet
EndChar

StartChar: Idieresis
Encoding: 207 207 145
Width: 250
GlyphClass: 2
Flags: W
LayerCount: 2
Fore
SplineSet
56 0 m 1,0,-1
 56 700 l 1,1,-1
 194 700 l 1,2,-1
 194 0 l 1,3,-1
 56 0 l 1,0,-1
101 815 m 128,-1,5
 101 805 101 805 68.5 777.5 c 128,-1,6
 36 750 36 750 27 750 c 128,-1,7
 18 750 18 750 -14.5 777.5 c 128,-1,8
 -47 805 -47 805 -47 815 c 128,-1,9
 -47 825 -47 825 -14 852.5 c 128,-1,10
 19 880 19 880 27.5 880 c 128,-1,11
 36 880 36 880 68.5 852.5 c 128,-1,4
 101 825 101 825 101 815 c 128,-1,5
299 815 m 128,-1,13
 299 805 299 805 266.5 777.5 c 128,-1,14
 234 750 234 750 225 750 c 128,-1,15
 216 750 216 750 183.5 777.5 c 128,-1,16
 151 805 151 805 151 815 c 128,-1,17
 151 825 151 825 184 852.5 c 128,-1,18
 217 880 217 880 225.5 880 c 128,-1,19
 234 880 234 880 266.5 852.5 c 128,-1,12
 299 825 299 825 299 815 c 128,-1,13
EndSplineSet
EndChar

StartChar: Eth
Encoding: 208 208 146
Width: 534
GlyphClass: 2
Flags: W
LayerCount: 2
Fore
SplineSet
179 660 m 1,0,1
 245 712 245 712 279 712 c 128,-1,2
 313 712 313 712 384.5 646.5 c 128,-1,3
 456 581 456 581 473 540 c 0,4,5
 484 514 484 514 484 409 c 2,6,-1
 484 291 l 2,7,8
 484 186 484 186 473 160 c 0,9,10
 455 121 455 121 386 60.5 c 128,-1,11
 317 0 317 0 277 0 c 2,12,-1
 70 0 l 1,13,-1
 70 290 l 1,14,-1
 10 290 l 1,15,-1
 10 410 l 1,16,-1
 70 410 l 1,17,-1
 70 428 l 2,18,19
 70 509 70 509 58.5 541.5 c 128,-1,20
 47 574 47 574 10 619 c 1,21,-1
 142 712 l 1,22,23
 163 696 163 696 179 660 c 1,0,1
277 569 m 0,24,25
 248 569 248 569 205 550 c 1,26,27
 208 529 208 529 208 486 c 2,28,-1
 208 410 l 1,29,-1
 283 410 l 1,30,-1
 283 290 l 1,31,-1
 208 290 l 1,32,-1
 208 121 l 1,33,-1
 277 121 l 2,34,35
 291 121 291 121 310.5 141.5 c 128,-1,36
 330 162 330 162 338 180.5 c 128,-1,37
 346 199 346 199 346 281 c 2,38,-1
 346 409 l 2,39,40
 346 491 346 491 338 509.5 c 128,-1,41
 330 528 330 528 310.5 548.5 c 128,-1,42
 291 569 291 569 277 569 c 0,24,25
EndSplineSet
EndChar

StartChar: Ntilde
Encoding: 209 209 147
Width: 520
GlyphClass: 2
Flags: W
LayerCount: 2
Fore
SplineSet
207 529 m 1,0,-1
 208 486 l 1,1,-1
 208 0 l 1,2,-1
 70 0 l 1,3,-1
 70 428 l 2,4,5
 70 512 70 512 58.5 546 c 128,-1,6
 47 580 47 580 10 628 c 1,7,-1
 130 712 l 1,8,9
 159 693 159 693 184 647 c 1,10,11
 263 712 263 712 291 712 c 128,-1,12
 319 712 319 712 379.5 659.5 c 128,-1,13
 440 607 440 607 455 585.5 c 128,-1,14
 470 564 470 564 470 529 c 2,15,-1
 470 0 l 1,16,-1
 331 0 l 1,17,-1
 331 509 l 2,18,19
 331 518 331 518 323.5 531.5 c 128,-1,20
 316 545 316 545 300.5 562 c 128,-1,21
 285 579 285 579 271.5 579 c 128,-1,22
 258 579 258 579 238 563.5 c 128,-1,23
 218 548 218 548 207 529 c 1,0,-1
377.5 800.5 m 128,-1,25
 316 741 316 741 304.5 741 c 128,-1,26
 293 741 293 741 215 801 c 1,27,28
 137 741 137 741 128 741 c 128,-1,29
 119 741 119 741 100 760 c 128,-1,30
 81 779 81 779 81 785.5 c 128,-1,31
 81 792 81 792 142.5 851.5 c 128,-1,32
 204 911 204 911 215.5 911 c 128,-1,33
 227 911 227 911 305 851 c 1,34,35
 383 911 383 911 392 911 c 128,-1,36
 401 911 401 911 420 892 c 128,-1,37
 439 873 439 873 439 866.5 c 128,-1,24
 439 860 439 860 377.5 800.5 c 128,-1,25
EndSplineSet
EndChar

StartChar: Ograve
Encoding: 210 210 148
Width: 464
GlyphClass: 2
Flags: W
LayerCount: 2
Fore
SplineSet
232 -12 m 128,-1,1
 196 -12 196 -12 124.5 53.5 c 128,-1,2
 53 119 53 119 36 160 c 0,3,4
 25 186 25 186 25 291 c 2,5,-1
 25 409 l 2,6,7
 25 514 25 514 36 540 c 0,8,9
 53 581 53 581 124.5 646.5 c 128,-1,10
 196 712 196 712 232 712 c 128,-1,11
 268 712 268 712 339.5 646.5 c 128,-1,12
 411 581 411 581 428 540 c 0,13,14
 439 514 439 514 439 409 c 2,15,-1
 439 291 l 2,16,17
 439 186 439 186 428 160 c 0,18,19
 411 119 411 119 339.5 53.5 c 128,-1,0
 268 -12 268 -12 232 -12 c 128,-1,1
232 131 m 128,-1,21
 246 131 246 131 265.5 151.5 c 128,-1,22
 285 172 285 172 293 190.5 c 128,-1,23
 301 209 301 209 301 291 c 2,24,-1
 301 409 l 2,25,26
 301 491 301 491 293 509.5 c 128,-1,27
 285 528 285 528 265.5 548.5 c 128,-1,28
 246 569 246 569 232 569 c 128,-1,29
 218 569 218 569 198.5 548.5 c 128,-1,30
 179 528 179 528 171 509.5 c 128,-1,31
 163 491 163 491 163 409 c 2,32,-1
 163 291 l 2,33,34
 163 209 163 209 171 190.5 c 128,-1,35
 179 172 179 172 198.5 151.5 c 128,-1,20
 218 131 218 131 232 131 c 128,-1,21
184 766 m 128,-1,37
 103 782 103 782 103 794 c 128,-1,38
 103 806 103 806 123 844 c 128,-1,39
 143 882 143 882 150 882 c 0,40,41
 160 882 160 882 231.5 840.5 c 128,-1,42
 303 799 303 799 303 793.5 c 128,-1,43
 303 788 303 788 295 769 c 128,-1,44
 287 750 287 750 283 750 c 0,45,36
 265 750 265 750 184 766 c 128,-1,37
EndSplineSet
EndChar

StartChar: Oacute
Encoding: 211 211 149
Width: 464
GlyphClass: 2
Flags: W
LayerCount: 2
Fore
SplineSet
232 -12 m 128,-1,1
 196 -12 196 -12 124.5 53.5 c 128,-1,2
 53 119 53 119 36 160 c 0,3,4
 25 186 25 186 25 291 c 2,5,-1
 25 409 l 2,6,7
 25 514 25 514 36 540 c 0,8,9
 53 581 53 581 124.5 646.5 c 128,-1,10
 196 712 196 712 232 712 c 128,-1,11
 268 712 268 712 339.5 646.5 c 128,-1,12
 411 581 411 581 428 540 c 0,13,14
 439 514 439 514 439 409 c 2,15,-1
 439 291 l 2,16,17
 439 186 439 186 428 160 c 0,18,19
 411 119 411 119 339.5 53.5 c 128,-1,0
 268 -12 268 -12 232 -12 c 128,-1,1
232 131 m 128,-1,21
 246 131 246 131 265.5 151.5 c 128,-1,22
 285 172 285 172 293 190.5 c 128,-1,23
 301 209 301 209 301 291 c 2,24,-1
 301 409 l 2,25,26
 301 491 301 491 293 509.5 c 128,-1,27
 285 528 285 528 265.5 548.5 c 128,-1,28
 246 569 246 569 232 569 c 128,-1,29
 218 569 218 569 198.5 548.5 c 128,-1,30
 179 528 179 528 171 509.5 c 128,-1,31
 163 491 163 491 163 409 c 2,32,-1
 163 291 l 2,33,34
 163 209 163 209 171 190.5 c 128,-1,35
 179 172 179 172 198.5 151.5 c 128,-1,20
 218 131 218 131 232 131 c 128,-1,21
343 844 m 128,-1,37
 363 806 363 806 363 794 c 128,-1,38
 363 782 363 782 282 766 c 128,-1,39
 201 750 201 750 183 750 c 0,40,41
 179 750 179 750 171 769 c 128,-1,42
 163 788 163 788 163 793.5 c 128,-1,43
 163 799 163 799 234.5 840.5 c 128,-1,44
 306 882 306 882 316 882 c 0,45,36
 323 882 323 882 343 844 c 128,-1,37
EndSplineSet
EndChar

StartChar: Ocircumflex
Encoding: 212 212 150
Width: 464
GlyphClass: 2
Flags: W
LayerCount: 2
Fore
SplineSet
232 -12 m 128,-1,1
 196 -12 196 -12 124.5 53.5 c 128,-1,2
 53 119 53 119 36 160 c 0,3,4
 25 186 25 186 25 291 c 2,5,-1
 25 409 l 2,6,7
 25 514 25 514 36 540 c 0,8,9
 53 581 53 581 124.5 646.5 c 128,-1,10
 196 712 196 712 232 712 c 128,-1,11
 268 712 268 712 339.5 646.5 c 128,-1,12
 411 581 411 581 428 540 c 0,13,14
 439 514 439 514 439 409 c 2,15,-1
 439 291 l 2,16,17
 439 186 439 186 428 160 c 0,18,19
 411 119 411 119 339.5 53.5 c 128,-1,0
 268 -12 268 -12 232 -12 c 128,-1,1
232 131 m 128,-1,21
 246 131 246 131 265.5 151.5 c 128,-1,22
 285 172 285 172 293 190.5 c 128,-1,23
 301 209 301 209 301 291 c 2,24,-1
 301 409 l 2,25,26
 301 491 301 491 293 509.5 c 128,-1,27
 285 528 285 528 265.5 548.5 c 128,-1,28
 246 569 246 569 232 569 c 128,-1,29
 218 569 218 569 198.5 548.5 c 128,-1,30
 179 528 179 528 171 509.5 c 128,-1,31
 163 491 163 491 163 409 c 2,32,-1
 163 291 l 2,33,34
 163 209 163 209 171 190.5 c 128,-1,35
 179 172 179 172 198.5 151.5 c 128,-1,20
 218 131 218 131 232 131 c 128,-1,21
364 773 m 128,-1,37
 352 750 352 750 345.5 750 c 128,-1,38
 339 750 339 750 233 794 c 1,39,40
 121 750 121 750 120 750 c 0,41,42
 115 750 115 750 102.5 773 c 128,-1,43
 90 796 90 796 90 804 c 0,44,45
 90 809 90 809 157 845.5 c 128,-1,46
 224 882 224 882 233 882 c 128,-1,47
 242 882 242 882 309 845.5 c 128,-1,48
 376 809 376 809 376 804 c 0,49,36
 376 796 376 796 364 773 c 128,-1,37
EndSplineSet
EndChar

StartChar: Otilde
Encoding: 213 213 151
Width: 464
GlyphClass: 2
Flags: W
LayerCount: 2
Fore
SplineSet
232 -12 m 128,-1,1
 196 -12 196 -12 124.5 53.5 c 128,-1,2
 53 119 53 119 36 160 c 0,3,4
 25 186 25 186 25 291 c 2,5,-1
 25 409 l 2,6,7
 25 514 25 514 36 540 c 0,8,9
 53 581 53 581 124.5 646.5 c 128,-1,10
 196 712 196 712 232 712 c 128,-1,11
 268 712 268 712 339.5 646.5 c 128,-1,12
 411 581 411 581 428 540 c 0,13,14
 439 514 439 514 439 409 c 2,15,-1
 439 291 l 2,16,17
 439 186 439 186 428 160 c 0,18,19
 411 119 411 119 339.5 53.5 c 128,-1,0
 268 -12 268 -12 232 -12 c 128,-1,1
232 131 m 128,-1,21
 246 131 246 131 265.5 151.5 c 128,-1,22
 285 172 285 172 293 190.5 c 128,-1,23
 301 209 301 209 301 291 c 2,24,-1
 301 409 l 2,25,26
 301 491 301 491 293 509.5 c 128,-1,27
 285 528 285 528 265.5 548.5 c 128,-1,28
 246 569 246 569 232 569 c 128,-1,29
 218 569 218 569 198.5 548.5 c 128,-1,30
 179 528 179 528 171 509.5 c 128,-1,31
 163 491 163 491 163 409 c 2,32,-1
 163 291 l 2,33,34
 163 209 163 209 171 190.5 c 128,-1,35
 179 172 179 172 198.5 151.5 c 128,-1,20
 218 131 218 131 232 131 c 128,-1,21
349.5 800.5 m 128,-1,37
 288 741 288 741 276.5 741 c 128,-1,38
 265 741 265 741 187 801 c 1,39,40
 109 741 109 741 100 741 c 128,-1,41
 91 741 91 741 72 760 c 128,-1,42
 53 779 53 779 53 785.5 c 128,-1,43
 53 792 53 792 114.5 851.5 c 128,-1,44
 176 911 176 911 187.5 911 c 128,-1,45
 199 911 199 911 277 851 c 1,46,47
 355 911 355 911 364 911 c 128,-1,48
 373 911 373 911 392 892 c 128,-1,49
 411 873 411 873 411 866.5 c 128,-1,36
 411 860 411 860 349.5 800.5 c 128,-1,37
EndSplineSet
EndChar

StartChar: Odieresis
Encoding: 214 214 152
Width: 464
GlyphClass: 2
Flags: W
LayerCount: 2
Fore
SplineSet
232 -12 m 128,-1,1
 196 -12 196 -12 124.5 53.5 c 128,-1,2
 53 119 53 119 36 160 c 0,3,4
 25 186 25 186 25 291 c 2,5,-1
 25 409 l 2,6,7
 25 514 25 514 36 540 c 0,8,9
 53 581 53 581 124.5 646.5 c 128,-1,10
 196 712 196 712 232 712 c 128,-1,11
 268 712 268 712 339.5 646.5 c 128,-1,12
 411 581 411 581 428 540 c 0,13,14
 439 514 439 514 439 409 c 2,15,-1
 439 291 l 2,16,17
 439 186 439 186 428 160 c 0,18,19
 411 119 411 119 339.5 53.5 c 128,-1,0
 268 -12 268 -12 232 -12 c 128,-1,1
232 131 m 128,-1,21
 246 131 246 131 265.5 151.5 c 128,-1,22
 285 172 285 172 293 190.5 c 128,-1,23
 301 209 301 209 301 291 c 2,24,-1
 301 409 l 2,25,26
 301 491 301 491 293 509.5 c 128,-1,27
 285 528 285 528 265.5 548.5 c 128,-1,28
 246 569 246 569 232 569 c 128,-1,29
 218 569 218 569 198.5 548.5 c 128,-1,30
 179 528 179 528 171 509.5 c 128,-1,31
 163 491 163 491 163 409 c 2,32,-1
 163 291 l 2,33,34
 163 209 163 209 171 190.5 c 128,-1,35
 179 172 179 172 198.5 151.5 c 128,-1,20
 218 131 218 131 232 131 c 128,-1,21
207 815 m 128,-1,37
 207 805 207 805 174.5 777.5 c 128,-1,38
 142 750 142 750 133 750 c 128,-1,39
 124 750 124 750 91.5 777.5 c 128,-1,40
 59 805 59 805 59 815 c 128,-1,41
 59 825 59 825 92 852.5 c 128,-1,42
 125 880 125 880 133.5 880 c 128,-1,43
 142 880 142 880 174.5 852.5 c 128,-1,36
 207 825 207 825 207 815 c 128,-1,37
405 815 m 128,-1,45
 405 805 405 805 372.5 777.5 c 128,-1,46
 340 750 340 750 331 750 c 128,-1,47
 322 750 322 750 289.5 777.5 c 128,-1,48
 257 805 257 805 257 815 c 128,-1,49
 257 825 257 825 290 852.5 c 128,-1,50
 323 880 323 880 331.5 880 c 128,-1,51
 340 880 340 880 372.5 852.5 c 128,-1,44
 405 825 405 825 405 815 c 128,-1,45
EndSplineSet
EndChar

StartChar: multiply
Encoding: 215 215 153
Width: 518
GlyphClass: 2
Flags: W
LayerCount: 2
Fore
SplineSet
379 494 m 0,0,1
 391 494 391 494 427 466.5 c 128,-1,2
 463 439 463 439 463 429 c 0,3,4
 463 423 463 423 429 382 c 128,-1,5
 395 341 395 341 355 299 c 1,6,7
 463 183 463 183 463 171 c 128,-1,8
 463 159 463 159 427.5 131.5 c 128,-1,9
 392 104 392 104 379 104 c 0,10,11
 377 104 377 104 356 124 c 0,12,13
 277 200 277 200 259 214 c 1,14,15
 241 200 241 200 191 152 c 128,-1,16
 141 104 141 104 139 104 c 0,17,18
 127 104 127 104 91 131.5 c 128,-1,19
 55 159 55 159 55 169 c 0,20,21
 55 184 55 184 162 299 c 1,22,23
 123 341 123 341 89 382 c 128,-1,24
 55 423 55 423 55 431 c 128,-1,25
 55 439 55 439 90.5 466.5 c 128,-1,26
 126 494 126 494 139 494 c 0,27,28
 141 494 141 494 162 474 c 0,29,30
 241 398 241 398 259 384 c 1,31,32
 277 398 277 398 327 446 c 128,-1,33
 377 494 377 494 379 494 c 0,0,1
EndSplineSet
EndChar

StartChar: Oslash
Encoding: 216 216 154
Width: 464
GlyphClass: 2
Flags: W
LayerCount: 2
Fore
SplineSet
339.5 53.5 m 128,-1,1
 268 -12 268 -12 229.5 -12 c 128,-1,2
 191 -12 191 -12 109 68 c 1,3,-1
 67 -12 l 1,4,5
 62 -12 62 -12 50 -3 c 128,-1,6
 38 6 38 6 38 10 c 1,7,8
 56 47 56 47 81 97 c 1,9,10
 44 140 44 140 34.5 163 c 128,-1,11
 25 186 25 186 25 291 c 2,12,-1
 25 409 l 2,13,14
 25 514 25 514 36 540 c 0,15,16
 53 581 53 581 124.5 646.5 c 128,-1,17
 196 712 196 712 233.5 712 c 128,-1,18
 271 712 271 712 355 632 c 1,19,20
 395 712 395 712 397 712 c 0,21,22
 402 712 402 712 414 703.5 c 128,-1,23
 426 695 426 695 426 691.5 c 128,-1,24
 426 688 426 688 382 603 c 1,25,26
 417 565 417 565 428 539.5 c 128,-1,27
 439 514 439 514 439 409 c 2,28,-1
 439 291 l 2,29,30
 439 186 439 186 428 160 c 0,31,0
 411 119 411 119 339.5 53.5 c 128,-1,1
232 127 m 128,-1,33
 246 127 246 127 267 147.5 c 128,-1,34
 288 168 288 168 296.5 187 c 128,-1,35
 305 206 305 206 305 291 c 2,36,-1
 305 409 l 2,37,38
 305 437 305 437 304 450 c 1,39,-1
 168 184 l 1,40,41
 178 166 178 166 198 146.5 c 128,-1,32
 218 127 218 127 232 127 c 128,-1,33
159 251 m 1,42,-1
 296 516 l 1,43,44
 287 534 287 534 266.5 553.5 c 128,-1,45
 246 573 246 573 231.5 573 c 128,-1,46
 217 573 217 573 196.5 552.5 c 128,-1,47
 176 532 176 532 167.5 513 c 128,-1,48
 159 494 159 494 159 409 c 2,49,-1
 159 251 l 1,42,-1
EndSplineSet
EndChar

StartChar: Ugrave
Encoding: 217 217 155
Width: 534
GlyphClass: 2
Flags: W
LayerCount: 2
Fore
SplineSet
484 700 m 1,0,-1
 484 291 l 2,1,2
 484 186 484 186 473 160 c 0,3,4
 456 119 456 119 384.5 53.5 c 128,-1,5
 313 -12 313 -12 277 -12 c 128,-1,6
 241 -12 241 -12 169.5 53.5 c 128,-1,7
 98 119 98 119 81 160 c 0,8,9
 70 186 70 186 70 291 c 2,10,-1
 70 436 l 2,11,12
 70 517 70 517 58.5 550 c 128,-1,13
 47 583 47 583 10 628 c 1,14,-1
 130 712 l 1,15,16
 162 691 162 691 185 630.5 c 128,-1,17
 208 570 208 570 208 486 c 2,18,-1
 208 291 l 2,19,20
 208 209 208 209 216 190.5 c 128,-1,21
 224 172 224 172 243.5 151.5 c 128,-1,22
 263 131 263 131 277 131 c 128,-1,23
 291 131 291 131 310.5 151.5 c 128,-1,24
 330 172 330 172 338 190.5 c 128,-1,25
 346 209 346 209 346 291 c 2,26,-1
 346 700 l 1,27,-1
 484 700 l 1,0,-1
201 766 m 128,-1,29
 120 782 120 782 120 794 c 128,-1,30
 120 806 120 806 140 844 c 128,-1,31
 160 882 160 882 167 882 c 0,32,33
 177 882 177 882 248.5 840.5 c 128,-1,34
 320 799 320 799 320 793.5 c 128,-1,35
 320 788 320 788 312 769 c 128,-1,36
 304 750 304 750 300 750 c 0,37,28
 282 750 282 750 201 766 c 128,-1,29
EndSplineSet
EndChar

StartChar: Uacute
Encoding: 218 218 156
Width: 534
GlyphClass: 2
Flags: W
LayerCount: 2
Fore
SplineSet
484 700 m 1,0,-1
 484 291 l 2,1,2
 484 186 484 186 473 160 c 0,3,4
 456 119 456 119 384.5 53.5 c 128,-1,5
 313 -12 313 -12 277 -12 c 128,-1,6
 241 -12 241 -12 169.5 53.5 c 128,-1,7
 98 119 98 119 81 160 c 0,8,9
 70 186 70 186 70 291 c 2,10,-1
 70 436 l 2,11,12
 70 517 70 517 58.5 550 c 128,-1,13
 47 583 47 583 10 628 c 1,14,-1
 130 712 l 1,15,16
 162 691 162 691 185 630.5 c 128,-1,17
 208 570 208 570 208 486 c 2,18,-1
 208 291 l 2,19,20
 208 209 208 209 216 190.5 c 128,-1,21
 224 172 224 172 243.5 151.5 c 128,-1,22
 263 131 263 131 277 131 c 128,-1,23
 291 131 291 131 310.5 151.5 c 128,-1,24
 330 172 330 172 338 190.5 c 128,-1,25
 346 209 346 209 346 291 c 2,26,-1
 346 700 l 1,27,-1
 484 700 l 1,0,-1
363 844 m 128,-1,29
 383 806 383 806 383 794 c 128,-1,30
 383 782 383 782 302 766 c 128,-1,31
 221 750 221 750 203 750 c 0,32,33
 199 750 199 750 191 769 c 128,-1,34
 183 788 183 788 183 793.5 c 128,-1,35
 183 799 183 799 254.5 840.5 c 128,-1,36
 326 882 326 882 336 882 c 0,37,28
 343 882 343 882 363 844 c 128,-1,29
EndSplineSet
EndChar

StartChar: Ucircumflex
Encoding: 219 219 157
Width: 534
GlyphClass: 2
Flags: W
LayerCount: 2
Fore
SplineSet
484 700 m 1,0,-1
 484 291 l 2,1,2
 484 186 484 186 473 160 c 0,3,4
 456 119 456 119 384.5 53.5 c 128,-1,5
 313 -12 313 -12 277 -12 c 128,-1,6
 241 -12 241 -12 169.5 53.5 c 128,-1,7
 98 119 98 119 81 160 c 0,8,9
 70 186 70 186 70 291 c 2,10,-1
 70 436 l 2,11,12
 70 517 70 517 58.5 550 c 128,-1,13
 47 583 47 583 10 628 c 1,14,-1
 130 712 l 1,15,16
 162 691 162 691 185 630.5 c 128,-1,17
 208 570 208 570 208 486 c 2,18,-1
 208 291 l 2,19,20
 208 209 208 209 216 190.5 c 128,-1,21
 224 172 224 172 243.5 151.5 c 128,-1,22
 263 131 263 131 277 131 c 128,-1,23
 291 131 291 131 310.5 151.5 c 128,-1,24
 330 172 330 172 338 190.5 c 128,-1,25
 346 209 346 209 346 291 c 2,26,-1
 346 700 l 1,27,-1
 484 700 l 1,0,-1
397 773 m 128,-1,29
 385 750 385 750 378.5 750 c 128,-1,30
 372 750 372 750 266 794 c 1,31,32
 154 750 154 750 153 750 c 0,33,34
 148 750 148 750 135.5 773 c 128,-1,35
 123 796 123 796 123 804 c 0,36,37
 123 809 123 809 190 845.5 c 128,-1,38
 257 882 257 882 266 882 c 128,-1,39
 275 882 275 882 342 845.5 c 128,-1,40
 409 809 409 809 409 804 c 0,41,28
 409 796 409 796 397 773 c 128,-1,29
EndSplineSet
EndChar

StartChar: Udieresis
Encoding: 220 220 158
Width: 534
GlyphClass: 2
Flags: W
LayerCount: 2
Fore
SplineSet
484 700 m 1,0,-1
 484 291 l 2,1,2
 484 186 484 186 473 160 c 0,3,4
 456 119 456 119 384.5 53.5 c 128,-1,5
 313 -12 313 -12 277 -12 c 128,-1,6
 241 -12 241 -12 169.5 53.5 c 128,-1,7
 98 119 98 119 81 160 c 0,8,9
 70 186 70 186 70 291 c 2,10,-1
 70 436 l 2,11,12
 70 517 70 517 58.5 550 c 128,-1,13
 47 583 47 583 10 628 c 1,14,-1
 130 712 l 1,15,16
 162 691 162 691 185 630.5 c 128,-1,17
 208 570 208 570 208 486 c 2,18,-1
 208 291 l 2,19,20
 208 209 208 209 216 190.5 c 128,-1,21
 224 172 224 172 243.5 151.5 c 128,-1,22
 263 131 263 131 277 131 c 128,-1,23
 291 131 291 131 310.5 151.5 c 128,-1,24
 330 172 330 172 338 190.5 c 128,-1,25
 346 209 346 209 346 291 c 2,26,-1
 346 700 l 1,27,-1
 484 700 l 1,0,-1
242 815 m 128,-1,29
 242 805 242 805 209.5 777.5 c 128,-1,30
 177 750 177 750 168 750 c 128,-1,31
 159 750 159 750 126.5 777.5 c 128,-1,32
 94 805 94 805 94 815 c 128,-1,33
 94 825 94 825 127 852.5 c 128,-1,34
 160 880 160 880 168.5 880 c 128,-1,35
 177 880 177 880 209.5 852.5 c 128,-1,28
 242 825 242 825 242 815 c 128,-1,29
440 815 m 128,-1,37
 440 805 440 805 407.5 777.5 c 128,-1,38
 375 750 375 750 366 750 c 128,-1,39
 357 750 357 750 324.5 777.5 c 128,-1,40
 292 805 292 805 292 815 c 128,-1,41
 292 825 292 825 325 852.5 c 128,-1,42
 358 880 358 880 366.5 880 c 128,-1,43
 375 880 375 880 407.5 852.5 c 128,-1,36
 440 825 440 825 440 815 c 128,-1,37
EndSplineSet
EndChar

StartChar: Yacute
Encoding: 221 221 159
Width: 509
GlyphClass: 2
Flags: W
LayerCount: 2
Fore
SplineSet
183 0 m 1,0,-1
 183 280 l 1,1,2
 144 312 144 312 107.5 356.5 c 128,-1,3
 71 401 71 401 58 426.5 c 128,-1,4
 45 452 45 452 45 531 c 2,5,-1
 45 700 l 1,6,-1
 183 700 l 1,7,-1
 183 531 l 2,8,9
 183 480 183 480 191.5 459.5 c 128,-1,10
 200 439 200 439 221.5 410 c 128,-1,11
 243 381 243 381 252 381 c 128,-1,12
 261 381 261 381 283 410.5 c 128,-1,13
 305 440 305 440 313 459 c 128,-1,14
 321 478 321 478 321 531 c 2,15,-1
 321 700 l 1,16,-1
 459 700 l 1,17,-1
 459 531 l 2,18,19
 459 451 459 451 446 426 c 128,-1,20
 433 401 433 401 396 356.5 c 128,-1,21
 359 312 359 312 321 280 c 1,22,-1
 321 0 l 1,23,-1
 183 0 l 1,0,-1
363 844 m 128,-1,25
 383 806 383 806 383 794 c 128,-1,26
 383 782 383 782 302 766 c 128,-1,27
 221 750 221 750 203 750 c 0,28,29
 199 750 199 750 191 769 c 128,-1,30
 183 788 183 788 183 793.5 c 128,-1,31
 183 799 183 799 254.5 840.5 c 128,-1,32
 326 882 326 882 336 882 c 0,33,24
 343 882 343 882 363 844 c 128,-1,25
EndSplineSet
EndChar

StartChar: Thorn
Encoding: 222 222 160
Width: 510
GlyphClass: 2
Flags: W
LayerCount: 2
Fore
SplineSet
207 547 m 1,0,1
 265 582 265 582 296.5 582 c 128,-1,2
 328 582 328 582 390 528 c 128,-1,3
 452 474 452 474 473 438 c 0,4,5
 484 419 484 419 484 356.5 c 128,-1,6
 484 294 484 294 473 276 c 0,7,8
 451 240 451 240 389 186 c 128,-1,9
 327 132 327 132 293 132 c 2,10,-1
 208 132 l 1,11,-1
 208 0 l 1,12,-1
 70 0 l 1,13,-1
 70 468 l 2,14,15
 70 536 70 536 58.5 563 c 128,-1,16
 47 590 47 590 10 628 c 1,17,-1
 130 712 l 1,18,19
 160 695 160 695 181.5 652 c 128,-1,20
 203 609 203 609 207 547 c 1,0,1
283 450 m 0,21,22
 250 450 250 450 208 423 c 1,23,-1
 208 261 l 1,24,-1
 283 261 l 2,25,26
 296 261 296 261 317 278 c 128,-1,27
 338 295 338 295 345 312 c 128,-1,28
 352 329 352 329 352 356 c 128,-1,29
 352 383 352 383 344 399.5 c 128,-1,30
 336 416 336 416 316 433 c 128,-1,31
 296 450 296 450 283 450 c 0,21,22
EndSplineSet
EndChar

StartChar: germandbls
Encoding: 223 223 161
Width: 543
GlyphClass: 2
Flags: W
LayerCount: 2
Fore
SplineSet
354 104.5 m 128,-1,1
 382 131 382 131 382 149 c 128,-1,2
 382 167 382 167 360 195.5 c 128,-1,3
 338 224 338 224 311 251.5 c 128,-1,4
 284 279 284 279 262 312 c 128,-1,5
 240 345 240 345 240 372 c 128,-1,6
 240 399 240 399 291 465.5 c 128,-1,7
 342 532 342 532 342 559.5 c 128,-1,8
 342 587 342 587 314.5 611 c 128,-1,9
 287 635 287 635 269 635 c 128,-1,10
 251 635 251 635 231 622 c 128,-1,11
 211 609 211 609 204 596.5 c 128,-1,12
 197 584 197 584 197 500 c 2,13,-1
 197 0 l 1,14,-1
 65 0 l 1,15,-1
 65 395 l 1,16,-1
 15 395 l 1,17,-1
 15 470 l 1,18,-1
 65 482 l 1,19,20
 65 594 65 594 77 619 c 128,-1,21
 89 644 89 644 161 697 c 128,-1,22
 233 750 233 750 267 750 c 0,23,24
 320 750 320 750 394.5 681 c 128,-1,25
 469 612 469 612 469 564 c 0,26,27
 469 537 469 537 421.5 461.5 c 128,-1,28
 374 386 374 386 374 372.5 c 128,-1,29
 374 359 374 359 395.5 335 c 128,-1,30
 417 311 417 311 443.5 285 c 128,-1,31
 470 259 470 259 491.5 222 c 128,-1,32
 513 185 513 185 513 151 c 0,33,34
 513 97 513 97 479.5 52 c 128,-1,35
 446 7 446 7 402 -13 c 1,36,-1
 292 64 l 1,37,0
 326 78 326 78 354 104.5 c 128,-1,1
EndSplineSet
EndChar

StartChar: agrave
Encoding: 224 224 162
Width: 448
GlyphClass: 2
Flags: W
LayerCount: 2
Fore
SplineSet
410 539 m 1,0,-1
 410 129 l 1,1,2
 416 94 416 94 457 67 c 1,3,-1
 367 -10 l 1,4,5
 354 -1 354 -1 335 22 c 128,-1,6
 316 45 316 45 303 69 c 1,7,8
 220 -12 220 -12 187 -12 c 0,9,10
 163 -12 163 -12 109.5 41 c 128,-1,11
 56 94 56 94 43 127 c 128,-1,12
 30 160 30 160 30 269.5 c 128,-1,13
 30 379 30 379 43 412 c 128,-1,14
 56 445 56 445 109.5 498 c 128,-1,15
 163 551 163 551 187 551 c 0,16,17
 222 551 222 551 300 479 c 1,18,-1
 312 539 l 1,19,-1
 410 539 l 1,0,-1
242.5 412.5 m 128,-1,21
 221 426 221 426 210 426 c 128,-1,22
 199 426 199 426 186.5 413 c 128,-1,23
 174 400 174 400 170 389 c 1,24,25
 157 371 157 371 157 269.5 c 128,-1,26
 157 168 157 168 170 150 c 1,27,28
 174 140 174 140 186.5 126.5 c 128,-1,29
 199 113 199 113 210 113 c 128,-1,30
 221 113 221 113 242.5 126.5 c 128,-1,31
 264 140 264 140 270.5 151 c 128,-1,32
 277 162 277 162 278 268 c 0,33,34
 278 374 278 374 271 386.5 c 128,-1,20
 264 399 264 399 242.5 412.5 c 128,-1,21
92 685 m 0,35,36
 92 695 92 695 124.5 722.5 c 128,-1,37
 157 750 157 750 166.5 750 c 128,-1,38
 176 750 176 750 228 686 c 128,-1,39
 280 622 280 622 280 615.5 c 128,-1,40
 280 609 280 609 265 594.5 c 128,-1,41
 250 580 250 580 243 580 c 128,-1,42
 236 580 236 580 164 625.5 c 128,-1,43
 92 671 92 671 92 685 c 0,35,36
EndSplineSet
EndChar

StartChar: aacute
Encoding: 225 225 163
Width: 448
GlyphClass: 2
Flags: W
LayerCount: 2
Fore
SplineSet
410 539 m 1,0,-1
 410 129 l 1,1,2
 416 94 416 94 457 67 c 1,3,-1
 367 -10 l 1,4,5
 354 -1 354 -1 335 22 c 128,-1,6
 316 45 316 45 303 69 c 1,7,8
 220 -12 220 -12 187 -12 c 0,9,10
 163 -12 163 -12 109.5 41 c 128,-1,11
 56 94 56 94 43 127 c 128,-1,12
 30 160 30 160 30 269.5 c 128,-1,13
 30 379 30 379 43 412 c 128,-1,14
 56 445 56 445 109.5 498 c 128,-1,15
 163 551 163 551 187 551 c 0,16,17
 222 551 222 551 300 479 c 1,18,-1
 312 539 l 1,19,-1
 410 539 l 1,0,-1
242.5 412.5 m 128,-1,21
 221 426 221 426 210 426 c 128,-1,22
 199 426 199 426 186.5 413 c 128,-1,23
 174 400 174 400 170 389 c 1,24,25
 157 371 157 371 157 269.5 c 128,-1,26
 157 168 157 168 170 150 c 1,27,28
 174 140 174 140 186.5 126.5 c 128,-1,29
 199 113 199 113 210 113 c 128,-1,30
 221 113 221 113 242.5 126.5 c 128,-1,31
 264 140 264 140 270.5 151 c 128,-1,32
 277 162 277 162 278 268 c 0,33,34
 278 374 278 374 271 386.5 c 128,-1,20
 264 399 264 399 242.5 412.5 c 128,-1,21
340 685 m 0,35,36
 340 671 340 671 268 625.5 c 128,-1,37
 196 580 196 580 189 580 c 128,-1,38
 182 580 182 580 167 594.5 c 128,-1,39
 152 609 152 609 152 615.5 c 128,-1,40
 152 622 152 622 204 686 c 128,-1,41
 256 750 256 750 265.5 750 c 128,-1,42
 275 750 275 750 307.5 722.5 c 128,-1,43
 340 695 340 695 340 685 c 0,35,36
EndSplineSet
EndChar

StartChar: acircumflex
Encoding: 226 226 164
Width: 448
GlyphClass: 2
Flags: W
LayerCount: 2
Fore
SplineSet
410 539 m 1,0,-1
 410 129 l 1,1,2
 416 94 416 94 457 67 c 1,3,-1
 367 -10 l 1,4,5
 354 -1 354 -1 335 22 c 128,-1,6
 316 45 316 45 303 69 c 1,7,8
 220 -12 220 -12 187 -12 c 0,9,10
 163 -12 163 -12 109.5 41 c 128,-1,11
 56 94 56 94 43 127 c 128,-1,12
 30 160 30 160 30 269.5 c 128,-1,13
 30 379 30 379 43 412 c 128,-1,14
 56 445 56 445 109.5 498 c 128,-1,15
 163 551 163 551 187 551 c 0,16,17
 222 551 222 551 300 479 c 1,18,-1
 312 539 l 1,19,-1
 410 539 l 1,0,-1
242.5 412.5 m 128,-1,21
 221 426 221 426 210 426 c 128,-1,22
 199 426 199 426 186.5 413 c 128,-1,23
 174 400 174 400 170 389 c 1,24,25
 157 371 157 371 157 269.5 c 128,-1,26
 157 168 157 168 170 150 c 1,27,28
 174 140 174 140 186.5 126.5 c 128,-1,29
 199 113 199 113 210 113 c 128,-1,30
 221 113 221 113 242.5 126.5 c 128,-1,31
 264 140 264 140 270.5 151 c 128,-1,32
 277 162 277 162 278 268 c 0,33,34
 278 374 278 374 271 386.5 c 128,-1,20
 264 399 264 399 242.5 412.5 c 128,-1,21
226 640 m 1,35,36
 148 580 148 580 139 580 c 128,-1,37
 130 580 130 580 111 599 c 128,-1,38
 92 618 92 618 92 624.5 c 128,-1,39
 92 631 92 631 153.5 690.5 c 128,-1,40
 215 750 215 750 226 750 c 128,-1,41
 237 750 237 750 298.5 690.5 c 128,-1,42
 360 631 360 631 360 624.5 c 128,-1,43
 360 618 360 618 341 599 c 128,-1,44
 322 580 322 580 313 580 c 128,-1,45
 304 580 304 580 226 640 c 1,35,36
EndSplineSet
EndChar

StartChar: atilde
Encoding: 227 227 165
Width: 448
GlyphClass: 2
Flags: W
LayerCount: 2
Fore
SplineSet
410 539 m 1,0,-1
 410 129 l 1,1,2
 416 94 416 94 457 67 c 1,3,-1
 367 -10 l 1,4,5
 354 -1 354 -1 335 22 c 128,-1,6
 316 45 316 45 303 69 c 1,7,8
 220 -12 220 -12 187 -12 c 0,9,10
 163 -12 163 -12 109.5 41 c 128,-1,11
 56 94 56 94 43 127 c 128,-1,12
 30 160 30 160 30 269.5 c 128,-1,13
 30 379 30 379 43 412 c 128,-1,14
 56 445 56 445 109.5 498 c 128,-1,15
 163 551 163 551 187 551 c 0,16,17
 222 551 222 551 300 479 c 1,18,-1
 312 539 l 1,19,-1
 410 539 l 1,0,-1
242.5 412.5 m 128,-1,21
 221 426 221 426 210 426 c 128,-1,22
 199 426 199 426 186.5 413 c 128,-1,23
 174 400 174 400 170 389 c 1,24,25
 157 371 157 371 157 269.5 c 128,-1,26
 157 168 157 168 170 150 c 1,27,28
 174 140 174 140 186.5 126.5 c 128,-1,29
 199 113 199 113 210 113 c 128,-1,30
 221 113 221 113 242.5 126.5 c 128,-1,31
 264 140 264 140 270.5 151 c 128,-1,32
 277 162 277 162 278 268 c 0,33,34
 278 374 278 374 271 386.5 c 128,-1,20
 264 399 264 399 242.5 412.5 c 128,-1,21
344.5 639.5 m 128,-1,36
 283 580 283 580 271.5 580 c 128,-1,37
 260 580 260 580 182 640 c 1,38,39
 104 580 104 580 95 580 c 128,-1,40
 86 580 86 580 67 599 c 128,-1,41
 48 618 48 618 48 624.5 c 128,-1,42
 48 631 48 631 109.5 690.5 c 128,-1,43
 171 750 171 750 182.5 750 c 128,-1,44
 194 750 194 750 272 690 c 1,45,46
 350 750 350 750 359 750 c 128,-1,47
 368 750 368 750 387 731 c 128,-1,48
 406 712 406 712 406 705.5 c 128,-1,35
 406 699 406 699 344.5 639.5 c 128,-1,36
EndSplineSet
EndChar

StartChar: adieresis
Encoding: 228 228 166
Width: 448
GlyphClass: 2
Flags: W
LayerCount: 2
Fore
SplineSet
410 539 m 1,0,-1
 410 129 l 1,1,2
 416 94 416 94 457 67 c 1,3,-1
 367 -10 l 1,4,5
 354 -1 354 -1 335 22 c 128,-1,6
 316 45 316 45 303 69 c 1,7,8
 220 -12 220 -12 187 -12 c 0,9,10
 163 -12 163 -12 109.5 41 c 128,-1,11
 56 94 56 94 43 127 c 128,-1,12
 30 160 30 160 30 269.5 c 128,-1,13
 30 379 30 379 43 412 c 128,-1,14
 56 445 56 445 109.5 498 c 128,-1,15
 163 551 163 551 187 551 c 0,16,17
 222 551 222 551 300 479 c 1,18,-1
 312 539 l 1,19,-1
 410 539 l 1,0,-1
242.5 412.5 m 128,-1,21
 221 426 221 426 210 426 c 128,-1,22
 199 426 199 426 186.5 413 c 128,-1,23
 174 400 174 400 170 389 c 1,24,25
 157 371 157 371 157 269.5 c 128,-1,26
 157 168 157 168 170 150 c 1,27,28
 174 140 174 140 186.5 126.5 c 128,-1,29
 199 113 199 113 210 113 c 128,-1,30
 221 113 221 113 242.5 126.5 c 128,-1,31
 264 140 264 140 270.5 151 c 128,-1,32
 277 162 277 162 278 268 c 0,33,34
 278 374 278 374 271 386.5 c 128,-1,20
 264 399 264 399 242.5 412.5 c 128,-1,21
202 685 m 128,-1,36
 202 675 202 675 169.5 647.5 c 128,-1,37
 137 620 137 620 128 620 c 128,-1,38
 119 620 119 620 86.5 647.5 c 128,-1,39
 54 675 54 675 54 685 c 128,-1,40
 54 695 54 695 87 722.5 c 128,-1,41
 120 750 120 750 128.5 750 c 128,-1,42
 137 750 137 750 169.5 722.5 c 128,-1,35
 202 695 202 695 202 685 c 128,-1,36
400 685 m 128,-1,44
 400 675 400 675 367.5 647.5 c 128,-1,45
 335 620 335 620 326 620 c 128,-1,46
 317 620 317 620 284.5 647.5 c 128,-1,47
 252 675 252 675 252 685 c 128,-1,48
 252 695 252 695 285 722.5 c 128,-1,49
 318 750 318 750 326.5 750 c 128,-1,50
 335 750 335 750 367.5 722.5 c 128,-1,43
 400 695 400 695 400 685 c 128,-1,44
EndSplineSet
EndChar

StartChar: aring
Encoding: 229 229 167
Width: 448
GlyphClass: 2
Flags: W
LayerCount: 2
Fore
SplineSet
410 539 m 1,0,-1
 410 129 l 1,1,2
 416 94 416 94 457 67 c 1,3,-1
 367 -10 l 1,4,5
 354 -1 354 -1 335 22 c 128,-1,6
 316 45 316 45 303 69 c 1,7,8
 220 -12 220 -12 187 -12 c 0,9,10
 163 -12 163 -12 109.5 41 c 128,-1,11
 56 94 56 94 43 127 c 128,-1,12
 30 160 30 160 30 269.5 c 128,-1,13
 30 379 30 379 43 412 c 128,-1,14
 56 445 56 445 109.5 498 c 128,-1,15
 163 551 163 551 187 551 c 0,16,17
 222 551 222 551 300 479 c 1,18,-1
 312 539 l 1,19,-1
 410 539 l 1,0,-1
242.5 412.5 m 128,-1,21
 221 426 221 426 210 426 c 128,-1,22
 199 426 199 426 186.5 413 c 128,-1,23
 174 400 174 400 170 389 c 1,24,25
 157 371 157 371 157 269.5 c 128,-1,26
 157 168 157 168 170 150 c 1,27,28
 174 140 174 140 186.5 126.5 c 128,-1,29
 199 113 199 113 210 113 c 128,-1,30
 221 113 221 113 242.5 126.5 c 128,-1,31
 264 140 264 140 270.5 151 c 128,-1,32
 277 162 277 162 278 268 c 0,33,34
 278 374 278 374 271 386.5 c 128,-1,20
 264 399 264 399 242.5 412.5 c 128,-1,21
254 666 m 128,-1,36
 254 676 254 676 238 690 c 128,-1,37
 222 704 222 704 212.5 704 c 128,-1,38
 203 704 203 704 186.5 689.5 c 128,-1,39
 170 675 170 675 170 665.5 c 128,-1,40
 170 656 170 656 186 642 c 128,-1,41
 202 628 202 628 212 628 c 128,-1,42
 222 628 222 628 238 642 c 128,-1,35
 254 656 254 656 254 666 c 128,-1,36
307 666 m 128,-1,44
 307 647 307 647 270.5 614 c 128,-1,45
 234 581 234 581 212 581 c 128,-1,46
 190 581 190 581 153.5 613.5 c 128,-1,47
 117 646 117 646 117 665.5 c 128,-1,48
 117 685 117 685 154 717.5 c 128,-1,49
 191 750 191 750 212.5 750 c 128,-1,50
 234 750 234 750 270.5 717.5 c 128,-1,43
 307 685 307 685 307 666 c 128,-1,44
EndSplineSet
EndChar

StartChar: ae
Encoding: 230 230 168
Width: 661
GlyphClass: 2
Flags: W
LayerCount: 2
Fore
SplineSet
158 -12 m 0,0,1
 137 -12 137 -12 73.5 50.5 c 128,-1,2
 10 113 10 113 10 149.5 c 128,-1,3
 10 186 10 186 87.5 249 c 128,-1,4
 165 312 165 312 248 349 c 1,5,6
 248 377 248 377 229 406.5 c 128,-1,7
 210 436 210 436 196 436 c 0,8,9
 171 436 171 436 123 354 c 1,10,-1
 20 425 l 1,11,12
 48 474 48 474 103 512.5 c 128,-1,13
 158 551 158 551 195.5 551 c 128,-1,14
 233 551 233 551 313 475 c 1,15,16
 395 551 395 551 434 551 c 0,17,18
 464 551 464 551 528.5 498 c 128,-1,19
 593 445 593 445 607 415.5 c 128,-1,20
 621 386 621 386 621 271 c 2,21,-1
 621 235 l 1,22,-1
 379 235 l 1,23,24
 379 175 379 175 394 140 c 0,25,26
 399 128 399 128 412 115.5 c 128,-1,27
 425 103 425 103 439 103 c 128,-1,28
 453 103 453 103 474 127 c 128,-1,29
 495 151 495 151 507 185 c 1,30,-1
 610 112 l 1,31,32
 583 62 583 62 527.5 25 c 128,-1,33
 472 -12 472 -12 434 -12 c 0,34,35
 412 -12 412 -12 371 16.5 c 128,-1,36
 330 45 330 45 295 80 c 1,37,38
 210 -12 210 -12 158 -12 c 0,0,1
459.5 423 m 128,-1,40
 444 436 444 436 430.5 436 c 128,-1,41
 417 436 417 436 400 409.5 c 128,-1,42
 383 383 383 383 379 330 c 1,43,-1
 493 330 l 1,44,45
 490 383 490 383 482.5 396.5 c 128,-1,39
 475 410 475 410 459.5 423 c 128,-1,40
144 162 m 128,-1,47
 144 151 144 151 157.5 132 c 128,-1,48
 171 113 171 113 180.5 113 c 128,-1,49
 190 113 190 113 212 127 c 0,50,51
 249 151 249 151 249 171 c 0,52,53
 249 176 249 176 250 202 c 128,-1,54
 251 228 251 228 251 233 c 1,55,56
 217 221 217 221 180.5 197 c 128,-1,46
 144 173 144 173 144 162 c 128,-1,47
EndSplineSet
EndChar

StartChar: ccedilla
Encoding: 231 231 169
Width: 408
GlyphClass: 2
Flags: W
LayerCount: 2
Fore
SplineSet
127 -86 m 0,0,1
 127 -74 127 -74 180 -2 c 1,2,3
 147 15 147 15 104.5 53.5 c 128,-1,4
 62 92 62 92 51 110 c 0,5,6
 30 143 30 143 30 269 c 128,-1,7
 30 395 30 395 51 429 c 0,8,9
 66 454 66 454 125 502.5 c 128,-1,10
 184 551 184 551 216.5 551 c 128,-1,11
 249 551 249 551 304.5 512.5 c 128,-1,12
 360 474 360 474 388 425 c 1,13,-1
 285 354 l 1,14,15
 272 378 272 378 249.5 407 c 128,-1,16
 227 436 227 436 216 436 c 0,17,18
 196 436 196 436 170 394 c 1,19,20
 157 368 157 368 157 269.5 c 128,-1,21
 157 171 157 171 170 145 c 1,22,23
 178 132 178 132 191 117.5 c 128,-1,24
 204 103 204 103 217 103 c 128,-1,25
 230 103 230 103 251 126 c 128,-1,26
 272 149 272 149 285 185 c 1,27,-1
 388 113 l 1,28,29
 366 73 366 73 326.5 41 c 128,-1,30
 287 9 287 9 248 -4 c 1,31,32
 231 -27 231 -27 207 -56 c 1,33,34
 236 -83 236 -83 252 -97 c 128,-1,35
 268 -111 268 -111 278 -120 c 0,36,37
 297 -139 297 -139 297 -147 c 128,-1,38
 297 -155 297 -155 237.5 -202.5 c 128,-1,39
 178 -250 178 -250 171.5 -250 c 128,-1,40
 165 -250 165 -250 146 -231 c 128,-1,41
 127 -212 127 -212 127 -206 c 128,-1,42
 127 -200 127 -200 187 -146 c 1,43,44
 127 -92 127 -92 127 -86 c 0,0,1
EndSplineSet
EndChar

StartChar: egrave
Encoding: 232 232 170
Width: 444
GlyphClass: 2
Flags: W
LayerCount: 2
Fore
SplineSet
404 271 m 2,0,-1
 404 235 l 1,1,-1
 162 235 l 1,2,3
 162 175 162 175 177 140 c 0,4,5
 182 128 182 128 195 115.5 c 128,-1,6
 208 103 208 103 222 103 c 128,-1,7
 236 103 236 103 257 127 c 128,-1,8
 278 151 278 151 290 185 c 1,9,-1
 393 112 l 1,10,11
 366 62 366 62 310.5 25 c 128,-1,12
 255 -12 255 -12 221 -12 c 128,-1,13
 187 -12 187 -12 122.5 41 c 128,-1,14
 58 94 58 94 44 123.5 c 128,-1,15
 30 153 30 153 30 269.5 c 128,-1,16
 30 386 30 386 44 415.5 c 128,-1,17
 58 445 58 445 122.5 498 c 128,-1,18
 187 551 187 551 217 551 c 128,-1,19
 247 551 247 551 311.5 498 c 128,-1,20
 376 445 376 445 390 415.5 c 128,-1,21
 404 386 404 386 404 271 c 2,0,-1
242.5 423 m 128,-1,23
 227 436 227 436 213.5 436 c 128,-1,24
 200 436 200 436 183 409.5 c 128,-1,25
 166 383 166 383 162 330 c 1,26,-1
 276 330 l 1,27,28
 273 383 273 383 265.5 396.5 c 128,-1,22
 258 410 258 410 242.5 423 c 128,-1,23
93 685 m 0,29,30
 93 695 93 695 125.5 722.5 c 128,-1,31
 158 750 158 750 167.5 750 c 128,-1,32
 177 750 177 750 229 686 c 128,-1,33
 281 622 281 622 281 615.5 c 128,-1,34
 281 609 281 609 266 594.5 c 128,-1,35
 251 580 251 580 244 580 c 128,-1,36
 237 580 237 580 165 625.5 c 128,-1,37
 93 671 93 671 93 685 c 0,29,30
EndSplineSet
EndChar

StartChar: eacute
Encoding: 233 233 171
Width: 444
GlyphClass: 2
Flags: W
LayerCount: 2
Fore
SplineSet
404 271 m 2,0,-1
 404 235 l 1,1,-1
 162 235 l 1,2,3
 162 175 162 175 177 140 c 0,4,5
 182 128 182 128 195 115.5 c 128,-1,6
 208 103 208 103 222 103 c 128,-1,7
 236 103 236 103 257 127 c 128,-1,8
 278 151 278 151 290 185 c 1,9,-1
 393 112 l 1,10,11
 366 62 366 62 310.5 25 c 128,-1,12
 255 -12 255 -12 221 -12 c 128,-1,13
 187 -12 187 -12 122.5 41 c 128,-1,14
 58 94 58 94 44 123.5 c 128,-1,15
 30 153 30 153 30 269.5 c 128,-1,16
 30 386 30 386 44 415.5 c 128,-1,17
 58 445 58 445 122.5 498 c 128,-1,18
 187 551 187 551 217 551 c 128,-1,19
 247 551 247 551 311.5 498 c 128,-1,20
 376 445 376 445 390 415.5 c 128,-1,21
 404 386 404 386 404 271 c 2,0,-1
242.5 423 m 128,-1,23
 227 436 227 436 213.5 436 c 128,-1,24
 200 436 200 436 183 409.5 c 128,-1,25
 166 383 166 383 162 330 c 1,26,-1
 276 330 l 1,27,28
 273 383 273 383 265.5 396.5 c 128,-1,22
 258 410 258 410 242.5 423 c 128,-1,23
331 685 m 0,29,30
 331 671 331 671 259 625.5 c 128,-1,31
 187 580 187 580 180 580 c 128,-1,32
 173 580 173 580 158 594.5 c 128,-1,33
 143 609 143 609 143 615.5 c 128,-1,34
 143 622 143 622 195 686 c 128,-1,35
 247 750 247 750 256.5 750 c 128,-1,36
 266 750 266 750 298.5 722.5 c 128,-1,37
 331 695 331 695 331 685 c 0,29,30
EndSplineSet
EndChar

StartChar: ecircumflex
Encoding: 234 234 172
Width: 444
GlyphClass: 2
Flags: W
LayerCount: 2
Fore
SplineSet
404 271 m 2,0,-1
 404 235 l 1,1,-1
 162 235 l 1,2,3
 162 175 162 175 177 140 c 0,4,5
 182 128 182 128 195 115.5 c 128,-1,6
 208 103 208 103 222 103 c 128,-1,7
 236 103 236 103 257 127 c 128,-1,8
 278 151 278 151 290 185 c 1,9,-1
 393 112 l 1,10,11
 366 62 366 62 310.5 25 c 128,-1,12
 255 -12 255 -12 221 -12 c 128,-1,13
 187 -12 187 -12 122.5 41 c 128,-1,14
 58 94 58 94 44 123.5 c 128,-1,15
 30 153 30 153 30 269.5 c 128,-1,16
 30 386 30 386 44 415.5 c 128,-1,17
 58 445 58 445 122.5 498 c 128,-1,18
 187 551 187 551 217 551 c 128,-1,19
 247 551 247 551 311.5 498 c 128,-1,20
 376 445 376 445 390 415.5 c 128,-1,21
 404 386 404 386 404 271 c 2,0,-1
242.5 423 m 128,-1,23
 227 436 227 436 213.5 436 c 128,-1,24
 200 436 200 436 183 409.5 c 128,-1,25
 166 383 166 383 162 330 c 1,26,-1
 276 330 l 1,27,28
 273 383 273 383 265.5 396.5 c 128,-1,22
 258 410 258 410 242.5 423 c 128,-1,23
217 640 m 1,29,30
 139 580 139 580 130 580 c 128,-1,31
 121 580 121 580 102 599 c 128,-1,32
 83 618 83 618 83 624.5 c 128,-1,33
 83 631 83 631 144.5 690.5 c 128,-1,34
 206 750 206 750 217 750 c 128,-1,35
 228 750 228 750 289.5 690.5 c 128,-1,36
 351 631 351 631 351 624.5 c 128,-1,37
 351 618 351 618 332 599 c 128,-1,38
 313 580 313 580 304 580 c 128,-1,39
 295 580 295 580 217 640 c 1,29,30
EndSplineSet
EndChar

StartChar: edieresis
Encoding: 235 235 173
Width: 444
GlyphClass: 2
Flags: W
LayerCount: 2
Fore
SplineSet
404 271 m 2,0,-1
 404 235 l 1,1,-1
 162 235 l 1,2,3
 162 175 162 175 177 140 c 0,4,5
 182 128 182 128 195 115.5 c 128,-1,6
 208 103 208 103 222 103 c 128,-1,7
 236 103 236 103 257 127 c 128,-1,8
 278 151 278 151 290 185 c 1,9,-1
 393 112 l 1,10,11
 366 62 366 62 310.5 25 c 128,-1,12
 255 -12 255 -12 221 -12 c 128,-1,13
 187 -12 187 -12 122.5 41 c 128,-1,14
 58 94 58 94 44 123.5 c 128,-1,15
 30 153 30 153 30 269.5 c 128,-1,16
 30 386 30 386 44 415.5 c 128,-1,17
 58 445 58 445 122.5 498 c 128,-1,18
 187 551 187 551 217 551 c 128,-1,19
 247 551 247 551 311.5 498 c 128,-1,20
 376 445 376 445 390 415.5 c 128,-1,21
 404 386 404 386 404 271 c 2,0,-1
242.5 423 m 128,-1,23
 227 436 227 436 213.5 436 c 128,-1,24
 200 436 200 436 183 409.5 c 128,-1,25
 166 383 166 383 162 330 c 1,26,-1
 276 330 l 1,27,28
 273 383 273 383 265.5 396.5 c 128,-1,22
 258 410 258 410 242.5 423 c 128,-1,23
192 685 m 128,-1,30
 192 675 192 675 159.5 647.5 c 128,-1,31
 127 620 127 620 118 620 c 128,-1,32
 109 620 109 620 76.5 647.5 c 128,-1,33
 44 675 44 675 44 685 c 128,-1,34
 44 695 44 695 77 722.5 c 128,-1,35
 110 750 110 750 118.5 750 c 128,-1,36
 127 750 127 750 159.5 722.5 c 128,-1,29
 192 695 192 695 192 685 c 128,-1,30
390 685 m 128,-1,38
 390 675 390 675 357.5 647.5 c 128,-1,39
 325 620 325 620 316 620 c 128,-1,40
 307 620 307 620 274.5 647.5 c 128,-1,41
 242 675 242 675 242 685 c 128,-1,42
 242 695 242 695 275 722.5 c 128,-1,43
 308 750 308 750 316.5 750 c 128,-1,44
 325 750 325 750 357.5 722.5 c 128,-1,37
 390 695 390 695 390 685 c 128,-1,38
EndSplineSet
EndChar

StartChar: igrave
Encoding: 236 236 174
Width: 251
GlyphClass: 2
Flags: W
LayerCount: 2
Fore
SplineSet
54 539 m 1,0,-1
 186 539 l 1,1,-1
 186 193 l 2,2,3
 186 142 186 142 198 114 c 128,-1,4
 210 86 210 86 236 65 c 1,5,-1
 126 -12 l 1,6,7
 54 45 54 45 54 150 c 2,8,-1
 54 539 l 1,0,-1
37 685 m 0,9,10
 37 695 37 695 69.5 722.5 c 128,-1,11
 102 750 102 750 111.5 750 c 128,-1,12
 121 750 121 750 173 686 c 128,-1,13
 225 622 225 622 225 615.5 c 128,-1,14
 225 609 225 609 210 594.5 c 128,-1,15
 195 580 195 580 188 580 c 128,-1,16
 181 580 181 580 109 625.5 c 128,-1,17
 37 671 37 671 37 685 c 0,9,10
EndSplineSet
EndChar

StartChar: iacute
Encoding: 237 237 175
Width: 251
GlyphClass: 2
Flags: W
LayerCount: 2
Fore
SplineSet
54 539 m 1,0,-1
 186 539 l 1,1,-1
 186 193 l 2,2,3
 186 142 186 142 198 114 c 128,-1,4
 210 86 210 86 236 65 c 1,5,-1
 126 -12 l 1,6,7
 54 45 54 45 54 150 c 2,8,-1
 54 539 l 1,0,-1
225 685 m 0,9,10
 225 671 225 671 153 625.5 c 128,-1,11
 81 580 81 580 74 580 c 128,-1,12
 67 580 67 580 52 594.5 c 128,-1,13
 37 609 37 609 37 615.5 c 128,-1,14
 37 622 37 622 89 686 c 128,-1,15
 141 750 141 750 150.5 750 c 128,-1,16
 160 750 160 750 192.5 722.5 c 128,-1,17
 225 695 225 695 225 685 c 0,9,10
EndSplineSet
EndChar

StartChar: icircumflex
Encoding: 238 238 176
Width: 251
GlyphClass: 2
Flags: W
LayerCount: 2
Fore
SplineSet
54 539 m 1,0,-1
 186 539 l 1,1,-1
 186 193 l 2,2,3
 186 142 186 142 198 114 c 128,-1,4
 210 86 210 86 236 65 c 1,5,-1
 126 -12 l 1,6,7
 54 45 54 45 54 150 c 2,8,-1
 54 539 l 1,0,-1
131 640 m 1,9,10
 53 580 53 580 44 580 c 128,-1,11
 35 580 35 580 16 599 c 128,-1,12
 -3 618 -3 618 -3 624.5 c 128,-1,13
 -3 631 -3 631 58.5 690.5 c 128,-1,14
 120 750 120 750 131 750 c 128,-1,15
 142 750 142 750 203.5 690.5 c 128,-1,16
 265 631 265 631 265 624.5 c 128,-1,17
 265 618 265 618 246 599 c 128,-1,18
 227 580 227 580 218 580 c 128,-1,19
 209 580 209 580 131 640 c 1,9,10
EndSplineSet
EndChar

StartChar: idieresis
Encoding: 239 239 177
Width: 251
GlyphClass: 2
Flags: W
LayerCount: 2
Fore
SplineSet
109 685 m 128,-1,1
 109 675 109 675 76.5 647.5 c 128,-1,2
 44 620 44 620 35 620 c 128,-1,3
 26 620 26 620 -6.5 647.5 c 128,-1,4
 -39 675 -39 675 -39 685 c 128,-1,5
 -39 695 -39 695 -6 722.5 c 128,-1,6
 27 750 27 750 35.5 750 c 128,-1,7
 44 750 44 750 76.5 722.5 c 128,-1,0
 109 695 109 695 109 685 c 128,-1,1
307 685 m 128,-1,9
 307 675 307 675 274.5 647.5 c 128,-1,10
 242 620 242 620 233 620 c 128,-1,11
 224 620 224 620 191.5 647.5 c 128,-1,12
 159 675 159 675 159 685 c 128,-1,13
 159 695 159 695 192 722.5 c 128,-1,14
 225 750 225 750 233.5 750 c 128,-1,15
 242 750 242 750 274.5 722.5 c 128,-1,8
 307 695 307 695 307 685 c 128,-1,9
54 539 m 1,16,-1
 186 539 l 1,17,-1
 186 193 l 2,18,19
 186 142 186 142 198 114 c 128,-1,20
 210 86 210 86 236 65 c 1,21,-1
 126 -12 l 1,22,23
 54 45 54 45 54 150 c 2,24,-1
 54 539 l 1,16,-1
EndSplineSet
EndChar

StartChar: eth
Encoding: 240 240 178
Width: 464
GlyphClass: 2
Flags: W
LayerCount: 2
Fore
SplineSet
222 -12 m 128,-1,1
 192 -12 192 -12 127 41 c 128,-1,2
 62 94 62 94 51 118.5 c 128,-1,3
 40 143 40 143 40 259.5 c 128,-1,4
 40 376 40 376 51 400.5 c 128,-1,5
 62 425 62 425 127 478 c 128,-1,6
 192 531 192 531 222 531 c 0,7,8
 226 531 226 531 228 530 c 1,9,10
 211 554 211 554 188 576 c 1,11,12
 115 526 115 526 104.5 526 c 128,-1,13
 94 526 94 526 65 550.5 c 128,-1,14
 36 575 36 575 36 584 c 128,-1,15
 36 593 36 593 103 642 c 1,16,17
 68 663 68 663 33 675 c 1,18,-1
 139 750 l 1,19,-1
 200 711 l 1,20,21
 258 750 258 750 268 750 c 128,-1,22
 278 750 278 750 306.5 725.5 c 128,-1,23
 335 701 335 701 335 693.5 c 128,-1,24
 335 686 335 686 284 646 c 1,25,26
 356 594 356 594 380 498 c 128,-1,27
 404 402 404 402 404 272.5 c 128,-1,28
 404 143 404 143 393 118.5 c 128,-1,29
 382 94 382 94 317 41 c 128,-1,0
 252 -12 252 -12 222 -12 c 128,-1,1
222 103 m 128,-1,31
 233 103 233 103 248.5 116 c 128,-1,32
 264 129 264 129 270.5 143 c 128,-1,33
 277 157 277 157 277 259.5 c 128,-1,34
 277 362 277 362 270.5 375.5 c 128,-1,35
 264 389 264 389 248 402.5 c 128,-1,36
 232 416 232 416 221.5 416 c 128,-1,37
 211 416 211 416 195.5 403 c 128,-1,38
 180 390 180 390 173.5 376 c 128,-1,39
 167 362 167 362 167 259.5 c 128,-1,40
 167 157 167 157 173.5 143 c 128,-1,41
 180 129 180 129 195.5 116 c 128,-1,30
 211 103 211 103 222 103 c 128,-1,31
EndSplineSet
EndChar

StartChar: ntilde
Encoding: 241 241 179
Width: 503
GlyphClass: 2
Flags: W
LayerCount: 2
Fore
SplineSet
197 0 m 1,0,-1
 65 0 l 1,1,-1
 65 345 l 2,2,3
 65 396 65 396 53 424 c 128,-1,4
 41 452 41 452 15 473 c 1,5,-1
 125 550 l 1,6,7
 162 520 162 520 180 481 c 1,8,9
 254 551 254 551 284.5 551 c 128,-1,10
 315 551 315 551 376.5 495.5 c 128,-1,11
 438 440 438 440 438 386 c 2,12,-1
 438 193 l 2,13,14
 438 142 438 142 450 114 c 128,-1,15
 462 86 462 86 488 65 c 1,16,-1
 378 -12 l 1,17,18
 306 45 306 45 306 150 c 2,19,-1
 306 372 l 2,20,21
 306 389 306 389 288 407.5 c 128,-1,22
 270 426 270 426 254.5 426 c 128,-1,23
 239 426 239 426 197 384 c 1,24,-1
 197 0 l 1,0,-1
368.5 639.5 m 128,-1,26
 307 580 307 580 295.5 580 c 128,-1,27
 284 580 284 580 206 640 c 1,28,29
 128 580 128 580 119 580 c 128,-1,30
 110 580 110 580 91 599 c 128,-1,31
 72 618 72 618 72 624.5 c 128,-1,32
 72 631 72 631 133.5 690.5 c 128,-1,33
 195 750 195 750 206.5 750 c 128,-1,34
 218 750 218 750 296 690 c 1,35,36
 374 750 374 750 383 750 c 128,-1,37
 392 750 392 750 411 731 c 128,-1,38
 430 712 430 712 430 705.5 c 128,-1,25
 430 699 430 699 368.5 639.5 c 128,-1,26
EndSplineSet
EndChar

StartChar: ograve
Encoding: 242 242 180
Width: 434
GlyphClass: 2
Flags: W
LayerCount: 2
Fore
SplineSet
217 103 m 128,-1,1
 226 103 226 103 241.5 118 c 128,-1,2
 257 133 257 133 264 145 c 0,3,4
 277 167 277 167 277 269 c 128,-1,5
 277 371 277 371 264 394 c 0,6,7
 257 406 257 406 241.5 421 c 128,-1,8
 226 436 226 436 217 436 c 128,-1,9
 208 436 208 436 192.5 421 c 128,-1,10
 177 406 177 406 170 394 c 0,11,12
 157 372 157 372 157 270 c 128,-1,13
 157 168 157 168 170 145 c 0,14,15
 177 133 177 133 192.5 118 c 128,-1,0
 208 103 208 103 217 103 c 128,-1,1
217 -12 m 128,-1,17
 188 -12 188 -12 126.5 37 c 128,-1,18
 65 86 65 86 51 110 c 0,19,20
 30 147 30 147 30 270 c 128,-1,21
 30 393 30 393 51 429 c 0,22,23
 65 453 65 453 126.5 502 c 128,-1,24
 188 551 188 551 217 551 c 128,-1,25
 246 551 246 551 307.5 502 c 128,-1,26
 369 453 369 453 383 429 c 0,27,28
 404 393 404 393 404 270 c 128,-1,29
 404 147 404 147 383 110 c 0,30,31
 369 86 369 86 307.5 37 c 128,-1,16
 246 -12 246 -12 217 -12 c 128,-1,17
123 685 m 0,32,33
 123 695 123 695 155.5 722.5 c 128,-1,34
 188 750 188 750 197.5 750 c 128,-1,35
 207 750 207 750 259 686 c 128,-1,36
 311 622 311 622 311 615.5 c 128,-1,37
 311 609 311 609 296 594.5 c 128,-1,38
 281 580 281 580 274 580 c 128,-1,39
 267 580 267 580 195 625.5 c 128,-1,40
 123 671 123 671 123 685 c 0,32,33
EndSplineSet
EndChar

StartChar: oacute
Encoding: 243 243 181
Width: 434
GlyphClass: 2
Flags: W
LayerCount: 2
Fore
SplineSet
217 103 m 128,-1,1
 226 103 226 103 241.5 118 c 128,-1,2
 257 133 257 133 264 145 c 0,3,4
 277 167 277 167 277 269 c 128,-1,5
 277 371 277 371 264 394 c 0,6,7
 257 406 257 406 241.5 421 c 128,-1,8
 226 436 226 436 217 436 c 128,-1,9
 208 436 208 436 192.5 421 c 128,-1,10
 177 406 177 406 170 394 c 0,11,12
 157 372 157 372 157 270 c 128,-1,13
 157 168 157 168 170 145 c 0,14,15
 177 133 177 133 192.5 118 c 128,-1,0
 208 103 208 103 217 103 c 128,-1,1
217 -12 m 128,-1,17
 188 -12 188 -12 126.5 37 c 128,-1,18
 65 86 65 86 51 110 c 0,19,20
 30 147 30 147 30 270 c 128,-1,21
 30 393 30 393 51 429 c 0,22,23
 65 453 65 453 126.5 502 c 128,-1,24
 188 551 188 551 217 551 c 128,-1,25
 246 551 246 551 307.5 502 c 128,-1,26
 369 453 369 453 383 429 c 0,27,28
 404 393 404 393 404 270 c 128,-1,29
 404 147 404 147 383 110 c 0,30,31
 369 86 369 86 307.5 37 c 128,-1,16
 246 -12 246 -12 217 -12 c 128,-1,17
311 685 m 0,32,33
 311 671 311 671 239 625.5 c 128,-1,34
 167 580 167 580 160 580 c 128,-1,35
 153 580 153 580 138 594.5 c 128,-1,36
 123 609 123 609 123 615.5 c 128,-1,37
 123 622 123 622 175 686 c 128,-1,38
 227 750 227 750 236.5 750 c 128,-1,39
 246 750 246 750 278.5 722.5 c 128,-1,40
 311 695 311 695 311 685 c 0,32,33
EndSplineSet
EndChar

StartChar: ocircumflex
Encoding: 244 244 182
Width: 434
GlyphClass: 2
Flags: W
LayerCount: 2
Fore
SplineSet
217 103 m 128,-1,1
 226 103 226 103 241.5 118 c 128,-1,2
 257 133 257 133 264 145 c 0,3,4
 277 167 277 167 277 269 c 128,-1,5
 277 371 277 371 264 394 c 0,6,7
 257 406 257 406 241.5 421 c 128,-1,8
 226 436 226 436 217 436 c 128,-1,9
 208 436 208 436 192.5 421 c 128,-1,10
 177 406 177 406 170 394 c 0,11,12
 157 372 157 372 157 270 c 128,-1,13
 157 168 157 168 170 145 c 0,14,15
 177 133 177 133 192.5 118 c 128,-1,0
 208 103 208 103 217 103 c 128,-1,1
217 -12 m 128,-1,17
 188 -12 188 -12 126.5 37 c 128,-1,18
 65 86 65 86 51 110 c 0,19,20
 30 147 30 147 30 270 c 128,-1,21
 30 393 30 393 51 429 c 0,22,23
 65 453 65 453 126.5 502 c 128,-1,24
 188 551 188 551 217 551 c 128,-1,25
 246 551 246 551 307.5 502 c 128,-1,26
 369 453 369 453 383 429 c 0,27,28
 404 393 404 393 404 270 c 128,-1,29
 404 147 404 147 383 110 c 0,30,31
 369 86 369 86 307.5 37 c 128,-1,16
 246 -12 246 -12 217 -12 c 128,-1,17
217 640 m 1,32,33
 139 580 139 580 130 580 c 128,-1,34
 121 580 121 580 102 599 c 128,-1,35
 83 618 83 618 83 624.5 c 128,-1,36
 83 631 83 631 144.5 690.5 c 128,-1,37
 206 750 206 750 217 750 c 128,-1,38
 228 750 228 750 289.5 690.5 c 128,-1,39
 351 631 351 631 351 624.5 c 128,-1,40
 351 618 351 618 332 599 c 128,-1,41
 313 580 313 580 304 580 c 128,-1,42
 295 580 295 580 217 640 c 1,32,33
EndSplineSet
EndChar

StartChar: otilde
Encoding: 245 245 183
Width: 434
GlyphClass: 2
Flags: W
LayerCount: 2
Fore
SplineSet
217 103 m 128,-1,1
 226 103 226 103 241.5 118 c 128,-1,2
 257 133 257 133 264 145 c 0,3,4
 277 167 277 167 277 269 c 128,-1,5
 277 371 277 371 264 394 c 0,6,7
 257 406 257 406 241.5 421 c 128,-1,8
 226 436 226 436 217 436 c 128,-1,9
 208 436 208 436 192.5 421 c 128,-1,10
 177 406 177 406 170 394 c 0,11,12
 157 372 157 372 157 270 c 128,-1,13
 157 168 157 168 170 145 c 0,14,15
 177 133 177 133 192.5 118 c 128,-1,0
 208 103 208 103 217 103 c 128,-1,1
217 -12 m 128,-1,17
 188 -12 188 -12 126.5 37 c 128,-1,18
 65 86 65 86 51 110 c 0,19,20
 30 147 30 147 30 270 c 128,-1,21
 30 393 30 393 51 429 c 0,22,23
 65 453 65 453 126.5 502 c 128,-1,24
 188 551 188 551 217 551 c 128,-1,25
 246 551 246 551 307.5 502 c 128,-1,26
 369 453 369 453 383 429 c 0,27,28
 404 393 404 393 404 270 c 128,-1,29
 404 147 404 147 383 110 c 0,30,31
 369 86 369 86 307.5 37 c 128,-1,16
 246 -12 246 -12 217 -12 c 128,-1,17
334.5 639.5 m 128,-1,33
 273 580 273 580 261.5 580 c 128,-1,34
 250 580 250 580 172 640 c 1,35,36
 94 580 94 580 85 580 c 128,-1,37
 76 580 76 580 57 599 c 128,-1,38
 38 618 38 618 38 624.5 c 128,-1,39
 38 631 38 631 99.5 690.5 c 128,-1,40
 161 750 161 750 172.5 750 c 128,-1,41
 184 750 184 750 262 690 c 1,42,43
 340 750 340 750 349 750 c 128,-1,44
 358 750 358 750 377 731 c 128,-1,45
 396 712 396 712 396 705.5 c 128,-1,32
 396 699 396 699 334.5 639.5 c 128,-1,33
EndSplineSet
EndChar

StartChar: odieresis
Encoding: 246 246 184
Width: 434
GlyphClass: 2
Flags: W
LayerCount: 2
Fore
SplineSet
217 103 m 128,-1,1
 226 103 226 103 241.5 118 c 128,-1,2
 257 133 257 133 264 145 c 0,3,4
 277 167 277 167 277 269 c 128,-1,5
 277 371 277 371 264 394 c 0,6,7
 257 406 257 406 241.5 421 c 128,-1,8
 226 436 226 436 217 436 c 128,-1,9
 208 436 208 436 192.5 421 c 128,-1,10
 177 406 177 406 170 394 c 0,11,12
 157 372 157 372 157 270 c 128,-1,13
 157 168 157 168 170 145 c 0,14,15
 177 133 177 133 192.5 118 c 128,-1,0
 208 103 208 103 217 103 c 128,-1,1
217 -12 m 128,-1,17
 188 -12 188 -12 126.5 37 c 128,-1,18
 65 86 65 86 51 110 c 0,19,20
 30 147 30 147 30 270 c 128,-1,21
 30 393 30 393 51 429 c 0,22,23
 65 453 65 453 126.5 502 c 128,-1,24
 188 551 188 551 217 551 c 128,-1,25
 246 551 246 551 307.5 502 c 128,-1,26
 369 453 369 453 383 429 c 0,27,28
 404 393 404 393 404 270 c 128,-1,29
 404 147 404 147 383 110 c 0,30,31
 369 86 369 86 307.5 37 c 128,-1,16
 246 -12 246 -12 217 -12 c 128,-1,17
192 685 m 128,-1,33
 192 675 192 675 159.5 647.5 c 128,-1,34
 127 620 127 620 118 620 c 128,-1,35
 109 620 109 620 76.5 647.5 c 128,-1,36
 44 675 44 675 44 685 c 128,-1,37
 44 695 44 695 77 722.5 c 128,-1,38
 110 750 110 750 118.5 750 c 128,-1,39
 127 750 127 750 159.5 722.5 c 128,-1,32
 192 695 192 695 192 685 c 128,-1,33
390 685 m 128,-1,41
 390 675 390 675 357.5 647.5 c 128,-1,42
 325 620 325 620 316 620 c 128,-1,43
 307 620 307 620 274.5 647.5 c 128,-1,44
 242 675 242 675 242 685 c 128,-1,45
 242 695 242 695 275 722.5 c 128,-1,46
 308 750 308 750 316.5 750 c 128,-1,47
 325 750 325 750 357.5 722.5 c 128,-1,40
 390 695 390 695 390 685 c 128,-1,41
EndSplineSet
EndChar

StartChar: divide
Encoding: 247 247 185
Width: 494
GlyphClass: 2
Flags: W
LayerCount: 2
Fore
SplineSet
55 241 m 1,0,-1
 55 359 l 1,1,-1
 439 359 l 1,2,-1
 439 241 l 1,3,-1
 55 241 l 1,0,-1
285 498.5 m 128,-1,5
 320 469 320 469 320 458.5 c 128,-1,6
 320 448 320 448 285 417.5 c 128,-1,7
 250 387 250 387 240 387 c 128,-1,8
 230 387 230 387 195 417.5 c 128,-1,9
 160 448 160 448 160 458.5 c 128,-1,10
 160 469 160 469 195.5 498.5 c 128,-1,11
 231 528 231 528 240.5 528 c 128,-1,4
 250 528 250 528 285 498.5 c 128,-1,5
285 183.5 m 128,-1,13
 320 154 320 154 320 143.5 c 128,-1,14
 320 133 320 133 285 102.5 c 128,-1,15
 250 72 250 72 240 72 c 128,-1,16
 230 72 230 72 195 102.5 c 128,-1,17
 160 133 160 133 160 143.5 c 128,-1,18
 160 154 160 154 195.5 183.5 c 128,-1,19
 231 213 231 213 240.5 213 c 128,-1,12
 250 213 250 213 285 183.5 c 128,-1,13
EndSplineSet
EndChar

StartChar: oslash
Encoding: 248 248 186
Width: 424
GlyphClass: 2
Flags: W
LayerCount: 2
Fore
SplineSet
307 41 m 128,-1,1
 242 -12 242 -12 210.5 -12 c 128,-1,2
 179 -12 179 -12 104 51 c 1,3,4
 66 -12 66 -12 64 -12 c 0,5,6
 60 -12 60 -12 50 -3 c 128,-1,7
 40 6 40 6 40 9 c 128,-1,8
 40 12 40 12 77 76 c 1,9,10
 46 107 46 107 41 120 c 0,11,12
 30 145 30 145 30 269.5 c 128,-1,13
 30 394 30 394 41 419.5 c 128,-1,14
 52 445 52 445 117 498 c 128,-1,15
 182 551 182 551 215 551 c 128,-1,16
 248 551 248 551 322 485 c 1,17,18
 362 551 362 551 364 551 c 0,19,20
 368 551 368 551 378 542.5 c 128,-1,21
 388 534 388 534 388 531 c 128,-1,22
 388 528 388 528 348 460 c 1,23,24
 377 433 377 433 385.5 413.5 c 128,-1,25
 394 394 394 394 394 269.5 c 128,-1,26
 394 145 394 145 383 119.5 c 128,-1,0
 372 94 372 94 307 41 c 128,-1,1
212 440 m 128,-1,28
 201 440 201 440 184 427 c 128,-1,29
 167 414 167 414 160.5 399.5 c 128,-1,30
 154 385 154 385 154 268 c 2,31,-1
 154 206 l 1,32,33
 182 254 182 254 265 391 c 1,34,-1
 262 403 l 1,35,36
 257 414 257 414 240 427 c 128,-1,27
 223 440 223 440 212 440 c 128,-1,28
212 99 m 128,-1,38
 223 99 223 99 240 112 c 128,-1,39
 257 125 257 125 263.5 139.5 c 128,-1,40
 270 154 270 154 270 232 c 128,-1,41
 270 310 270 310 269 327 c 1,42,-1
 160 143 l 1,43,44
 160 130 160 130 180.5 114.5 c 128,-1,37
 201 99 201 99 212 99 c 128,-1,38
EndSplineSet
EndChar

StartChar: ugrave
Encoding: 249 249 187
Width: 513
GlyphClass: 2
Flags: W
LayerCount: 2
Fore
SplineSet
80 539 m 1,0,-1
 212 539 l 1,1,-1
 212 167 l 2,2,3
 212 150 212 150 228 131.5 c 128,-1,4
 244 113 244 113 258 113 c 128,-1,5
 272 113 272 113 316 154 c 1,6,-1
 316 539 l 1,7,-1
 448 539 l 1,8,-1
 448 0 l 1,9,-1
 346 0 l 1,10,-1
 334 59 l 1,11,12
 259 -12 259 -12 229 -12 c 128,-1,13
 199 -12 199 -12 139.5 43.5 c 128,-1,14
 80 99 80 99 80 153 c 2,15,-1
 80 539 l 1,0,-1
162 685 m 0,16,17
 162 695 162 695 194.5 722.5 c 128,-1,18
 227 750 227 750 236.5 750 c 128,-1,19
 246 750 246 750 298 686 c 128,-1,20
 350 622 350 622 350 615.5 c 128,-1,21
 350 609 350 609 335 594.5 c 128,-1,22
 320 580 320 580 313 580 c 128,-1,23
 306 580 306 580 234 625.5 c 128,-1,24
 162 671 162 671 162 685 c 0,16,17
EndSplineSet
EndChar

StartChar: uacute
Encoding: 250 250 188
Width: 513
GlyphClass: 2
Flags: W
LayerCount: 2
Fore
SplineSet
80 539 m 1,0,-1
 212 539 l 1,1,-1
 212 167 l 2,2,3
 212 150 212 150 228 131.5 c 128,-1,4
 244 113 244 113 258 113 c 128,-1,5
 272 113 272 113 316 154 c 1,6,-1
 316 539 l 1,7,-1
 448 539 l 1,8,-1
 448 0 l 1,9,-1
 346 0 l 1,10,-1
 334 59 l 1,11,12
 259 -12 259 -12 229 -12 c 128,-1,13
 199 -12 199 -12 139.5 43.5 c 128,-1,14
 80 99 80 99 80 153 c 2,15,-1
 80 539 l 1,0,-1
350 685 m 0,16,17
 350 671 350 671 278 625.5 c 128,-1,18
 206 580 206 580 199 580 c 128,-1,19
 192 580 192 580 177 594.5 c 128,-1,20
 162 609 162 609 162 615.5 c 128,-1,21
 162 622 162 622 214 686 c 128,-1,22
 266 750 266 750 275.5 750 c 128,-1,23
 285 750 285 750 317.5 722.5 c 128,-1,24
 350 695 350 695 350 685 c 0,16,17
EndSplineSet
EndChar

StartChar: ucircumflex
Encoding: 251 251 189
Width: 513
GlyphClass: 2
Flags: W
LayerCount: 2
Fore
SplineSet
80 539 m 1,0,-1
 212 539 l 1,1,-1
 212 167 l 2,2,3
 212 150 212 150 228 131.5 c 128,-1,4
 244 113 244 113 258 113 c 128,-1,5
 272 113 272 113 316 154 c 1,6,-1
 316 539 l 1,7,-1
 448 539 l 1,8,-1
 448 0 l 1,9,-1
 346 0 l 1,10,-1
 334 59 l 1,11,12
 259 -12 259 -12 229 -12 c 128,-1,13
 199 -12 199 -12 139.5 43.5 c 128,-1,14
 80 99 80 99 80 153 c 2,15,-1
 80 539 l 1,0,-1
256 640 m 1,16,17
 178 580 178 580 169 580 c 128,-1,18
 160 580 160 580 141 599 c 128,-1,19
 122 618 122 618 122 624.5 c 128,-1,20
 122 631 122 631 183.5 690.5 c 128,-1,21
 245 750 245 750 256 750 c 128,-1,22
 267 750 267 750 328.5 690.5 c 128,-1,23
 390 631 390 631 390 624.5 c 128,-1,24
 390 618 390 618 371 599 c 128,-1,25
 352 580 352 580 343 580 c 128,-1,26
 334 580 334 580 256 640 c 1,16,17
EndSplineSet
EndChar

StartChar: udieresis
Encoding: 252 252 190
Width: 513
GlyphClass: 2
Flags: W
LayerCount: 2
Fore
SplineSet
80 539 m 1,0,-1
 212 539 l 1,1,-1
 212 167 l 2,2,3
 212 150 212 150 228 131.5 c 128,-1,4
 244 113 244 113 258 113 c 128,-1,5
 272 113 272 113 316 154 c 1,6,-1
 316 539 l 1,7,-1
 448 539 l 1,8,-1
 448 0 l 1,9,-1
 346 0 l 1,10,-1
 334 59 l 1,11,12
 259 -12 259 -12 229 -12 c 128,-1,13
 199 -12 199 -12 139.5 43.5 c 128,-1,14
 80 99 80 99 80 153 c 2,15,-1
 80 539 l 1,0,-1
231 685 m 128,-1,17
 231 675 231 675 198.5 647.5 c 128,-1,18
 166 620 166 620 157 620 c 128,-1,19
 148 620 148 620 115.5 647.5 c 128,-1,20
 83 675 83 675 83 685 c 128,-1,21
 83 695 83 695 116 722.5 c 128,-1,22
 149 750 149 750 157.5 750 c 128,-1,23
 166 750 166 750 198.5 722.5 c 128,-1,16
 231 695 231 695 231 685 c 128,-1,17
429 685 m 128,-1,25
 429 675 429 675 396.5 647.5 c 128,-1,26
 364 620 364 620 355 620 c 128,-1,27
 346 620 346 620 313.5 647.5 c 128,-1,28
 281 675 281 675 281 685 c 128,-1,29
 281 695 281 695 314 722.5 c 128,-1,30
 347 750 347 750 355.5 750 c 128,-1,31
 364 750 364 750 396.5 722.5 c 128,-1,24
 429 695 429 695 429 685 c 128,-1,25
EndSplineSet
EndChar

StartChar: yacute
Encoding: 253 253 191
Width: 513
GlyphClass: 2
Flags: W
LayerCount: 2
Fore
SplineSet
316 539 m 1,0,-1
 448 539 l 1,1,-1
 448 33 l 2,2,3
 448 -86 448 -86 433 -115 c 128,-1,4
 418 -144 418 -144 354.5 -197 c 128,-1,5
 291 -250 291 -250 258 -250 c 128,-1,6
 225 -250 225 -250 173 -215.5 c 128,-1,7
 121 -181 121 -181 95 -136 c 1,8,-1
 198 -65 l 1,9,-1
 208 -78 l 2,10,11
 245 -125 245 -125 258.5 -125 c 128,-1,12
 272 -125 272 -125 287.5 -112 c 128,-1,13
 303 -99 303 -99 309.5 -86 c 128,-1,14
 316 -73 316 -73 316 8 c 2,15,-1
 316 62 l 1,16,17
 260 8 260 8 232.5 8 c 128,-1,18
 205 8 205 8 142.5 63.5 c 128,-1,19
 80 119 80 119 80 173 c 2,20,-1
 80 346 l 2,21,22
 80 397 80 397 68 425 c 128,-1,23
 56 453 56 453 30 474 c 1,24,-1
 140 551 l 1,25,26
 212 494 212 494 212 389 c 2,27,-1
 212 187 l 2,28,29
 212 170 212 170 231 151.5 c 128,-1,30
 250 133 250 133 264 133 c 128,-1,31
 278 133 278 133 316 174 c 1,32,-1
 316 539 l 1,0,-1
360 685 m 0,33,34
 360 671 360 671 288 625.5 c 128,-1,35
 216 580 216 580 209 580 c 128,-1,36
 202 580 202 580 187 594.5 c 128,-1,37
 172 609 172 609 172 615.5 c 128,-1,38
 172 622 172 622 224 686 c 128,-1,39
 276 750 276 750 285.5 750 c 128,-1,40
 295 750 295 750 327.5 722.5 c 128,-1,41
 360 695 360 695 360 685 c 0,33,34
EndSplineSet
EndChar

StartChar: thorn
Encoding: 254 254 192
Width: 468
GlyphClass: 2
Flags: W
LayerCount: 2
Fore
SplineSet
65 546 m 2,0,1
 65 597 65 597 53 624 c 128,-1,2
 41 651 41 651 15 673 c 1,3,-1
 125 750 l 1,4,5
 197 693 197 693 197 589 c 2,6,-1
 197 498 l 1,7,8
 257 551 257 551 283.5 551 c 128,-1,9
 310 551 310 551 364.5 497.5 c 128,-1,10
 419 444 419 444 427 419 c 1,11,12
 438 394 438 394 438 269.5 c 128,-1,13
 438 145 438 145 427 120 c 1,14,15
 419 95 419 95 364.5 41.5 c 128,-1,16
 310 -12 310 -12 284 -12 c 128,-1,17
 258 -12 258 -12 197 40 c 1,18,-1
 197 -45 l 2,19,20
 197 -96 197 -96 209 -124 c 128,-1,21
 221 -152 221 -152 247 -173 c 1,22,-1
 137 -250 l 1,23,24
 65 -193 65 -193 65 -88 c 2,25,-1
 65 546 l 2,0,1
230.5 126.5 m 128,-1,27
 252 113 252 113 263 113 c 128,-1,28
 274 113 274 113 286.5 126 c 128,-1,29
 299 139 299 139 305 153 c 128,-1,30
 311 167 311 167 311 269.5 c 128,-1,31
 311 372 311 372 305 385.5 c 128,-1,32
 299 399 299 399 286.5 412.5 c 128,-1,33
 274 426 274 426 263.5 426 c 128,-1,34
 253 426 253 426 231.5 412.5 c 128,-1,35
 210 399 210 399 203 389 c 1,36,37
 195 372 195 372 195 268.5 c 128,-1,38
 195 165 195 165 202 152.5 c 128,-1,26
 209 140 209 140 230.5 126.5 c 128,-1,27
EndSplineSet
EndChar

StartChar: ydieresis
Encoding: 255 255 193
Width: 513
GlyphClass: 2
Flags: W
LayerCount: 2
Fore
SplineSet
316 539 m 1,0,-1
 448 539 l 1,1,-1
 448 33 l 2,2,3
 448 -86 448 -86 433 -115 c 128,-1,4
 418 -144 418 -144 354.5 -197 c 128,-1,5
 291 -250 291 -250 258 -250 c 128,-1,6
 225 -250 225 -250 173 -215.5 c 128,-1,7
 121 -181 121 -181 95 -136 c 1,8,-1
 198 -65 l 1,9,-1
 208 -78 l 2,10,11
 245 -125 245 -125 258.5 -125 c 128,-1,12
 272 -125 272 -125 287.5 -112 c 128,-1,13
 303 -99 303 -99 309.5 -86 c 128,-1,14
 316 -73 316 -73 316 8 c 2,15,-1
 316 62 l 1,16,17
 260 8 260 8 232.5 8 c 128,-1,18
 205 8 205 8 142.5 63.5 c 128,-1,19
 80 119 80 119 80 173 c 2,20,-1
 80 346 l 2,21,22
 80 397 80 397 68 425 c 128,-1,23
 56 453 56 453 30 474 c 1,24,-1
 140 551 l 1,25,26
 212 494 212 494 212 389 c 2,27,-1
 212 187 l 2,28,29
 212 170 212 170 231 151.5 c 128,-1,30
 250 133 250 133 264 133 c 128,-1,31
 278 133 278 133 316 174 c 1,32,-1
 316 539 l 1,0,-1
231 685 m 128,-1,34
 231 675 231 675 198.5 647.5 c 128,-1,35
 166 620 166 620 157 620 c 128,-1,36
 148 620 148 620 115.5 647.5 c 128,-1,37
 83 675 83 675 83 685 c 128,-1,38
 83 695 83 695 116 722.5 c 128,-1,39
 149 750 149 750 157.5 750 c 128,-1,40
 166 750 166 750 198.5 722.5 c 128,-1,33
 231 695 231 695 231 685 c 128,-1,34
429 685 m 128,-1,42
 429 675 429 675 396.5 647.5 c 128,-1,43
 364 620 364 620 355 620 c 128,-1,44
 346 620 346 620 313.5 647.5 c 128,-1,45
 281 675 281 675 281 685 c 128,-1,46
 281 695 281 695 314 722.5 c 128,-1,47
 347 750 347 750 355.5 750 c 128,-1,48
 364 750 364 750 396.5 722.5 c 128,-1,41
 429 695 429 695 429 685 c 128,-1,42
EndSplineSet
EndChar

StartChar: Amacron
Encoding: 256 256 194
Width: 514
GlyphClass: 2
Flags: W
LayerCount: 2
Fore
SplineSet
257 712 m 128,-1,1
 294 712 294 712 365 647 c 128,-1,2
 436 582 436 582 453 540 c 0,3,4
 464 511 464 511 464 409 c 2,5,-1
 464 0 l 1,6,-1
 326 0 l 1,7,-1
 326 150 l 1,8,-1
 188 150 l 1,9,-1
 188 0 l 1,10,-1
 50 0 l 1,11,-1
 50 409 l 2,12,13
 50 511 50 511 61 540 c 0,14,15
 78 582 78 582 149 647 c 128,-1,0
 220 712 220 712 257 712 c 128,-1,1
188 409 m 2,16,-1
 188 270 l 1,17,-1
 326 270 l 1,18,-1
 326 409 l 2,19,20
 326 491 326 491 318 509.5 c 128,-1,21
 310 528 310 528 290.5 548.5 c 128,-1,22
 271 569 271 569 257 569 c 128,-1,23
 243 569 243 569 223.5 548.5 c 128,-1,24
 204 528 204 528 196 509.5 c 128,-1,25
 188 491 188 491 188 409 c 2,16,-1
94 769 m 1,26,-1
 94 862 l 1,27,-1
 419 862 l 1,28,-1
 419 769 l 1,29,-1
 94 769 l 1,26,-1
EndSplineSet
EndChar

StartChar: amacron
Encoding: 257 257 195
Width: 443
GlyphClass: 2
Flags: W
LayerCount: 2
Fore
SplineSet
405 539 m 1,0,-1
 405 129 l 1,1,2
 411 94 411 94 452 67 c 1,3,-1
 362 -10 l 1,4,5
 349 -1 349 -1 330 22 c 128,-1,6
 311 45 311 45 298 69 c 1,7,8
 215 -12 215 -12 182 -12 c 0,9,10
 158 -12 158 -12 104.5 41 c 128,-1,11
 51 94 51 94 38 127 c 128,-1,12
 25 160 25 160 25 269.5 c 128,-1,13
 25 379 25 379 38 412 c 128,-1,14
 51 445 51 445 104.5 498 c 128,-1,15
 158 551 158 551 182 551 c 0,16,17
 217 551 217 551 295 479 c 1,18,-1
 307 539 l 1,19,-1
 405 539 l 1,0,-1
237.5 412.5 m 128,-1,21
 216 426 216 426 205 426 c 128,-1,22
 194 426 194 426 181.5 413 c 128,-1,23
 169 400 169 400 165 389 c 1,24,25
 152 371 152 371 152 269.5 c 128,-1,26
 152 168 152 168 165 150 c 1,27,28
 169 140 169 140 181.5 126.5 c 128,-1,29
 194 113 194 113 205 113 c 128,-1,30
 216 113 216 113 237.5 126.5 c 128,-1,31
 259 140 259 140 265.5 151 c 128,-1,32
 272 162 272 162 273 268 c 0,33,34
 273 374 273 374 266 386.5 c 128,-1,20
 259 399 259 399 237.5 412.5 c 128,-1,21
59 608 m 1,35,-1
 59 701 l 1,36,-1
 384 701 l 1,37,-1
 384 608 l 1,38,-1
 59 608 l 1,35,-1
EndSplineSet
EndChar

StartChar: Emacron
Encoding: 274 274 196
Width: 487
GlyphClass: 2
Flags: W
LayerCount: 2
Fore
SplineSet
208 426 m 1,0,-1
 387 426 l 1,1,-1
 387 305 l 1,2,-1
 208 305 l 1,3,-1
 208 121 l 1,4,-1
 447 121 l 1,5,-1
 447 0 l 1,6,-1
 70 0 l 1,7,-1
 70 616 l 1,8,-1
 208 712 l 1,9,-1
 431 712 l 1,10,-1
 431 590 l 1,11,-1
 245 590 l 1,12,-1
 208 564 l 1,13,-1
 208 426 l 1,0,-1
113 769 m 1,14,-1
 113 862 l 1,15,-1
 438 862 l 1,16,-1
 438 769 l 1,17,-1
 113 769 l 1,14,-1
EndSplineSet
EndChar

StartChar: emacron
Encoding: 275 275 197
Width: 454
GlyphClass: 2
Flags: W
LayerCount: 2
Fore
SplineSet
414 271 m 2,0,-1
 414 235 l 1,1,-1
 172 235 l 1,2,3
 172 175 172 175 187 140 c 0,4,5
 192 128 192 128 205 115.5 c 128,-1,6
 218 103 218 103 232 103 c 128,-1,7
 246 103 246 103 267 127 c 128,-1,8
 288 151 288 151 300 185 c 1,9,-1
 403 112 l 1,10,11
 376 62 376 62 320.5 25 c 128,-1,12
 265 -12 265 -12 231 -12 c 128,-1,13
 197 -12 197 -12 132.5 41 c 128,-1,14
 68 94 68 94 54 123.5 c 128,-1,15
 40 153 40 153 40 269.5 c 128,-1,16
 40 386 40 386 54 415.5 c 128,-1,17
 68 445 68 445 132.5 498 c 128,-1,18
 197 551 197 551 227 551 c 128,-1,19
 257 551 257 551 321.5 498 c 128,-1,20
 386 445 386 445 400 415.5 c 128,-1,21
 414 386 414 386 414 271 c 2,0,-1
252.5 423 m 128,-1,23
 237 436 237 436 223.5 436 c 128,-1,24
 210 436 210 436 193 409.5 c 128,-1,25
 176 383 176 383 172 330 c 1,26,-1
 286 330 l 1,27,28
 283 383 283 383 275.5 396.5 c 128,-1,22
 268 410 268 410 252.5 423 c 128,-1,23
65 608 m 1,29,-1
 65 701 l 1,30,-1
 390 701 l 1,31,-1
 390 608 l 1,32,-1
 65 608 l 1,29,-1
EndSplineSet
EndChar

StartChar: Edotaccent
Encoding: 278 278 198
Width: 487
GlyphClass: 2
Flags: W
LayerCount: 2
Fore
SplineSet
208 426 m 1,0,-1
 387 426 l 1,1,-1
 387 305 l 1,2,-1
 208 305 l 1,3,-1
 208 121 l 1,4,-1
 447 121 l 1,5,-1
 447 0 l 1,6,-1
 70 0 l 1,7,-1
 70 616 l 1,8,-1
 208 712 l 1,9,-1
 431 712 l 1,10,-1
 431 590 l 1,11,-1
 245 590 l 1,12,-1
 208 564 l 1,13,-1
 208 426 l 1,0,-1
361 840 m 128,-1,15
 361 829 361 829 325.5 798.5 c 128,-1,16
 290 768 290 768 280 768 c 128,-1,17
 270 768 270 768 234.5 798.5 c 128,-1,18
 199 829 199 829 199 840 c 128,-1,19
 199 851 199 851 235 881 c 128,-1,20
 271 911 271 911 280.5 911 c 128,-1,21
 290 911 290 911 325.5 881 c 128,-1,14
 361 851 361 851 361 840 c 128,-1,15
EndSplineSet
EndChar

StartChar: edotaccent
Encoding: 279 279 199
Width: 454
GlyphClass: 2
Flags: W
LayerCount: 2
Fore
SplineSet
414 271 m 2,0,-1
 414 235 l 1,1,-1
 172 235 l 1,2,3
 172 175 172 175 187 140 c 0,4,5
 192 128 192 128 205 115.5 c 128,-1,6
 218 103 218 103 232 103 c 128,-1,7
 246 103 246 103 267 127 c 128,-1,8
 288 151 288 151 300 185 c 1,9,-1
 403 112 l 1,10,11
 376 62 376 62 320.5 25 c 128,-1,12
 265 -12 265 -12 231 -12 c 128,-1,13
 197 -12 197 -12 132.5 41 c 128,-1,14
 68 94 68 94 54 123.5 c 128,-1,15
 40 153 40 153 40 269.5 c 128,-1,16
 40 386 40 386 54 415.5 c 128,-1,17
 68 445 68 445 132.5 498 c 128,-1,18
 197 551 197 551 227 551 c 128,-1,19
 257 551 257 551 321.5 498 c 128,-1,20
 386 445 386 445 400 415.5 c 128,-1,21
 414 386 414 386 414 271 c 2,0,-1
252.5 423 m 128,-1,23
 237 436 237 436 223.5 436 c 128,-1,24
 210 436 210 436 193 409.5 c 128,-1,25
 176 383 176 383 172 330 c 1,26,-1
 286 330 l 1,27,28
 283 383 283 383 275.5 396.5 c 128,-1,22
 268 410 268 410 252.5 423 c 128,-1,23
308 679 m 128,-1,30
 308 668 308 668 272.5 637.5 c 128,-1,31
 237 607 237 607 227 607 c 128,-1,32
 217 607 217 607 181.5 637.5 c 128,-1,33
 146 668 146 668 146 679 c 128,-1,34
 146 690 146 690 182 720 c 128,-1,35
 218 750 218 750 227.5 750 c 128,-1,36
 237 750 237 750 272.5 720 c 128,-1,29
 308 690 308 690 308 679 c 128,-1,30
EndSplineSet
EndChar

StartChar: Ecaron
Encoding: 282 282 200
Width: 487
GlyphClass: 2
Flags: W
LayerCount: 2
Fore
SplineSet
208 426 m 1,0,-1
 387 426 l 1,1,-1
 387 305 l 1,2,-1
 208 305 l 1,3,-1
 208 121 l 1,4,-1
 447 121 l 1,5,-1
 447 0 l 1,6,-1
 70 0 l 1,7,-1
 70 616 l 1,8,-1
 208 712 l 1,9,-1
 431 712 l 1,10,-1
 431 590 l 1,11,-1
 245 590 l 1,12,-1
 208 564 l 1,13,-1
 208 426 l 1,0,-1
283 838 m 1,14,15
 389 882 389 882 395.5 882 c 128,-1,16
 402 882 402 882 414 859 c 128,-1,17
 426 836 426 836 426 828 c 0,18,19
 426 823 426 823 359 786.5 c 128,-1,20
 292 750 292 750 283 750 c 128,-1,21
 274 750 274 750 207 786.5 c 128,-1,22
 140 823 140 823 140 828 c 0,23,24
 140 836 140 836 152.5 859 c 128,-1,25
 165 882 165 882 170 882 c 0,26,27
 171 882 171 882 283 838 c 1,14,15
EndSplineSet
EndChar

StartChar: hbar
Encoding: 295 295 201
Width: 503
GlyphClass: 2
Flags: W
LayerCount: 2
Fore
SplineSet
-9 568 m 1,0,-1
 -9 648 l 1,1,-1
 54 648 l 1,2,3
 48 668 48 668 35 687 c 1,4,-1
 125 750 l 1,5,6
 178 708 178 708 191 648 c 1,7,-1
 264 648 l 1,8,-1
 264 568 l 1,9,-1
 197 568 l 1,10,-1
 197 476 l 1,11,12
 259 531 259 531 287 531 c 128,-1,13
 315 531 315 531 376.5 475.5 c 128,-1,14
 438 420 438 420 438 366 c 2,15,-1
 438 193 l 2,16,17
 438 142 438 142 450 114 c 128,-1,18
 462 86 462 86 488 65 c 1,19,-1
 378 -12 l 1,20,21
 306 45 306 45 306 150 c 2,22,-1
 306 352 l 2,23,24
 306 369 306 369 288 387.5 c 128,-1,25
 270 406 270 406 254.5 406 c 128,-1,26
 239 406 239 406 197 364 c 1,27,-1
 197 0 l 1,28,-1
 65 0 l 1,29,-1
 65 568 l 1,30,-1
 -9 568 l 1,0,-1
EndSplineSet
EndChar

StartChar: Itilde
Encoding: 296 296 202
Width: 250
GlyphClass: 2
Flags: W
LayerCount: 2
Fore
SplineSet
56 0 m 1,0,-1
 56 700 l 1,1,-1
 194 700 l 1,2,-1
 194 0 l 1,3,-1
 56 0 l 1,0,-1
242.5 800.5 m 128,-1,5
 181 741 181 741 169.5 741 c 128,-1,6
 158 741 158 741 80 801 c 1,7,8
 2 741 2 741 -7 741 c 128,-1,9
 -16 741 -16 741 -35 760 c 128,-1,10
 -54 779 -54 779 -54 785.5 c 128,-1,11
 -54 792 -54 792 7.5 851.5 c 128,-1,12
 69 911 69 911 80.5 911 c 128,-1,13
 92 911 92 911 170 851 c 1,14,15
 248 911 248 911 257 911 c 128,-1,16
 266 911 266 911 285 892 c 128,-1,17
 304 873 304 873 304 866.5 c 128,-1,4
 304 860 304 860 242.5 800.5 c 128,-1,5
EndSplineSet
EndChar

StartChar: itilde
Encoding: 297 297 203
Width: 261
GlyphClass: 2
Flags: W
LayerCount: 2
Fore
SplineSet
54 539 m 1,0,-1
 186 539 l 1,1,-1
 186 193 l 2,2,3
 186 142 186 142 198 114 c 128,-1,4
 210 86 210 86 236 65 c 1,5,-1
 126 -12 l 1,6,7
 54 45 54 45 54 150 c 2,8,-1
 54 539 l 1,0,-1
248.5 639.5 m 128,-1,10
 187 580 187 580 175.5 580 c 128,-1,11
 164 580 164 580 86 640 c 1,12,13
 8 580 8 580 -1 580 c 128,-1,14
 -10 580 -10 580 -29 599 c 128,-1,15
 -48 618 -48 618 -48 624.5 c 128,-1,16
 -48 631 -48 631 13.5 690.5 c 128,-1,17
 75 750 75 750 86.5 750 c 128,-1,18
 98 750 98 750 176 690 c 1,19,20
 254 750 254 750 263 750 c 128,-1,21
 272 750 272 750 291 731 c 128,-1,22
 310 712 310 712 310 705.5 c 128,-1,9
 310 699 310 699 248.5 639.5 c 128,-1,10
EndSplineSet
EndChar

StartChar: Imacron
Encoding: 298 298 204
Width: 250
GlyphClass: 2
Flags: W
LayerCount: 2
Fore
SplineSet
56 0 m 1,0,-1
 56 700 l 1,1,-1
 194 700 l 1,2,-1
 194 0 l 1,3,-1
 56 0 l 1,0,-1
-37 769 m 1,4,-1
 -37 862 l 1,5,-1
 288 862 l 1,6,-1
 288 769 l 1,7,-1
 -37 769 l 1,4,-1
EndSplineSet
EndChar

StartChar: imacron
Encoding: 299 299 205
Width: 261
GlyphClass: 2
Flags: W
LayerCount: 2
Fore
SplineSet
54 539 m 1,0,-1
 186 539 l 1,1,-1
 186 193 l 2,2,3
 186 142 186 142 198 114 c 128,-1,4
 210 86 210 86 236 65 c 1,5,-1
 126 -12 l 1,6,7
 54 45 54 45 54 150 c 2,8,-1
 54 539 l 1,0,-1
-32 608 m 1,9,-1
 -32 701 l 1,10,-1
 293 701 l 1,11,-1
 293 608 l 1,12,-1
 -32 608 l 1,9,-1
EndSplineSet
EndChar

StartChar: Idotaccent
Encoding: 304 304 206
Width: 250
GlyphClass: 2
Flags: W
LayerCount: 2
Fore
SplineSet
56 0 m 1,0,-1
 56 700 l 1,1,-1
 194 700 l 1,2,-1
 194 0 l 1,3,-1
 56 0 l 1,0,-1
206 840 m 128,-1,5
 206 829 206 829 170.5 798.5 c 128,-1,6
 135 768 135 768 125 768 c 128,-1,7
 115 768 115 768 79.5 798.5 c 128,-1,8
 44 829 44 829 44 840 c 128,-1,9
 44 851 44 851 80 881 c 128,-1,10
 116 911 116 911 125.5 911 c 128,-1,11
 135 911 135 911 170.5 881 c 128,-1,4
 206 851 206 851 206 840 c 128,-1,5
EndSplineSet
EndChar

StartChar: dotlessi
Encoding: 305 305 207
Width: 251
GlyphClass: 2
Flags: W
LayerCount: 2
Fore
SplineSet
54 539 m 1,0,-1
 186 539 l 1,1,-1
 186 193 l 2,2,3
 186 142 186 142 198 114 c 128,-1,4
 210 86 210 86 236 65 c 1,5,-1
 126 -12 l 1,6,7
 54 45 54 45 54 150 c 2,8,-1
 54 539 l 1,0,-1
EndSplineSet
EndChar

StartChar: IJ
Encoding: 306 306 208
Width: 699
GlyphClass: 2
Flags: W
LayerCount: 2
Fore
SplineSet
56 0 m 1,0,-1
 56 700 l 1,1,-1
 194 700 l 1,2,-1
 194 0 l 1,3,-1
 56 0 l 1,0,-1
511 700 m 1,4,-1
 649 700 l 1,5,-1
 649 303 l 2,6,7
 649 178 649 178 629 143 c 128,-1,8
 609 108 609 108 543.5 48 c 128,-1,9
 478 -12 478 -12 441.5 -12 c 128,-1,10
 405 -12 405 -12 347 31 c 128,-1,11
 289 74 289 74 260 132 c 1,12,-1
 371 210 l 1,13,14
 372 209 372 209 379.5 198.5 c 128,-1,15
 387 188 387 188 393 180.5 c 128,-1,16
 399 173 399 173 408 164 c 0,17,18
 427 143 427 143 440.5 143 c 128,-1,19
 454 143 454 143 471 159.5 c 128,-1,20
 488 176 488 176 499.5 194 c 128,-1,21
 511 212 511 212 511 303 c 2,22,-1
 511 700 l 1,4,-1
EndSplineSet
EndChar

StartChar: ij
Encoding: 307 307 209
Width: 534
GlyphClass: 2
Flags: W
LayerCount: 2
Fore
SplineSet
51 539 m 1,0,-1
 183 539 l 1,1,-1
 183 193 l 2,2,3
 183 142 183 142 195 114 c 128,-1,4
 207 86 207 86 233 65 c 1,5,-1
 123 -12 l 1,6,7
 51 45 51 45 51 150 c 2,8,-1
 51 539 l 1,0,-1
168 715.5 m 128,-1,10
 206 683 206 683 206 671.5 c 128,-1,11
 206 660 206 660 167.5 627 c 128,-1,12
 129 594 129 594 118.5 594 c 128,-1,13
 108 594 108 594 70 626.5 c 128,-1,14
 32 659 32 659 32 670.5 c 128,-1,15
 32 682 32 682 70.5 715 c 128,-1,16
 109 748 109 748 119.5 748 c 128,-1,9
 130 748 130 748 168 715.5 c 128,-1,10
479 388 m 2,17,-1
 478 33 l 2,18,19
 478 -93 478 -93 463 -118 c 1,20,21
 452 -144 452 -144 387 -197 c 128,-1,22
 322 -250 322 -250 289 -250 c 128,-1,23
 256 -250 256 -250 204 -215.5 c 128,-1,24
 152 -181 152 -181 126 -136 c 1,25,-1
 229 -65 l 1,26,-1
 240 -78 l 1,27,28
 276 -125 276 -125 289.5 -125 c 128,-1,29
 303 -125 303 -125 318.5 -112 c 128,-1,30
 334 -99 334 -99 340.5 -86 c 128,-1,31
 347 -73 347 -73 347 8 c 2,32,-1
 347 345 l 2,33,34
 347 396 347 396 335 424 c 128,-1,35
 323 452 323 452 297 473 c 1,36,-1
 407 550 l 1,37,38
 479 493 479 493 479 388 c 2,17,-1
440 715.5 m 128,-1,40
 478 683 478 683 478 671.5 c 128,-1,41
 478 660 478 660 439.5 627 c 128,-1,42
 401 594 401 594 390.5 594 c 128,-1,43
 380 594 380 594 342 626.5 c 128,-1,44
 304 659 304 659 304 670.5 c 128,-1,45
 304 682 304 682 342.5 715 c 128,-1,46
 381 748 381 748 391.5 748 c 128,-1,39
 402 748 402 748 440 715.5 c 128,-1,40
EndSplineSet
EndChar

StartChar: Jcircumflex
Encoding: 308 308 210
Width: 449
GlyphClass: 2
Flags: W
LayerCount: 2
Fore
SplineSet
261 700 m 1,0,-1
 399 700 l 1,1,-1
 399 303 l 2,2,3
 399 178 399 178 379 143 c 128,-1,4
 359 108 359 108 293.5 48 c 128,-1,5
 228 -12 228 -12 191.5 -12 c 128,-1,6
 155 -12 155 -12 97 31 c 128,-1,7
 39 74 39 74 10 132 c 1,8,-1
 121 210 l 1,9,10
 122 209 122 209 129.5 198.5 c 128,-1,11
 137 188 137 188 143 180.5 c 128,-1,12
 149 173 149 173 158 164 c 0,13,14
 177 143 177 143 190.5 143 c 128,-1,15
 204 143 204 143 221 159.5 c 128,-1,16
 238 176 238 176 249.5 194 c 128,-1,17
 261 212 261 212 261 303 c 2,18,-1
 261 700 l 1,0,-1
304 801 m 1,19,20
 226 741 226 741 217 741 c 128,-1,21
 208 741 208 741 189 760 c 128,-1,22
 170 779 170 779 170 785.5 c 128,-1,23
 170 792 170 792 231.5 851.5 c 128,-1,24
 293 911 293 911 304 911 c 128,-1,25
 315 911 315 911 376.5 851.5 c 128,-1,26
 438 792 438 792 438 785.5 c 128,-1,27
 438 779 438 779 419 760 c 128,-1,28
 400 741 400 741 391 741 c 128,-1,29
 382 741 382 741 304 801 c 1,19,20
EndSplineSet
EndChar

StartChar: jcircumflex
Encoding: 309 309 211
Width: 273
GlyphClass: 2
Flags: W
LayerCount: 2
Fore
SplineSet
218 388 m 2,0,1
 218 388 218 388 217 33 c 0,2,3
 217 -93 217 -93 202 -118 c 1,4,5
 191 -144 191 -144 126 -197 c 128,-1,6
 61 -250 61 -250 28 -250 c 128,-1,7
 -5 -250 -5 -250 -57 -215.5 c 128,-1,8
 -109 -181 -109 -181 -135 -136 c 1,9,-1
 -32 -65 l 1,10,-1
 -22 -78 l 2,11,12
 15 -125 15 -125 28.5 -125 c 128,-1,13
 42 -125 42 -125 57.5 -112 c 128,-1,14
 73 -99 73 -99 79.5 -86 c 128,-1,15
 86 -73 86 -73 86 8 c 2,16,-1
 86 345 l 2,17,18
 86 396 86 396 74 424 c 128,-1,19
 62 452 62 452 36 473 c 1,20,-1
 146 550 l 1,21,22
 218 493 218 493 218 388 c 2,0,1
137 640 m 1,23,24
 59 580 59 580 50 580 c 128,-1,25
 41 580 41 580 22 599 c 128,-1,26
 3 618 3 618 3 624.5 c 128,-1,27
 3 631 3 631 64.5 690.5 c 128,-1,28
 126 750 126 750 137 750 c 128,-1,29
 148 750 148 750 209.5 690.5 c 128,-1,30
 271 631 271 631 271 624.5 c 128,-1,31
 271 618 271 618 252 599 c 128,-1,32
 233 580 233 580 224 580 c 128,-1,33
 215 580 215 580 137 640 c 1,23,24
EndSplineSet
EndChar

StartChar: kcedilla
Encoding: 311 311 212
Width: 503
GlyphClass: 2
Flags: W
LayerCount: 2
Fore
SplineSet
197 0 m 1,0,-1
 65 0 l 1,1,-1
 65 546 l 2,2,3
 65 597 65 597 53 624 c 128,-1,4
 41 651 41 651 15 673 c 1,5,-1
 125 750 l 1,6,7
 197 693 197 693 197 589 c 2,8,-1
 197 475 l 1,9,10
 275 551 275 551 301 551 c 128,-1,11
 327 551 327 551 393 494 c 128,-1,12
 459 437 459 437 461 405 c 1,13,14
 461 382 461 382 429.5 327 c 128,-1,15
 398 272 398 272 369 243 c 1,16,17
 442 153 442 153 462 76 c 1,18,-1
 336 -12 l 1,19,20
 313 69 313 69 288 122.5 c 128,-1,21
 263 176 263 176 218 223 c 1,22,-1
 218 258 l 1,23,24
 249 280 249 280 284 322.5 c 128,-1,25
 319 365 319 365 324 388 c 1,26,27
 296 426 296 426 276 426 c 0,28,29
 265 426 265 426 239.5 404.5 c 128,-1,30
 214 383 214 383 197 364 c 1,31,-1
 197 0 l 1,0,-1
166 -86 m 0,32,33
 166 -75 166 -75 211 -13.5 c 128,-1,34
 256 48 256 48 261 48 c 0,35,36
 268 48 268 48 287 37.5 c 128,-1,37
 306 27 306 27 306 24 c 0,38,39
 306 14 306 14 246 -56 c 1,40,41
 275 -83 275 -83 291 -97 c 128,-1,42
 307 -111 307 -111 317 -120 c 0,43,44
 336 -139 336 -139 336 -147 c 128,-1,45
 336 -155 336 -155 276.5 -202.5 c 128,-1,46
 217 -250 217 -250 210.5 -250 c 128,-1,47
 204 -250 204 -250 185 -231 c 128,-1,48
 166 -212 166 -212 166 -206 c 128,-1,49
 166 -200 166 -200 226 -146 c 1,50,51
 166 -92 166 -92 166 -86 c 0,32,33
EndSplineSet
EndChar

